<?xml version="1.0" encoding="UTF-8"?>
<svg id="Layer_1" xmlns="http://www.w3.org/2000/svg" version="1.1" viewBox="0 0 305.8 305.8">
  <!-- Generator: Adobe Illustrator 29.5.1, SVG Export Plug-In . SVG Version: 2.1.0 Build 141)  -->
  <defs>
    <style>
      .st0 {
        fill: #c4e94d;
      }

      .st1 {
        fill: #57caef;
      }

      .st2 {
        fill: #010203;
      }

      .st3 {
        fill: #303f51;
      }

      .st4 {
        fill: #fcfdfd;
      }
    </style>
  </defs>
  <path class="st1" d="M208.3,44.6c64.8,33.1,86.4,116.5,44.8,177.1-42,61.1-128.6,70.8-183.1,20.1-46.6-43.5-51.7-115.8-11.5-165.5,36-44.3,98.6-57.9,149.8-31.7h0ZM219.2,60.1c-44.5-31.8-105.3-27.6-144.9,10-47.5,45.1-47.4,121.2.6,166.1,54.1,50.5,140.9,36.8,177.3-27.1,28.8-50.7,14.2-115.4-33-149h0Z"/>
  <path class="st4" d="M219.2,60.1c47.1,33.6,61.8,98.3,33,149-36.3,63.9-123.2,77.6-177.3,27.1-47.9-44.8-48.1-121-.6-166.1,39.6-37.6,100.3-41.8,144.9-10h0ZM228.7,78.6c-46.5-47.2-123.6-40.9-162,12.8-27,37.8-26,89.3,2.4,126,34.3,44.4,97.2,54.8,143.8,22.9,54.4-37.2,62.2-114.7,15.8-161.8h0Z"/>
  <path class="st3" d="M228.7,78.6c46.5,47.2,38.7,124.6-15.8,161.8-46.7,31.9-109.5,21.5-143.8-22.9-28.4-36.7-29.4-88.3-2.4-126,38.4-53.8,115.5-60,162-12.8h0ZM224.2,76.5c-45.1-41.8-116-36-153.6,12.4-38.1,49-25,120.1,27.3,152.7,45.7,28.4,105.3,17.4,137.9-25,32.9-42.7,27.8-103.5-11.6-140.1h0Z"/>
  <path class="st4" d="M224.2,76.5c39.4,36.6,44.5,97.4,11.6,140.1-32.6,42.4-92.2,53.4-137.9,25-52.3-32.6-65.4-103.7-27.3-152.7,37.6-48.4,108.5-54.2,153.6-12.4h0ZM143.2,58.6c-11.8,1.4-10,21.9,1.3,21.7s6.9-1.1,6.9-3.2-1.5-3.6-2.1-3.9-1.4.5-2.2.7c-6.8,2.1-7.6-10-1.8-9.8,1.9,0,2.2,1.4,3.2-1.1s.9-2.5.2-3.5-4.2-1.2-5.5-1h0ZM170.3,80.7l-3-21c-.3-.5-6.9-1-8-1l-7.6,19.7c.2.7,4.9,1.4,5.6.4s1.1-3.5,1.4-3.7c1.5-.2,3,.4,4.5.3.4,0,.5,3.7.9,4.4s2,.9,2.4.9h3.8ZM184.7,74.1l-1.5-10.3c-.5-.9-4.7-2.6-5.3-2.3l-6.9,19.4c.3.7,4.5,2.2,5.1,1.7s2.5-7.5,3-8.5c.4.2.2.6.3.9.6,3.1.8,6.3,1.5,9.4.3.7,4.9,2.3,5.5,1.9l6.6-19.1c0-.5-1.2-.9-1.7-1.1s-3.2-1.1-3.6-.8l-3.1,8.7h0ZM123.2,73.9c0-.9.7-1.6.8-2.6.3-3.6-2.1-6.4-5.7-6.1s-6.8,2.3-8.8,3.3-1.1.5-1.2.7l7.9,18.5c.5.6.9.4,1.6.2,1.9-.5,8.2-3.3,9.5-4.7,3.4-3.5.7-9.4-4-9.3h-.1ZM199.2,88.5c-.1-.2-1.9-.8-1.9-1.1,1.9-2.6,3.3-5.9,5.1-8.5.9-1.3,1.7.8,2.7.4s2.5-3.2,2.4-4.1-8.1-5.1-9.2-5.6c-1.1.4-3.2,3.5-2.2,4.6s1.8.8,1.7,1l-5.4,9.2c-.1,0-1.6-1.1-1.9-1.1-1-.2-3.6,3.6-2.5,4.6l8.5,5.1c1.3.2,3.3-3.5,2.8-4.4h-.1ZM102.6,72.3c-.6,0-4.3,2.6-4.6,3.2s0,1.1.4,1.7c2.2,3.5,5.2,6.8,7.4,10.3.5,1.5-2,3.2-3.2,2.2l-8.1-11.1c-.9-.3-5.4,2.9-5.3,3.7,2.5,3.3,4.7,7,7.3,10.2,1.5,1.9,2.8,3.4,5.4,3.7,6.1.6,13.5-6.6,9.2-12.5l-8.1-11.2c0-.2-.3-.2-.5-.2h0ZM213.6,92.7l2.5-10.2c0-1-3.4-4.3-4.2-4.1l-13.7,15.2c.5.8,3.3,3.8,4.1,3.6l6.3-6.8-2.4,10.2c0,.8,3.3,3.9,4.2,3.8l13.7-14.9c.1-.6-3.2-3.8-4.1-3.5s-5.1,5.9-6.4,6.8h0ZM218.3,187.4c9.2-20.7,7.5-45.4-4-64.9-23.3-39.1-77.1-46.9-110.4-15.4-21.6,20.4-28.3,52.3-16.7,79.9l3.3,7.1c-1.3.2-5.4.4-6.1.8s-.3.7-.8.6c-1.2-.3-2.6-.6-3.8-.9s-1.6-1-3.6-.8c-.2,0-.6-.1-.5.3.4.9,3.7,2.6,4.7,3.1,4.3,1.8,8.3,1.5,12.8.7,0,.5,0,.6.3,1,2.5,4.1,7.1,9.3,10.7,12.5,32.2,29.6,82.2,24,107.2-11.5.6-.8,1.2-1.7,1.6-2.6,4,.1,8.1.1,12.2.2,3.1,0,8.8,1.1,11.6.1s-.3-1.5-.4-1.8c-.1-.4,0-.9-.1-1.4-.8-3.1-4.6-5.3-7.6-5.4s-3.3.4-4.7.4-1-.3-1.5-.4-2.3.2-2.9,0,0-1.2-1.3-1.4v-.2ZM82.1,89.2c-.6,0-3.5,3.2-3.8,3.9s0,.4,0,.6l14,13.1c.6.4,1.3.5,1.9,0l6.5-6.9c.5-1.1-2.7-4-3.7-4.1s-2.7,2.9-3.4,3.2-.4.2-.6,0c-1.3-1-10.2-9.9-10.9-9.8ZM224.9,97.2c-6.1.8-12.2,7.3-10.2,13.7,3,9.5,13.8,8.2,19.1,1.5,5.3-6.6-.8-16.3-9-15.2h0ZM84.6,110.3c-3.3,3.2-11.3-2.3-7.5-6.6.4-.5,1.4-.9,1.5-1.1.5-.8-1.4-3.7-2.2-4.1-2.2-1.2-5.2,3.2-5.9,5-4.1,10.9,15.3,21.3,20.3,7.8,1.7-4.6-.6-5-4.8-4.9,0,1.3-.5,2.9-1.4,3.8h0ZM86.2,213.7l-5.2,5.9c0,.2,0,.4.2.6s2.3,2.1,2.6,2.3c3.1,2.1,7.2-1.6,6.5-5s-2.4-2.7-3.4-3.8c-.2-.1-.4-.1-.6,0h0ZM213.2,224.6c.9.8-.8,2.2-1.6,2.4s-2.1-.2-1.8,1.1,2.2.4,2.8.1c3.3-1.5,2.9-6.1-.7-5.4s-2.8,1.7-3.5.6.9-1.9,1.6-2.1,2.3,0,1.4-1.3c-.6-.9-3.1.3-3.7,1-1.2,1.3-1.3,3.4.4,4.2,1.8.8,4-1.7,5.1-.7h0ZM95.9,222.7c-3.7.6-5.2,6.1-1.7,8s5.3.1,6.2-2.5c1.1-3-1.3-6.1-4.6-5.5h0ZM200.6,233.5c.1-.1,2.5-1.1,2.8-1.5.7-.2,1.2.9,1.9.9s1-.4.8-.8-5.1-4.1-5.7-4.6-1.9-1.2-2,.4l1,7.5c2.1,2,1-1.8,1.1-2h0ZM110,232.3c.5.3,1.2,0,1.3-.7,0-1.6-4.5-4.4-5.9-1.4-1.3,2.7,1.7,3.2,2.3,4.5s-1.6,1.6-2.5.8-1.5-2.6-2-1.2c-.7,2.1,4.1,4.9,5.9,2.4s-1.7-3.5-2.3-4.9,1.5-1.7,2.6-.5.6,1,.6,1h0ZM188.5,233.7l2.4,5.8c.4.6,1.4.6,1.6-.2-.6-2.1-1.7-4.1-2.4-6.1.5-.3,3.4-1.7,1.6-2.2s-4.6,1.9-5.7,2.2c-.8,2.1,1.5,1,2.5.5h0ZM179.9,235.3c-.4.1-.5.4-.5.8,0,.6,1.2,3.9,1.5,4.7s.6,2,.8,2.3c.4.4,1,.4,1.3-.1s-1-4-1.2-4.8-.8-2.6-.9-2.8-.6-.2-.9-.2h-.1ZM124.7,235.7c-.2-.2-1.1-.3-1.3.1,0,1.4-2.2,6.5-1.9,7.5s.9.7,1.3.2.7-2.9,1-3c.7.4,2.7.5,3.3.9s-1.2,3.3-.2,3.7c1,.3,1.1-.5,1.3-1.1s1.8-6.2,1.6-6.7-1.1-.4-1.3-.3-.8,2.6-.8,3.1l-3.7-1c-.2-.3,1-2.8.6-3.5h0ZM171.8,244.6l-1.2-6.3c-.2-.6-1.1-.6-1.4-.1-.4.7,1.3,6.5,1.4,7.7.6.7,4.9-.4,5.2-.9s0-.9-.2-1c-.7-.2-3.6.7-3.8.6ZM135.8,238.4c-.3,0-.2.3-.3.5-.3,1.1-.7,4.5-.6,5.6.4,3.3,5.4,3.8,6.5.6s1-5.3.6-5.8-1-.3-1.2,0c-.3.4-.4,4-.7,4.9-.4,1.4-1.9,2-3.1,1s-.6-1.3-.6-2.1,1.5-5.5-.7-4.7h.1ZM160.8,246.1l-.6-6.3c-1.7-1.6-1.6.4-1.5,1.7s.3,2.9.4,4.1c.1.8,0,2.2,1,2.2s3-.2,3.9-.4.8-1.4.4-1.5c-.7-.2-3.2.5-3.5.2h0ZM149.3,241.1h3.6c.3,0,.8-.9.2-1.3s-4-.3-4.6-.2-.7.3-.7.5v7.8l.3.3h4.9c.4,0,.4-1.4,0-1.4h-3.6v-2.3c.8.2,3.6.6,3.5-.7s-.4-.7-.5-.7h-3v-1.9h0Z"/>
  <path class="st1" d="M90.5,194l-3.3-7.1c-11.6-27.6-5-59.4,16.7-79.9,33.3-31.4,87.1-23.7,110.4,15.4,11.6,19.4,13.2,44.1,4,64.9-1.7-.3-4,.7-5.6,1.2,0-.7.3-1.4.4-2,.7-8.9-4.7-22.1-9.6-29.5-2.2-3.3-5.3-6.8-7.9-9.8-1.7-2.1-3.7-3.5-5.4-5.5-3.2-3.6-7-8.3-8.6-12.8s-.2-1.5-.5-2.2c-2.3-6.7-6.3-12.6-8.9-19.1-.3-.7-.6-3.7-.9-3.9s-.6,0-.8,0c-.4.6-.9,3.5-1.1,4.4-.8-.3-1.4-3.6-2.2-3.5s-1.1,4.2-1,5.1c.3,1.8,1.4,2.2-.9,3.3-1.1.5-2.1.7-3.3,1.4s-1.9,1.3-2.8,2.6-7.1,2.2-8.7,2.7-1.8.7-1.8,1.5c-.1,1.9,3.4,5,5.4,4.7-.6,1.3-1.7,2.7-2.2,3.9s1.4.3,1.7.3.8.4,1.2.5c2.5.5,3-.4,4.8-.7,1-.2,2,.3,3,.2v3.8c.2,2.3-.5,3.3-.6,5.3s.3,1.7.2,2.3-1.2,2-1.5,2.8c-.4,1.2-.2,4,.1,5.3s.7,1.2.9,1.9c.3,1.1,0,2.3.3,3.4s.5.9.6,1.5c-1-.6-1.8,0-2.8-.2s-2.3-.7-3.4-.9c-4.7-.9-7-.8-11.4,1.1-1.7.7-3,2.6-4.5,3.5s-6.2,1.6-7.9,1.1-2.3-1-2.9-1.7-1-1.4-1-1.5c0-.5,1.2.1,1.4-.2-1.4-1.2-3.7-3.9-3.3-5.8s.7-.7.8-1.4c0-1.1-.8-.8-.9-1.2-.2-.6.2-2.1.5-2.8s.5-.6.6-.8c.3-.5.6-2.7,1.5-1.7-.2.5-.3,1.1-.5,1.6s-.8.4-.4.6.6,0,.7-.2l1.8-1.4c-.3.9,0,1.9.3,2.7,1.2-2.2,3.8-3.6,3.8-6.2l.4,1.4c.4.4,1.3-1.7,1.4-2,.4-1.4.5-3,.6-4.4.3,0,.8,1.6,1.2,1.2.5-2.9-.8-4.1-2.1-6.3s-1.5-4.1-3.5-2.7c-.9.6-1.3,1.5-2.6,2.3-1.7,1-3.5,1.8-5.4,1.3,0-.9,1.2-1.2,1.9-1.5s.5.1.4-.4h-3c-.5,0-.9.4-1.3.8l1.4-2.1c-1.1.1-2.4.6-3,1.6s-.6,1.7-.9,1.8c-.4.2-.9-.2-1.5-.3-2.6-.3-3.3,1.9-5.2,3.1-1.5,2.3,2.1,3.7,2.1,5.2s-1,3.2-1.3,4.1-.3,2.7-.5,2.8-1.4-.4-1.8.6.4,1.1.6,1.3-1.6,2.4-1.7,3h.6c-.8,1-1.2,2.6-1.9,3.6s-3.1,2.7-3.9,3.9-1.1,1.6-2,2.8-2.3,3.2-3.5,4.7v.3c.2-.2,1-.7.8,0s-1.5,1.8-1.8,2.3c-.8,1.2-2,2.8-2.5,4.1-1,2.5-3.4,10.4-2.9,12.8s.4.1.5.5c.2.6,0,1.3.2,2s1,2.2.7,2.9c-.7,1.7-3.5,2.1-5.1,2.4h.1Z"/>
  <path class="st2" d="M90.5,194c1.6-.3,4.4-.7,5.1-2.4s-.6-2-.7-2.9,0-1.4-.2-2-.5-.3-.5-.5c-.5-2.4,1.9-10.3,2.9-12.8s1.7-2.9,2.5-4.1,1.7-2,1.8-2.3c.2-.6-.6-.1-.8,0v-.3c1.2-1.5,2.3-3.1,3.5-4.7s1.2-1.4,2-2.8,3-2.6,3.9-3.9,1-2.6,1.9-3.6h-.6c0-.5,1.9-2.7,1.7-3s-1.1,0-.6-1.3,1.7-.6,1.8-.6.3-2.3.5-2.8c.2-1,1.3-3.4,1.3-4.1,0-1.5-3.7-2.9-2.1-5.2,1.9-1.2,2.6-3.4,5.2-3.1s1.1.5,1.5.3.6-1.4.9-1.8c.6-.9,1.9-1.5,3-1.6l-1.4,2.1c.3-.4.7-.8,1.3-.8h3c0,.6,0,.3-.4.4-.7.3-1.8.6-1.9,1.5,1.9.5,3.8-.3,5.4-1.3,1.2-.7,1.7-1.7,2.6-2.3,2-1.4,2.7,1.5,3.5,2.7,1.3,2.2,2.7,3.4,2.1,6.3-.3.4-.9-1.2-1.2-1.2,0,1.4-.1,3-.6,4.4s-1,2.5-1.4,2l-.4-1.4c0,2.7-2.6,4.1-3.8,6.2-.4-.8-.6-1.8-.3-2.7l-1.8,1.4c0,.1-.6.3-.7.2-.3-.3.4-.4.4-.6.2-.5.3-1.1.5-1.6-1-1-1.3,1.2-1.5,1.7s-.6.7-.6.8c-.3.6-.7,2.2-.5,2.8s1,0,.9,1.2-.7.8-.8,1.4c-.4,2,1.9,4.6,3.3,5.8-.2.3-1.4-.4-1.4.2s.8,1.3,1,1.5c.6.6,2.1,1.5,2.9,1.7,1.7.4,6.4-.2,7.9-1.1s2.8-2.8,4.5-3.5c4.4-1.9,6.7-2,11.4-1.1,1.1.2,2.5.8,3.4.9s1.8-.4,2.8.2c0-.6-.5-.9-.6-1.5-.2-1.1,0-2.3-.3-3.4-.2-.6-.7-1-.9-1.9-.3-1.3-.6-4.1-.1-5.3s1.4-2.3,1.5-2.8-.2-1.5-.2-2.3c.1-2,.8-3,.6-5.3s0-2.5,0-3.8c-1,0-2-.3-3-.2-1.8.3-2.3,1.3-4.8.7-.4,0-.8-.5-1.2-.5s-2.3,1.1-1.7-.3,1.6-2.7,2.2-3.9c-2,.2-5.5-2.8-5.4-4.7s1.2-1.3,1.8-1.5c1.6-.5,8-1.6,8.7-2.7s1.3-1.8,2.8-2.6,2.1-.9,3.3-1.4c2.3-1.1,1.2-1.5.9-3.3s.1-4.9,1-5.1,1.4,3.1,2.2,3.5c.2-.9.7-3.8,1.1-4.4s.6-.2.8,0c.3.2.6,3.2.9,3.9,2.6,6.6,6.5,12.5,8.9,19.1.3.8.3,1.6.5,2.2,1.5,4.6,5.4,9.2,8.6,12.8s3.7,3.4,5.4,5.5c2.6,3.1,5.7,6.5,7.9,9.8,4.8,7.4,10.3,20.6,9.6,29.5,0,.7-.4,1.3-.4,2,1.7-.5,3.9-1.5,5.6-1.2,1.3.2,1.1,1.3,1.3,1.4.6.2,2.1-.1,2.9,0s.9.4,1.5.4c1.4,0,3.2-.5,4.7-.4,3,0,6.8,2.4,7.6,5.4.1.5,0,1.1.1,1.4s2.3,1.1.4,1.8c-2.8.9-8.5,0-11.6-.1-4.1,0-8.1,0-12.2-.2-5.8-.2-14.9-1.2-20.3-.3-4.2.7-9.7.5-14,.1s-2.8-.2-2.1-1.4,2.4-1.9,2.7-2c.6-.2,2.5-.5,3.3-.6s.9.2,1.5.1,1.6-1,2.5-.7c.3-1.1-.7-1.9-.8-2.8s.2-1.3,0-1.6c-.2-.5-1.9-2.1-2.4-2.9s-2-3.9-2.2-5c-.2-1,.1-2-.4-3-1-.7-2.2-2.1-3.1-2.7s-1.5-.5-2-1.2c-.4,0-.2,0-.3.3-.3.8-.2,2.4-.5,3.4s-1,2.7-1.2,3.8c-.5,2.1-.4,4.8-.8,7-.3,1.5-1.5,1.2-2.2,1.9s-1.2,1.9-1.7,2.5-2.7,1.7-3.1,1.9-5,.3-5.4,0c-.9-.5,0-2,.5-2.4,1-.8,2.6-.3,3.2-.9s1.6-2.7,1.9-3.3c2-4.4,1.7-9.2,2-14,0-1.4.9-5.4,0-6.5s-1.8-.5-2.4-.7c-2-.6-3.6-1.4-5.6-1.9-.7-.2-4.1-1.8-4.5-2.2s0-.5-.2-.6-2.1-.3-1.6-.6.5,0,.3-.4-.6-.4-.7-.4c-1.2-.1-1.5.4-2.4.6s-2.9.4-4,.1-.6-.4-.9-.4c-1.4-.3-1.4,1.2-2,2-.8,1.4-2.7,1.8-4.1,2.2,0,.3.6,0,.4.5s-3.1,2.2-3.8,2.4-1.6.3-1.7.4c-.4.4.5.3.4.7-.4.8-4.1,2.3-5,2.5s-1.4,0-1.8.4c-.5.7-1.6,5.3-1.9,5.6s-.5-.2-.6-.2c0,0-.5,1.9-.7,2.3s-.6.9-.7,1.3c0,.7.3,1.7.2,2.5s-.4.3-.4.4c-.2.7.2,1.4.2,2.1v3.4l-.6-.2c.3,1.6,0,3.7.3,5.3s2,1.6,2.6,2.8c1.4,2.6-3.4,2.2-4.8,1.7-2.2-.8-1.5-2.2-2.3-3.5s-.6-.3-.8-.8-.7-2.6-.7-3v-3.2l-.6.4v-1.6c-.5.2-.5.4-.7-.2l-4.7,6c0,.2-.2.5,0,.6.4.6,5.5-.1,4.5,2.1-.3.7-1,.6-1.2.9-.6.7.2,1.2-1.6,1.8-2.4.8-7.9.3-10.6.3s-.6.2-.9.2c-1.4,0-3-1.9-3.7-1.9-1.9.4-3.8,1-5.7,1.4-4.5.8-8.5,1-12.8-.7-1-.4-4.4-2.2-4.7-3.1s.3-.3.5-.3c2-.2,2.1.4,3.6.8s2.6.6,3.8.9c.5.1.5-.5.8-.6.7-.3,4.8-.5,6.1-.8h0Z"/>
  <path class="st1" d="M93.3,197.7c1.9-.3,3.8-.9,5.7-1.4.7,0,2.3,1.9,3.7,1.9s.6-.2.9-.2c2.7,0,8.2.5,10.6-.3,1.8-.6,1.1-1.1,1.6-1.8s.9-.2,1.2-.9c1-2.2-4.1-1.5-4.5-2.1s0-.4,0-.6l4.7-6c.2.5.2.4.7.2v1.6l.6-.4v3.2c0,.3.5,2.6.7,3,.3.5.7.5.8.8.8,1.2,0,2.6,2.3,3.5s6.2.9,4.8-1.7-2.3-1.2-2.6-2.8,0-3.6-.3-5.3l.6.2v-3.4c0-1.1-.4-1.4-.2-2.1s.3,0,.4-.4c0-.9-.3-1.9-.2-2.5s.5-.8.7-1.3.6-2.3.7-2.3.5.3.6.2c.4-.3,1.4-4.8,1.9-5.6.4-.5,1.2-.2,1.8-.4,1-.3,4.7-1.7,5-2.5s-.8-.3-.4-.7,1.2-.2,1.7-.4c.7-.3,3.6-1.9,3.8-2.4s-.5-.1-.4-.5c1.5-.4,3.3-.8,4.1-2.2s.5-2.3,2-2,.6.4.9.4c1,.3,2.9.1,4-.1s1.2-.7,2.4-.6.6.4.7.4c.3.4-.2.3-.3.4-.5.4,1.5.5,1.6.6s0,.4.2.6c.4.4,3.8,2.1,4.5,2.2,2,.6,3.6,1.4,5.6,1.9.7.2,1.9,0,2.4.7.8,1.1,0,5.1,0,6.5-.2,4.8,0,9.5-2,14-.3.7-1.5,2.9-1.9,3.3s-2.2,0-3.2.9-1.4,1.9-.5,2.4,4.8.1,5.4,0,2.8-1.5,3.1-1.9c.6-.6,1.1-2,1.7-2.5s2-.4,2.2-1.9c.4-2.2.3-4.8.8-7s1-2.6,1.2-3.8.1-2.6.5-3.4,0-.3.3-.3c.5.6,1.4.8,2,1.2.9.7,2.1,2,3.1,2.7.5.9.2,2,.4,3,.2,1.1,1.5,4,2.2,5s2.2,2.4,2.4,2.9-.1,1.1,0,1.6c.1,1,1,1.8.8,2.8-.9-.3-1.8.6-2.5.7s-1-.2-1.5-.1c-.8,0-2.7.3-3.3.6s-2.6,1.9-2.7,2c-.7,1.2,1.2,1.3,2.1,1.4,4.4.3,9.9.5,14-.1,5.3-.9,14.5.2,20.3.3-.4.9-1,1.8-1.6,2.6-25,35.5-75,41.1-107.2,11.5-3.5-3.3-8.2-8.4-10.7-12.5s-.4-.5-.3-1v.2ZM143.8,175.2h-2.3v1c0,.2-.7.5-.8.7v1.9c0,.4.4.3.4.4v.9c0,.3,1.2,1.3,1.3,1.3.8.2,1.7-.1,2.1-.8s0-.4.1-.7.3,0,.3-.2v-1.7c0-.3-.3-.1-.3-.2-.2-.5-.8-1.5-.8-1.6v-1h0ZM137.9,177.9c-.8-.4-1.9,0-2.6.5-.2,1-.3,2.4.4,3.1s.5.2.6.3c.7.7.9,1.3,2,1.1l-.4.4c.7.2.7-.3.9-.4s.4,0,.6,0c1.1-.7,0-3,0-4.2-.5-.6-.8-.3-1.4-.4s-.1-.3-.2-.3h0ZM148.4,178.7c-.3-.1-.7-.1-1.1,0s-1.2,1.2-1.2,1.2v1.4l-.4-.4c-.3.6.4.8.4.9.1.8.1.6.3,1.1s0,.5.1.7c.3.4,1.1.8,1.6.9s1.5-1.6,1.3-1.9c0,0,.5,0,.6-.1,0-.4-.2-2.8-.4-3s-.5,0-.7,0-.4-.6-.5-.7h0ZM137.5,184.6c-.4-.2-2.1-.6-2.5-.5s-.1.3-.3.4-.6,0-.6,0v1c0,.2-.4.1-.4.1-.3.4.3.4.3.4,0,0,.4.8.4.9v.6h.8c.1,0,0,.7,0,.8s.8,0,1,0,.2.6,1.4.4,1-.8,1-.8c.1-.3.1-1.1,0-1.4s-.3-.1-.4-.3v-.9c0-.3-.8-.8-.8-.8h.1ZM144.5,184.2c-.7-.3-2.2,0-2.8.4s-.2.4-.4.6-.8,0-.6.6.5,0,.4.3c-.7.1-.7.6-.8,1.1s-.3,0-.3.2v.9c0,.3-.4,0-.4.4v3.1c0,.4.3.1.3.2,0,.2,0,.5.1.6.4.6,1.5.6,2.1.4s.4-.6.6-.7.5,0,.7-.1c.2-.2,1.2-1.4,1.3-1.4.4-.1.7,0,1,0s.1-.3.3-.4c.7-.2,1.9.1,2.7,0s.3-.4.4-.4h1v-1c0-.2.5,0,.4-.4s-.3,0-.3-.2c-.9-1.8-2.5-2.8-4.3-3.5s-1-.5-1.3-.6h0ZM149.6,197.4c-.3-.1-1.6-.1-2,0s-.2.3-.4.4-.6,0-.6,0v1c0,.2-.6.4-.7.6-.5.7-.3,1.4-.5,2.1s-.3.1-.4.3v2.1c0,.3.3.1.4.3.1.5,0,.9.2,1.6s1,1.7,1.1,1.7c.2.1.5,0,.6.1s.4.7.6.7h1.7c.4,0,.4-.6.6-.7.5-.3.7-.2,1.4-.8s.4,0,.5,0c.1-.1,0-.5,0-.6.1-.2.3-.2.4-.3.1-.5-.1-1.3,0-1.9s.6-.1.4-1-.4,0-.4-.4c-.1-1.1.1-1.1-.3-2.1s-.8-2.1-1.7-2.6-.4,0-.6,0-.2-.3-.2-.3v-.2ZM160.1,199.7c-.3-.1-2-.1-2.4,0s-.2.3-.4.4-.4,0-.6,0c-1.4.9-2.3,2.9-2.8,4.5s-.3.2-.4.3v2.8c0,.3.3.1.3.2.3.7.6,1.8,1.3,2.2s.4,0,.7.1,0,.3.2.3h1.7c.3,0,.1-.3.2-.3,1.1-.5,2.2-1,3-2.1s0-.5.1-.7c.6-.9.4.1.7-1.5s.4,0,.4-.4c0-.7-.1-1.7,0-2.4l.4.4c.3-.6-.4-.8-.4-.9,0-.4.1-.9,0-1.4s-1.7-1.2-1.9-1.5h-.1ZM142.2,205.2c-.5-.3-2-.6-2.5-.5s-.1.3-.3.4-.4,0-.6,0-1.1,1.1-1.2,1.2c-.1.4,0,.7,0,1s-.8,1-.8,1.2v1.5c0,.2.3.1.4.3v1.3c0,.4.3.1.4.3v1c0,.4,1.8,1.9,1.9,1.9s.8.4.9.4h.9c.3,0,0,.4.2.4.4,0,.2-.3.4-.4s.6,0,1,0,1.1-1.1,1.2-1.2c.1-.2,0-.4,0-.6s.3-.1.4-.4v-4.3c0-.5-.3-.1-.4-.3v-1c0-.4-.6-.4-.7-.5s0-.5-.1-.7-1.1-1.1-1.2-1.2v.2ZM164.8,209.4c-.3-.1-2.6-.1-2.9,0s-.1.3-.2.3c-.2,0-.5,0-.7.1-.5.3-2.1,2.2-2.3,2.7s-.8,1.7-.9,1.8v1.9c0,.3.7,1.3.8,1.5s0,.6,0,.6h.6c.2,0,0,.4.4.4h3.1c.4,0,.1-.3.2-.3.4-.2,2-1,2.2-1.3s0-.5.1-.6.7-.4.7-.6v-.9c0-.3.3-.1.4-.3v-3.5c0-.5-.3-.2-.4-.4s0-.4,0-.6c-.3-.5-.6-.4-1-.5s0-.2-.1-.3h0ZM152.7,212.9c-.3-.1-4.5-.2-4.9,0s-.1.3-.3.4h-.9c-.3,0-.4.6-.6.7s-.5,0-.7.1c-.2.2-1.2,1.4-1.3,1.4-.2.1-.7,0-.7,0v.7c0,.2-1.8,1.5-1.8,1.7-.1.3,0,1.3,0,1.8s-.5.8-.8,2-.6,0-.4.8.4.1.4.3c.1.5.1,1.3.5,1.8s.7.8.8.8c.3.1,3.8.1,4.3,0s.2-.4.6-.4h2.7c.4,0,1.3.7,1.5.8.8.3,2.5.4,2.9,1.2s0,.7,0,.7h.6c.8.3.7.2,1.6.4s0,.6.8.4.1-.4.3-.4h1.3c.4,0,.8-.8.9-.8.1-.4,0-.7,0-1s.4,0,.4-.4v-1.9c0-.3-.3-.1-.4-.3-.3-1.3-.3-2-.8-3.3-.6-1.6-1.2-2.5-2.2-4s0-.5-.1-.7c-.4-.6-2.2-2-2.7-2.3s-.7-.4-.8-.4h-.2Z"/>
  <path class="st3" d="M213.6,92.7c1.3-.9,5.4-6.5,6.4-6.8s4.2,2.9,4.1,3.5l-13.7,14.9c-.8,0-4.1-3-4.2-3.8l2.4-10.2-6.3,6.8c-.9.2-3.7-2.8-4.1-3.6l13.7-15.2c.8,0,4.1,3.1,4.2,4.1l-2.5,10.2h0Z"/>
  <path class="st3" d="M184.7,74.1l3.1-8.7c.4-.4,3,.5,3.6.8s1.6.5,1.7,1.1l-6.6,19.1c-.6.4-5.2-1.3-5.5-1.9-.7-3.1-.8-6.3-1.5-9.4s0-.6-.3-.9c-.6,1-2.7,8.3-3,8.5-.7.4-4.8-1-5.1-1.7l6.9-19.4c.6-.3,4.8,1.4,5.3,2.3l1.5,10.3h0Z"/>
  <path class="st3" d="M224.9,97.2c8.2-1.1,14.2,8.6,9,15.2-5.4,6.7-16.1,8-19.1-1.5-2.1-6.4,4.1-12.9,10.2-13.7h0ZM225.8,103.5c-2.8.4-7.4,4.4-4.6,7.2,2.3,2.3,7.2-.5,8.2-3.1s-.9-4.5-3.6-4.2h0Z"/>
  <path class="st3" d="M102.6,72.3c.2,0,.4,0,.5.2l8.1,11.2c4.3,5.9-3.1,13.1-9.2,12.5-2.6-.3-3.9-1.8-5.4-3.7-2.5-3.2-4.8-6.9-7.3-10.2,0-.8,4.4-4,5.3-3.7l8.1,11.1c1.2,1,3.7-.7,3.2-2.2-2.2-3.5-5.3-6.8-7.4-10.3s-.9-1-.4-1.7,4-3.1,4.6-3.2h0Z"/>
  <path class="st3" d="M123.2,73.9c4.7,0,7.4,5.9,4,9.3s-7.6,4.1-9.5,4.7-1,.3-1.6-.2l-7.9-18.5c0-.3.9-.6,1.2-.7,2-1,6.7-3.1,8.8-3.3,3.7-.3,6.1,2.6,5.7,6.1s-.6,1.7-.8,2.6h.1ZM116.8,74.8c3.7-.6,2.5-5.5-.9-3.9s-.4,0-.5.3c0,.4,1.3,2.9,1.4,3.6ZM121.6,80.8c.8-.8.5-2.5-.4-3.1s-1.9,0-2.8.2c0,.5,1.2,3.6,1.4,3.7.3.2,1.6-.6,1.9-.8h0Z"/>
  <path class="st3" d="M170.3,80.7h-3.8c-.4,0-2.2-.5-2.4-.9-.4-.7-.5-4.3-.9-4.4-1.5,0-3.1-.5-4.5-.3-.3.2-1,3.1-1.4,3.7-.7,1-5.4.3-5.6-.4l7.6-19.7c1.1,0,7.6.5,8,1l3,21h0ZM162.3,65.3c-.4,0-.3,0-.4.2-.3.5-2.3,5.6-2.1,5.8l3.1.2-.6-6.2Z"/>
  <path class="st3" d="M143.2,58.6c1.3,0,4.7,0,5.5,1s.1,2.5-.2,3.5c-1,2.5-1.3,1.2-3.2,1.1-5.8-.2-5,11.9,1.8,9.8s1.5-1,2.2-.7,2.1,3.2,2.1,3.9c0,2.2-5.2,3.2-6.9,3.2-11.3.2-13.1-20.4-1.3-21.7h0Z"/>
  <path class="st3" d="M84.6,110.3c.9-.9,1.5-2.6,1.4-3.8,4.1,0,6.5.2,4.8,4.9-5,13.4-24.4,3.1-20.3-7.8.7-1.8,3.7-6.1,5.9-5s2.7,3.3,2.2,4.1-1.1.6-1.5,1.1c-3.8,4.3,4.2,9.9,7.5,6.6h0Z"/>
  <path class="st3" d="M199.2,88.5c.6,1-1.5,4.6-2.8,4.4l-8.5-5.1c-1.1-1,1.5-4.8,2.5-4.6s1.8,1.2,1.9,1.1l5.4-9.2c0,0-1.6-.8-1.7-1-.9-1,1.1-4.1,2.2-4.6,1.2.4,9.2,5,9.2,5.6.1.9-1.5,3.7-2.4,4.1s-1.8-1.7-2.7-.4c-1.8,2.6-3.2,5.9-5.1,8.5,0,.3,1.8.9,1.9,1.1h.1Z"/>
  <path class="st3" d="M82.1,89.2c.7,0,9.6,8.8,10.9,9.8.2.2.4,0,.6,0,.7-.3,2.4-3.3,3.4-3.2s4.2,3,3.7,4.1l-6.5,6.9c-.6.5-1.3.3-1.9,0l-14-13.1c0-.2,0-.4,0-.6.2-.7,3.2-3.8,3.8-3.9Z"/>
  <path class="st3" d="M86.2,213.7h.6c1,1.1,3.1,2.3,3.4,3.8.7,3.4-3.4,7.1-6.5,5-.2-.2-2.5-2.2-2.6-2.3s-.2-.3-.2-.6l5.2-5.9h0ZM86.6,215.6l-3.6,4c1.4,2.3,3.6,2.7,5.2.3s.2-3.2-1.6-4.3Z"/>
  <path class="st3" d="M95.9,222.7c3.3-.6,5.7,2.5,4.6,5.5-.9,2.6-3.8,3.8-6.2,2.5s-2-7.4,1.7-8h0ZM96.1,224.2c-3.7.8-2.5,7.5,1.6,5.1,2.5-1.5,1.7-5.7-1.6-5.1Z"/>
  <path class="st3" d="M124.7,235.7c.4.7-.7,3.2-.6,3.5l3.7,1c0-.4.7-3,.8-3.1.2-.2,1.2,0,1.3.3s-1.3,5.9-1.6,6.7-.4,1.5-1.3,1.1c-1.1-.4.7-3.3.2-3.7s-2.6-.5-3.3-.9c-.4,0-.6,2.5-1,3s-1.2.3-1.3-.2c-.3-1,1.8-6.1,1.9-7.5.2-.4,1.2-.3,1.3-.1h0Z"/>
  <path class="st3" d="M149.3,241.1v1.9h3c.1,0,.5.5.5.7.1,1.3-2.8.9-3.5.7v2.3h3.6c.4,0,.4,1.4,0,1.4h-4.9l-.3-.3v-7.8c0-.1.5-.4.7-.5.6-.1,4.2,0,4.6.2.6.4.1,1.3-.2,1.3h-3.6,0Z"/>
  <path class="st3" d="M110,232.3s-.3-.7-.6-1c-1.1-1.2-3.4-1.2-2.6.5s4.2,2.2,2.3,4.9-6.6-.3-5.9-2.4,1.8,1,2,1.2c.9.8,3.4,1.1,2.5-.8s-3.6-1.8-2.3-4.5c1.4-2.9,6-.2,5.9,1.4s-.8,1-1.3.7h0Z"/>
  <path class="st3" d="M213.2,224.6c-1.1-1-3.2,1.5-5.1.7-1.7-.8-1.7-3-.4-4.2s3.1-1.9,3.7-1c.8,1.2-.9,1.1-1.4,1.3s-2.2,1.2-1.6,2.1,2.5-.4,3.5-.6c3.6-.8,4,3.9.7,5.4s-2.5.8-2.8-.1,1.1-.9,1.8-1.1,2.5-1.6,1.6-2.4h0Z"/>
  <path class="st3" d="M135.8,238.4c2.1-.7.7,3.7.7,4.7s-.1,1.6.6,2.1c1.1,1,2.7.3,3.1-1s.4-4.5.7-4.9,1-.3,1.2,0c.3.5-.4,5.1-.6,5.8-1.1,3.1-6.1,2.7-6.5-.6-.1-1.2.3-4.5.6-5.6s0-.4.3-.5h-.1Z"/>
  <path class="st3" d="M200.6,233.5c-.2.2.9,4-1.1,2l-1-7.5c.1-1.6,1.1-1.1,2-.4s5.7,4.2,5.7,4.6-.4.9-.8.8c-.7,0-1.2-1.1-1.9-.9-.3.4-2.7,1.4-2.8,1.5h0ZM200.4,231.9c.1.1,1.9-.8,1.9-1.1-.2-.3-2.2-1.8-2.3-1.7l.4,2.7h0Z"/>
  <path class="st3" d="M188.5,233.7c-1,.5-3.4,1.7-2.5-.5,1.1-.3,4.8-2.4,5.7-2.2,1.8.5-1.1,1.9-1.6,2.2.8,2,1.9,4,2.4,6.1-.2.8-1.2.8-1.6.2l-2.4-5.8h0Z"/>
  <path class="st3" d="M160.8,246.1c.4.3,2.9-.3,3.5-.2s.6,1.3-.4,1.5-3,.4-3.9.4-.9-1.4-1-2.2c-.2-1.2-.4-2.9-.4-4.1s-.2-3.3,1.5-1.7l.6,6.3h0Z"/>
  <path class="st3" d="M171.8,244.6c.1.1,3-.8,3.8-.6s.4.7.2,1c-.3.5-4.6,1.6-5.2.9-.2-1.2-1.9-7-1.4-7.7s1.2-.4,1.4.1l1.2,6.3Z"/>
  <path class="st3" d="M179.9,235.3c.3,0,.7-.1.9.2s.8,2.3.9,2.8c.3.8,1.5,4.3,1.2,4.8s-.9.5-1.3.1-.6-1.8-.8-2.3c-.3-.9-1.5-4.1-1.5-4.7s.2-.7.5-.8h.1Z"/>
  <path class="st0" d="M152.7,212.9s.7.4.8.4c.5.3,2.3,1.8,2.7,2.3s0,.5.1.7c1,1.5,1.6,2.4,2.2,4,.5,1.3.5,2,.8,3.3s.3.1.4.3v1.9c0,.3-.4.3-.4.4v1c0,.4-.8.8-.9.8h-1.3c-.4,0-.1.3-.3.4-.7.2-.6-.4-.8-.4-.9-.2-.7,0-1.6-.4s-.5,0-.6,0,0-.5,0-.7c-.4-.9-2.1-1-2.9-1.2s-1.4-.7-1.5-.8h-2.7c-.4,0-.2.4-.6.4h-4.3c-.3,0-.7-.7-.8-.8-.3-.5-.3-1.2-.5-1.8s-.3-.1-.4-.3c-.2-.7.4-.6.4-.8.3-1.2.6-1.4.8-2s0-1.5,0-1.8,1.8-1.5,1.8-1.7c.1-.2,0-.7,0-.7h.7c.2,0,1-1.3,1.3-1.4s.5,0,.7-.1.4-.7.6-.7h.9c.3,0,.1-.3.3-.4h5.1Z"/>
  <path class="st0" d="M160.1,199.7c.3.4,1.8,1.2,1.9,1.5s0,.9,0,1.4.7.3.4.9l-.4-.4c0,.8.1,1.7,0,2.4s-.4.3-.4.4c-.3,1.6-.1.6-.7,1.5s0,.5-.1.7c-.8,1-1.8,1.6-3,2.1s0,.3-.2.3h-1.7c-.3,0-.1-.3-.2-.3-.2,0-.5,0-.7-.1-.7-.4-1-1.5-1.3-2.2s-.3,0-.3-.2v-2.8c0-.3.3-.1.4-.3.5-1.5,1.4-3.5,2.8-4.5s.4,0,.6,0,.1-.3.4-.4,2,0,2.4,0h.1Z"/>
  <path class="st0" d="M149.6,197.4s0,.2.2.3.4,0,.6,0c.8.5,1.3,1.7,1.7,2.6s.2,1.1.3,2.1.4.3.4.4c.2.9-.3.8-.4,1-.1.5.1,1.3,0,1.9s-.3,0-.4.3,0,.5,0,.6-.4,0-.5,0c-.7.6-.8.4-1.4.8s-.4.7-.6.7h-1.7c-.4,0-.4-.6-.6-.7s-.5,0-.6-.1-1-1.6-1.1-1.7c-.2-.6,0-1.1-.2-1.6s-.3-.1-.4-.3v-2.1c0-.3.3-.1.4-.3.2-.7,0-1.5.5-2.1s.7-.4.7-.6v-1h.6c.2,0,0-.4.4-.4h2v.2Z"/>
  <path class="st0" d="M142.2,205.2l1.2,1.2c.1.1,0,.5.1.7s.6.4.7.5c.1.4,0,.7,0,1s.3.1.4.3c.1.5,0,3.7,0,4.3s-.3.2-.4.4,0,.4,0,.6-1.1,1.1-1.2,1.2c-.4.1-.7,0-1,0s0,.5-.4.4,0-.4-.2-.4h-.9c-.3,0-.8-.4-.9-.4s-1.9-1.8-1.9-1.9c-.1-.4,0-.7,0-1s-.4-.1-.4-.3v-1.3c0-.4-.3-.1-.4-.3v-1.5c0-.3.8-1.1.8-1.2v-1c0-.4,1.1-1.1,1.2-1.2.2-.1.4,0,.6,0s.2-.3.3-.4c.6-.1,2,.2,2.5.5v-.2Z"/>
  <path class="st0" d="M164.8,209.4s0,.2.1.3c.4.1.7,0,1,.5s0,.4,0,.6.3.1.4.4v3.5c0,.4-.3.1-.4.3v.9c0,.3-.6.4-.7.6s0,.5-.1.6c-.2.3-1.8,1.1-2.2,1.3s0,.3-.2.3h-3.1c-.5,0-.2-.3-.4-.4s-.6,0-.6,0v-.6c0-.2-.7-1.4-.8-1.5v-1.9c0-.3.7-1.6.9-1.8.3-.5,1.8-2.4,2.3-2.7s.4,0,.7-.1,0-.3.2-.3h2.9Z"/>
  <path class="st0" d="M144.5,184.2c.3.1,1,.6,1.3.6,1.8.7,3.4,1.8,4.3,3.5s.3,0,.3.2c.1.4-.3.2-.4.4s0,1,0,1h-1c-.2,0,0,.4-.4.4-.8.1-2-.2-2.7,0s-.1.3-.3.4h-1c-.4,0-1,1.3-1.3,1.4s-.5,0-.7.1-.4.7-.6.7c-.6.1-1.8.1-2.1-.4s0-.4-.1-.6-.3,0-.3-.2v-3.1c0-.5.4-.3.4-.4v-.9c0-.3.3-.1.3-.2.2-.5.1-1,.8-1.1.1-.3-.3-.1-.4-.3-.2-.7.3-.4.6-.6s.3-.5.4-.6c.6-.4,2.2-.7,2.8-.4h0Z"/>
  <path class="st0" d="M143.8,175.2v1c0,.2.7,1.2.8,1.6s.3,0,.3.2v1.7c0,.3-.3.1-.3.2,0,.2,0,.5-.1.7-.5.7-1.3,1-2.1.8s-1.3-1.2-1.3-1.3v-.9c0-.3-.4,0-.4-.4v-1.9c0-.3.7-.5.8-.7v-1h2.3Z"/>
  <path class="st0" d="M137.9,177.9s0,.3.2.3c.5.1.9-.2,1.4.4,0,1.1,1.1,3.4,0,4.2s-.4,0-.6,0c-.2.1-.3.6-.9.4l.4-.4c-1.1.3-1.4-.4-2-1.1s-.4,0-.6-.3c-.7-.7-.6-2.1-.4-3.1.7-.5,1.8-.9,2.6-.5h0Z"/>
  <path class="st0" d="M148.4,178.7s.4.6.5.7c.2.1.6,0,.7,0,.2.2.5,2.6.4,3s-.5,0-.6.1c.2.4-1,2-1.3,1.9-.5,0-1.3-.5-1.6-.9s0-.4-.1-.7c-.2-.5-.2-.3-.3-1.1s-.7-.3-.4-.9l.4.4v-1.4c0-.4,1.1-1.2,1.2-1.2.3-.1.7-.1,1.1,0h0Z"/>
  <path class="st0" d="M137.5,184.6l.8.8v.9c0,.3.3.1.4.3v1.4c0,.3-.9.8-1,.8-1.2.2-1.2-.4-1.4-.4h-1v-.8c0-.1-.7,0-.8,0s0-.4,0-.6-.4-.8-.4-.9-.6,0-.3-.4.3,0,.4-.1,0-1,0-1h.6c.2,0,.1-.3.3-.4.4-.1,2.1.2,2.5.5h-.1Z"/>
  <path class="st4" d="M225.8,103.5c2.6-.4,4.6,1.5,3.6,4.2-1,2.5-5.9,5.4-8.2,3.1s1.8-6.8,4.6-7.2h0Z"/>
  <path class="st4" d="M121.6,80.8c-.2.2-1.6,1-1.9.8s-1.3-3.2-1.4-3.7c.9-.2,1.9-.8,2.8-.2s1.2,2.3.4,3.1h0Z"/>
  <path class="st4" d="M116.8,74.8c0-.7-1.5-3.2-1.4-3.6s.3-.2.5-.3c3.4-1.6,4.6,3.3.9,3.9Z"/>
  <path class="st4" d="M162.3,65.3l.6,6.2-3.1-.2c-.2-.2,1.8-5.3,2.1-5.8s0-.3.4-.2Z"/>
  <path class="st4" d="M86.6,215.6c1.8,1.2,3,2.2,1.6,4.3s-3.8,2-5.2-.3l3.6-4Z"/>
  <path class="st4" d="M96.1,224.2c3.3-.7,4.1,3.5,1.6,5.1-4.1,2.4-5.2-4.3-1.6-5.1Z"/>
  <path class="st4" d="M200.4,231.9l-.4-2.7c.2-.2,2.1,1.4,2.3,1.7,0,.2-1.8,1.2-1.9,1.1h0Z"/>
  <path class="st1" d="M208.3,44.6c64.8,33.1,86.4,116.5,44.8,177.1-42,61.1-128.6,70.8-183.1,20.1-46.6-43.5-51.7-115.8-11.5-165.5,36-44.3,98.6-57.9,149.8-31.7h0ZM219.2,60.1c-44.5-31.8-105.3-27.6-144.9,10-47.5,45.1-47.4,121.2.6,166.1,54.1,50.5,140.9,36.8,177.3-27.1,28.8-50.7,14.2-115.4-33-149h0Z"/>
  <path class="st4" d="M219.2,60.1c47.1,33.6,61.8,98.3,33,149-36.3,63.9-123.2,77.6-177.3,27.1-47.9-44.8-48.1-121-.6-166.1,39.6-37.6,100.3-41.8,144.9-10h0ZM228.7,78.6c-46.5-47.2-123.6-40.9-162,12.8-27,37.8-26,89.3,2.4,126,34.3,44.4,97.2,54.8,143.8,22.9,54.4-37.2,62.2-114.7,15.8-161.8h0Z"/>
  <path class="st3" d="M228.7,78.6c46.5,47.2,38.7,124.6-15.8,161.8-46.7,31.9-109.5,21.5-143.8-22.9-28.4-36.7-29.4-88.3-2.4-126,38.4-53.8,115.5-60,162-12.8h0ZM224.2,76.5c-45.1-41.8-116-36-153.6,12.4-38.1,49-25,120.1,27.3,152.7,45.7,28.4,105.3,17.4,137.9-25,32.9-42.7,27.8-103.5-11.6-140.1h0Z"/>
  <path class="st4" d="M224.2,76.5c39.4,36.6,44.5,97.4,11.6,140.1-32.6,42.4-92.2,53.4-137.9,25-52.3-32.6-65.4-103.7-27.3-152.7,37.6-48.4,108.5-54.2,153.6-12.4h0ZM143.2,58.6c-11.8,1.4-10,21.9,1.3,21.7s6.9-1.1,6.9-3.2-1.5-3.6-2.1-3.9-1.4.5-2.2.7c-6.8,2.1-7.6-10-1.8-9.8,1.9,0,2.2,1.4,3.2-1.1s.9-2.5.2-3.5-4.2-1.2-5.5-1h0ZM170.3,80.7l-3-21c-.3-.5-6.9-1-8-1l-7.6,19.7c.2.7,4.9,1.4,5.6.4s1.1-3.5,1.4-3.7c1.5-.2,3,.4,4.5.3.4,0,.5,3.7.9,4.4s2,.9,2.4.9h3.8ZM184.7,74.1l-1.5-10.3c-.5-.9-4.7-2.6-5.3-2.3l-6.9,19.4c.3.7,4.5,2.2,5.1,1.7s2.5-7.5,3-8.5c.4.2.2.6.3.9.6,3.1.8,6.3,1.5,9.4.3.7,4.9,2.3,5.5,1.9l6.6-19.1c0-.5-1.2-.9-1.7-1.1s-3.2-1.1-3.6-.8l-3.1,8.7h0ZM123.2,73.9c0-.9.7-1.6.8-2.6.3-3.6-2.1-6.4-5.7-6.1s-6.8,2.3-8.8,3.3-1.1.5-1.2.7l7.9,18.5c.5.6.9.4,1.6.2,1.9-.5,8.2-3.3,9.5-4.7,3.4-3.5.7-9.4-4-9.3h-.1ZM199.2,88.5c-.1-.2-1.9-.8-1.9-1.1,1.9-2.6,3.3-5.9,5.1-8.5.9-1.3,1.7.8,2.7.4s2.5-3.2,2.4-4.1-8.1-5.1-9.2-5.6c-1.1.4-3.2,3.5-2.2,4.6s1.8.8,1.7,1l-5.4,9.2c-.1,0-1.6-1.1-1.9-1.1-1-.2-3.6,3.6-2.5,4.6l8.5,5.1c1.3.2,3.3-3.5,2.8-4.4h-.1ZM102.6,72.3c-.6,0-4.3,2.6-4.6,3.2s0,1.1.4,1.7c2.2,3.5,5.2,6.8,7.4,10.3.5,1.5-2,3.2-3.2,2.2l-8.1-11.1c-.9-.3-5.4,2.9-5.3,3.7,2.5,3.3,4.7,7,7.3,10.2,1.5,1.9,2.8,3.4,5.4,3.7,6.1.6,13.5-6.6,9.2-12.5l-8.1-11.2c0-.2-.3-.2-.5-.2h0ZM213.6,92.7l2.5-10.2c0-1-3.4-4.3-4.2-4.1l-13.7,15.2c.5.8,3.3,3.8,4.1,3.6l6.3-6.8-2.4,10.2c0,.8,3.3,3.9,4.2,3.8l13.7-14.9c.1-.6-3.2-3.8-4.1-3.5s-5.1,5.9-6.4,6.8h0ZM218.3,187.4c9.2-20.7,7.5-45.4-4-64.9-23.3-39.1-77.1-46.9-110.4-15.4-21.6,20.4-28.3,52.3-16.7,79.9l3.3,7.1c-1.3.2-5.4.4-6.1.8s-.3.7-.8.6c-1.2-.3-2.6-.6-3.8-.9s-1.6-1-3.6-.8c-.2,0-.6-.1-.5.3.4.9,3.7,2.6,4.7,3.1,4.3,1.8,8.3,1.5,12.8.7,0,.5,0,.6.3,1,2.5,4.1,7.1,9.3,10.7,12.5,32.2,29.6,82.2,24,107.2-11.5.6-.8,1.2-1.7,1.6-2.6,4,.1,8.1.1,12.2.2,3.1,0,8.8,1.1,11.6.1s-.3-1.5-.4-1.8c-.1-.4,0-.9-.1-1.4-.8-3.1-4.6-5.3-7.6-5.4s-3.3.4-4.7.4-1-.3-1.5-.4-2.3.2-2.9,0,0-1.2-1.3-1.4v-.2ZM82.1,89.2c-.6,0-3.5,3.2-3.8,3.9s0,.4,0,.6l14,13.1c.6.4,1.3.5,1.9,0l6.5-6.9c.5-1.1-2.7-4-3.7-4.1s-2.7,2.9-3.4,3.2-.4.2-.6,0c-1.3-1-10.2-9.9-10.9-9.8ZM224.9,97.2c-6.1.8-12.2,7.3-10.2,13.7,3,9.5,13.8,8.2,19.1,1.5,5.3-6.6-.8-16.3-9-15.2h0ZM84.6,110.3c-3.3,3.2-11.3-2.3-7.5-6.6.4-.5,1.4-.9,1.5-1.1.5-.8-1.4-3.7-2.2-4.1-2.2-1.2-5.2,3.2-5.9,5-4.1,10.9,15.3,21.3,20.3,7.8,1.7-4.6-.6-5-4.8-4.9,0,1.3-.5,2.9-1.4,3.8h0ZM86.2,213.7l-5.2,5.9c0,.2,0,.4.2.6s2.3,2.1,2.6,2.3c3.1,2.1,7.2-1.6,6.5-5s-2.4-2.7-3.4-3.8c-.2-.1-.4-.1-.6,0h0ZM213.2,224.6c.9.8-.8,2.2-1.6,2.4s-2.1-.2-1.8,1.1,2.2.4,2.8.1c3.3-1.5,2.9-6.1-.7-5.4s-2.8,1.7-3.5.6.9-1.9,1.6-2.1,2.3,0,1.4-1.3c-.6-.9-3.1.3-3.7,1-1.2,1.3-1.3,3.4.4,4.2,1.8.8,4-1.7,5.1-.7h0ZM95.9,222.7c-3.7.6-5.2,6.1-1.7,8s5.3.1,6.2-2.5c1.1-3-1.3-6.1-4.6-5.5h0ZM200.6,233.5c.1-.1,2.5-1.1,2.8-1.5.7-.2,1.2.9,1.9.9s1-.4.8-.8-5.1-4.1-5.7-4.6-1.9-1.2-2,.4l1,7.5c2.1,2,1-1.8,1.1-2h0ZM110,232.3c.5.3,1.2,0,1.3-.7,0-1.6-4.5-4.4-5.9-1.4-1.3,2.7,1.7,3.2,2.3,4.5s-1.6,1.6-2.5.8-1.5-2.6-2-1.2c-.7,2.1,4.1,4.9,5.9,2.4s-1.7-3.5-2.3-4.9,1.5-1.7,2.6-.5.6,1,.6,1h0ZM188.5,233.7l2.4,5.8c.4.6,1.4.6,1.6-.2-.6-2.1-1.7-4.1-2.4-6.1.5-.3,3.4-1.7,1.6-2.2s-4.6,1.9-5.7,2.2c-.8,2.1,1.5,1,2.5.5h0ZM179.9,235.3c-.4.1-.5.4-.5.8,0,.6,1.2,3.9,1.5,4.7s.6,2,.8,2.3c.4.4,1,.4,1.3-.1s-1-4-1.2-4.8-.8-2.6-.9-2.8-.6-.2-.9-.2h-.1ZM124.7,235.7c-.2-.2-1.1-.3-1.3.1,0,1.4-2.2,6.5-1.9,7.5s.9.7,1.3.2.7-2.9,1-3c.7.4,2.7.5,3.3.9s-1.2,3.3-.2,3.7c1,.3,1.1-.5,1.3-1.1s1.8-6.2,1.6-6.7-1.1-.4-1.3-.3-.8,2.6-.8,3.1l-3.7-1c-.2-.3,1-2.8.6-3.5h0ZM171.8,244.6l-1.2-6.3c-.2-.6-1.1-.6-1.4-.1-.4.7,1.3,6.5,1.4,7.7.6.7,4.9-.4,5.2-.9s0-.9-.2-1c-.7-.2-3.6.7-3.8.6ZM135.8,238.4c-.3,0-.2.3-.3.5-.3,1.1-.7,4.5-.6,5.6.4,3.3,5.4,3.8,6.5.6s1-5.3.6-5.8-1-.3-1.2,0c-.3.4-.4,4-.7,4.9-.4,1.4-1.9,2-3.1,1s-.6-1.3-.6-2.1,1.5-5.5-.7-4.7h.1ZM160.8,246.1l-.6-6.3c-1.7-1.6-1.6.4-1.5,1.7s.3,2.9.4,4.1c.1.8,0,2.2,1,2.2s3-.2,3.9-.4.8-1.4.4-1.5c-.7-.2-3.2.5-3.5.2h0ZM149.3,241.1h3.6c.3,0,.8-.9.2-1.3s-4-.3-4.6-.2-.7.3-.7.5v7.8l.3.3h4.9c.4,0,.4-1.4,0-1.4h-3.6v-2.3c.8.2,3.6.6,3.5-.7s-.4-.7-.5-.7h-3v-1.9h0Z"/>
  <path class="st1" d="M90.5,194l-3.3-7.1c-11.6-27.6-5-59.4,16.7-79.9,33.3-31.4,87.1-23.7,110.4,15.4,11.6,19.4,13.2,44.1,4,64.9-1.7-.3-4,.7-5.6,1.2,0-.7.3-1.4.4-2,.7-8.9-4.7-22.1-9.6-29.5-2.2-3.3-5.3-6.8-7.9-9.8-1.7-2.1-3.7-3.5-5.4-5.5-3.2-3.6-7-8.3-8.6-12.8s-.2-1.5-.5-2.2c-2.3-6.7-6.3-12.6-8.9-19.1-.3-.7-.6-3.7-.9-3.9s-.6,0-.8,0c-.4.6-.9,3.5-1.1,4.4-.8-.3-1.4-3.6-2.2-3.5s-1.1,4.2-1,5.1c.3,1.8,1.4,2.2-.9,3.3-1.1.5-2.1.7-3.3,1.4s-1.9,1.3-2.8,2.6-7.1,2.2-8.7,2.7-1.8.7-1.8,1.5c-.1,1.9,3.4,5,5.4,4.7-.6,1.3-1.7,2.7-2.2,3.9s1.4.3,1.7.3.8.4,1.2.5c2.5.5,3-.4,4.8-.7,1-.2,2,.3,3,.2v3.8c.2,2.3-.5,3.3-.6,5.3s.3,1.7.2,2.3-1.2,2-1.5,2.8c-.4,1.2-.2,4,.1,5.3s.7,1.2.9,1.9c.3,1.1,0,2.3.3,3.4s.5.9.6,1.5c-1-.6-1.8,0-2.8-.2s-2.3-.7-3.4-.9c-4.7-.9-7-.8-11.4,1.1-1.7.7-3,2.6-4.5,3.5s-6.2,1.6-7.9,1.1-2.3-1-2.9-1.7-1-1.4-1-1.5c0-.5,1.2.1,1.4-.2-1.4-1.2-3.7-3.9-3.3-5.8s.7-.7.8-1.4c0-1.1-.8-.8-.9-1.2-.2-.6.2-2.1.5-2.8s.5-.6.6-.8c.3-.5.6-2.7,1.5-1.7-.2.5-.3,1.1-.5,1.6s-.8.4-.4.6.6,0,.7-.2l1.8-1.4c-.3.9,0,1.9.3,2.7,1.2-2.2,3.8-3.6,3.8-6.2l.4,1.4c.4.4,1.3-1.7,1.4-2,.4-1.4.5-3,.6-4.4.3,0,.8,1.6,1.2,1.2.5-2.9-.8-4.1-2.1-6.3s-1.5-4.1-3.5-2.7c-.9.6-1.3,1.5-2.6,2.3-1.7,1-3.5,1.8-5.4,1.3,0-.9,1.2-1.2,1.9-1.5s.5.1.4-.4h-3c-.5,0-.9.4-1.3.8l1.4-2.1c-1.1.1-2.4.6-3,1.6s-.6,1.7-.9,1.8c-.4.2-.9-.2-1.5-.3-2.6-.3-3.3,1.9-5.2,3.1-1.5,2.3,2.1,3.7,2.1,5.2s-1,3.2-1.3,4.1-.3,2.7-.5,2.8-1.4-.4-1.8.6.4,1.1.6,1.3-1.6,2.4-1.7,3h.6c-.8,1-1.2,2.6-1.9,3.6s-3.1,2.7-3.9,3.9-1.1,1.6-2,2.8-2.3,3.2-3.5,4.7v.3c.2-.2,1-.7.8,0s-1.5,1.8-1.8,2.3c-.8,1.2-2,2.8-2.5,4.1-1,2.5-3.4,10.4-2.9,12.8s.4.1.5.5c.2.6,0,1.3.2,2s1,2.2.7,2.9c-.7,1.7-3.5,2.1-5.1,2.4h.1Z"/>
  <path class="st2" d="M90.5,194c1.6-.3,4.4-.7,5.1-2.4s-.6-2-.7-2.9,0-1.4-.2-2-.5-.3-.5-.5c-.5-2.4,1.9-10.3,2.9-12.8s1.7-2.9,2.5-4.1,1.7-2,1.8-2.3c.2-.6-.6-.1-.8,0v-.3c1.2-1.5,2.3-3.1,3.5-4.7s1.2-1.4,2-2.8,3-2.6,3.9-3.9,1-2.6,1.9-3.6h-.6c0-.5,1.9-2.7,1.7-3s-1.1,0-.6-1.3,1.7-.6,1.8-.6.3-2.3.5-2.8c.2-1,1.3-3.4,1.3-4.1,0-1.5-3.7-2.9-2.1-5.2,1.9-1.2,2.6-3.4,5.2-3.1s1.1.5,1.5.3.6-1.4.9-1.8c.6-.9,1.9-1.5,3-1.6l-1.4,2.1c.3-.4.7-.8,1.3-.8h3c0,.6,0,.3-.4.4-.7.3-1.8.6-1.9,1.5,1.9.5,3.8-.3,5.4-1.3,1.2-.7,1.7-1.7,2.6-2.3,2-1.4,2.7,1.5,3.5,2.7,1.3,2.2,2.7,3.4,2.1,6.3-.3.4-.9-1.2-1.2-1.2,0,1.4-.1,3-.6,4.4s-1,2.5-1.4,2l-.4-1.4c0,2.7-2.6,4.1-3.8,6.2-.4-.8-.6-1.8-.3-2.7l-1.8,1.4c0,.1-.6.3-.7.2-.3-.3.4-.4.4-.6.2-.5.3-1.1.5-1.6-1-1-1.3,1.2-1.5,1.7s-.6.7-.6.8c-.3.6-.7,2.2-.5,2.8s1,0,.9,1.2-.7.8-.8,1.4c-.4,2,1.9,4.6,3.3,5.8-.2.3-1.4-.4-1.4.2s.8,1.3,1,1.5c.6.6,2.1,1.5,2.9,1.7,1.7.4,6.4-.2,7.9-1.1s2.8-2.8,4.5-3.5c4.4-1.9,6.7-2,11.4-1.1,1.1.2,2.5.8,3.4.9s1.8-.4,2.8.2c0-.6-.5-.9-.6-1.5-.2-1.1,0-2.3-.3-3.4-.2-.6-.7-1-.9-1.9-.3-1.3-.6-4.1-.1-5.3s1.4-2.3,1.5-2.8-.2-1.5-.2-2.3c.1-2,.8-3,.6-5.3s0-2.5,0-3.8c-1,0-2-.3-3-.2-1.8.3-2.3,1.3-4.8.7-.4,0-.8-.5-1.2-.5s-2.3,1.1-1.7-.3,1.6-2.7,2.2-3.9c-2,.2-5.5-2.8-5.4-4.7s1.2-1.3,1.8-1.5c1.6-.5,8-1.6,8.7-2.7s1.3-1.8,2.8-2.6,2.1-.9,3.3-1.4c2.3-1.1,1.2-1.5.9-3.3s.1-4.9,1-5.1,1.4,3.1,2.2,3.5c.2-.9.7-3.8,1.1-4.4s.6-.2.8,0c.3.2.6,3.2.9,3.9,2.6,6.6,6.5,12.5,8.9,19.1.3.8.3,1.6.5,2.2,1.5,4.6,5.4,9.2,8.6,12.8s3.7,3.4,5.4,5.5c2.6,3.1,5.7,6.5,7.9,9.8,4.8,7.4,10.3,20.6,9.6,29.5,0,.7-.4,1.3-.4,2,1.7-.5,3.9-1.5,5.6-1.2,1.3.2,1.1,1.3,1.3,1.4.6.2,2.1-.1,2.9,0s.9.4,1.5.4c1.4,0,3.2-.5,4.7-.4,3,0,6.8,2.4,7.6,5.4.1.5,0,1.1.1,1.4s2.3,1.1.4,1.8c-2.8.9-8.5,0-11.6-.1-4.1,0-8.1,0-12.2-.2-5.8-.2-14.9-1.2-20.3-.3-4.2.7-9.7.5-14,.1s-2.8-.2-2.1-1.4,2.4-1.9,2.7-2c.6-.2,2.5-.5,3.3-.6s.9.2,1.5.1,1.6-1,2.5-.7c.3-1.1-.7-1.9-.8-2.8s.2-1.3,0-1.6c-.2-.5-1.9-2.1-2.4-2.9s-2-3.9-2.2-5c-.2-1,.1-2-.4-3-1-.7-2.2-2.1-3.1-2.7s-1.5-.5-2-1.2c-.4,0-.2,0-.3.3-.3.8-.2,2.4-.5,3.4s-1,2.7-1.2,3.8c-.5,2.1-.4,4.8-.8,7-.3,1.5-1.5,1.2-2.2,1.9s-1.2,1.9-1.7,2.5-2.7,1.7-3.1,1.9-5,.3-5.4,0c-.9-.5,0-2,.5-2.4,1-.8,2.6-.3,3.2-.9s1.6-2.7,1.9-3.3c2-4.4,1.7-9.2,2-14,0-1.4.9-5.4,0-6.5s-1.8-.5-2.4-.7c-2-.6-3.6-1.4-5.6-1.9-.7-.2-4.1-1.8-4.5-2.2s0-.5-.2-.6-2.1-.3-1.6-.6.5,0,.3-.4-.6-.4-.7-.4c-1.2-.1-1.5.4-2.4.6s-2.9.4-4,.1-.6-.4-.9-.4c-1.4-.3-1.4,1.2-2,2-.8,1.4-2.7,1.8-4.1,2.2,0,.3.6,0,.4.5s-3.1,2.2-3.8,2.4-1.6.3-1.7.4c-.4.4.5.3.4.7-.4.8-4.1,2.3-5,2.5s-1.4,0-1.8.4c-.5.7-1.6,5.3-1.9,5.6s-.5-.2-.6-.2c0,0-.5,1.9-.7,2.3s-.6.9-.7,1.3c0,.7.3,1.7.2,2.5s-.4.3-.4.4c-.2.7.2,1.4.2,2.1v3.4l-.6-.2c.3,1.6,0,3.7.3,5.3s2,1.6,2.6,2.8c1.4,2.6-3.4,2.2-4.8,1.7-2.2-.8-1.5-2.2-2.3-3.5s-.6-.3-.8-.8-.7-2.6-.7-3v-3.2l-.6.4v-1.6c-.5.2-.5.4-.7-.2l-4.7,6c0,.2-.2.5,0,.6.4.6,5.5-.1,4.5,2.1-.3.7-1,.6-1.2.9-.6.7.2,1.2-1.6,1.8-2.4.8-7.9.3-10.6.3s-.6.2-.9.2c-1.4,0-3-1.9-3.7-1.9-1.9.4-3.8,1-5.7,1.4-4.5.8-8.5,1-12.8-.7-1-.4-4.4-2.2-4.7-3.1s.3-.3.5-.3c2-.2,2.1.4,3.6.8s2.6.6,3.8.9c.5.1.5-.5.8-.6.7-.3,4.8-.5,6.1-.8h0Z"/>
  <path class="st1" d="M93.3,197.7c1.9-.3,3.8-.9,5.7-1.4.7,0,2.3,1.9,3.7,1.9s.6-.2.9-.2c2.7,0,8.2.5,10.6-.3,1.8-.6,1.1-1.1,1.6-1.8s.9-.2,1.2-.9c1-2.2-4.1-1.5-4.5-2.1s0-.4,0-.6l4.7-6c.2.5.2.4.7.2v1.6l.6-.4v3.2c0,.3.5,2.6.7,3,.3.5.7.5.8.8.8,1.2,0,2.6,2.3,3.5s6.2.9,4.8-1.7-2.3-1.2-2.6-2.8,0-3.6-.3-5.3l.6.2v-3.4c0-1.1-.4-1.4-.2-2.1s.3,0,.4-.4c0-.9-.3-1.9-.2-2.5s.5-.8.7-1.3.6-2.3.7-2.3.5.3.6.2c.4-.3,1.4-4.8,1.9-5.6.4-.5,1.2-.2,1.8-.4,1-.3,4.7-1.7,5-2.5s-.8-.3-.4-.7,1.2-.2,1.7-.4c.7-.3,3.6-1.9,3.8-2.4s-.5-.1-.4-.5c1.5-.4,3.3-.8,4.1-2.2s.5-2.3,2-2,.6.4.9.4c1,.3,2.9.1,4-.1s1.2-.7,2.4-.6.6.4.7.4c.3.4-.2.3-.3.4-.5.4,1.5.5,1.6.6s0,.4.2.6c.4.4,3.8,2.1,4.5,2.2,2,.6,3.6,1.4,5.6,1.9.7.2,1.9,0,2.4.7.8,1.1,0,5.1,0,6.5-.2,4.8,0,9.5-2,14-.3.7-1.5,2.9-1.9,3.3s-2.2,0-3.2.9-1.4,1.9-.5,2.4,4.8.1,5.4,0,2.8-1.5,3.1-1.9c.6-.6,1.1-2,1.7-2.5s2-.4,2.2-1.9c.4-2.2.3-4.8.8-7s1-2.6,1.2-3.8.1-2.6.5-3.4,0-.3.3-.3c.5.6,1.4.8,2,1.2.9.7,2.1,2,3.1,2.7.5.9.2,2,.4,3,.2,1.1,1.5,4,2.2,5s2.2,2.4,2.4,2.9-.1,1.1,0,1.6c.1,1,1,1.8.8,2.8-.9-.3-1.8.6-2.5.7s-1-.2-1.5-.1c-.8,0-2.7.3-3.3.6s-2.6,1.9-2.7,2c-.7,1.2,1.2,1.3,2.1,1.4,4.4.3,9.9.5,14-.1,5.3-.9,14.5.2,20.3.3-.4.9-1,1.8-1.6,2.6-25,35.5-75,41.1-107.2,11.5-3.5-3.3-8.2-8.4-10.7-12.5s-.4-.5-.3-1v.2ZM143.8,175.2h-2.3v1c0,.2-.7.5-.8.7v1.9c0,.4.4.3.4.4v.9c0,.3,1.2,1.3,1.3,1.3.8.2,1.7-.1,2.1-.8s0-.4.1-.7.3,0,.3-.2v-1.7c0-.3-.3-.1-.3-.2-.2-.5-.8-1.5-.8-1.6v-1h0ZM137.9,177.9c-.8-.4-1.9,0-2.6.5-.2,1-.3,2.4.4,3.1s.5.2.6.3c.7.7.9,1.3,2,1.1l-.4.4c.7.2.7-.3.9-.4s.4,0,.6,0c1.1-.7,0-3,0-4.2-.5-.6-.8-.3-1.4-.4s-.1-.3-.2-.3h0ZM148.4,178.7c-.3-.1-.7-.1-1.1,0s-1.2,1.2-1.2,1.2v1.4l-.4-.4c-.3.6.4.8.4.9.1.8.1.6.3,1.1s0,.5.1.7c.3.4,1.1.8,1.6.9s1.5-1.6,1.3-1.9c0,0,.5,0,.6-.1,0-.4-.2-2.8-.4-3s-.5,0-.7,0-.4-.6-.5-.7h0ZM137.5,184.6c-.4-.2-2.1-.6-2.5-.5s-.1.3-.3.4-.6,0-.6,0v1c0,.2-.4.1-.4.1-.3.4.3.4.3.4,0,0,.4.8.4.9v.6h.8c.1,0,0,.7,0,.8s.8,0,1,0,.2.6,1.4.4,1-.8,1-.8c.1-.3.1-1.1,0-1.4s-.3-.1-.4-.3v-.9c0-.3-.8-.8-.8-.8h.1ZM144.5,184.2c-.7-.3-2.2,0-2.8.4s-.2.4-.4.6-.8,0-.6.6.5,0,.4.3c-.7.1-.7.6-.8,1.1s-.3,0-.3.2v.9c0,.3-.4,0-.4.4v3.1c0,.4.3.1.3.2,0,.2,0,.5.1.6.4.6,1.5.6,2.1.4s.4-.6.6-.7.5,0,.7-.1c.2-.2,1.2-1.4,1.3-1.4.4-.1.7,0,1,0s.1-.3.3-.4c.7-.2,1.9.1,2.7,0s.3-.4.4-.4h1v-1c0-.2.5,0,.4-.4s-.3,0-.3-.2c-.9-1.8-2.5-2.8-4.3-3.5s-1-.5-1.3-.6h0ZM149.6,197.4c-.3-.1-1.6-.1-2,0s-.2.3-.4.4-.6,0-.6,0v1c0,.2-.6.4-.7.6-.5.7-.3,1.4-.5,2.1s-.3.1-.4.3v2.1c0,.3.3.1.4.3.1.5,0,.9.2,1.6s1,1.7,1.1,1.7c.2.1.5,0,.6.1s.4.7.6.7h1.7c.4,0,.4-.6.6-.7.5-.3.7-.2,1.4-.8s.4,0,.5,0c.1-.1,0-.5,0-.6.1-.2.3-.2.4-.3.1-.5-.1-1.3,0-1.9s.6-.1.4-1-.4,0-.4-.4c-.1-1.1.1-1.1-.3-2.1s-.8-2.1-1.7-2.6-.4,0-.6,0-.2-.3-.2-.3v-.2ZM160.1,199.7c-.3-.1-2-.1-2.4,0s-.2.3-.4.4-.4,0-.6,0c-1.4.9-2.3,2.9-2.8,4.5s-.3.2-.4.3v2.8c0,.3.3.1.3.2.3.7.6,1.8,1.3,2.2s.4,0,.7.1,0,.3.2.3h1.7c.3,0,.1-.3.2-.3,1.1-.5,2.2-1,3-2.1s0-.5.1-.7c.6-.9.4.1.7-1.5s.4,0,.4-.4c0-.7-.1-1.7,0-2.4l.4.4c.3-.6-.4-.8-.4-.9,0-.4.1-.9,0-1.4s-1.7-1.2-1.9-1.5h-.1ZM142.2,205.2c-.5-.3-2-.6-2.5-.5s-.1.3-.3.4-.4,0-.6,0-1.1,1.1-1.2,1.2c-.1.4,0,.7,0,1s-.8,1-.8,1.2v1.5c0,.2.3.1.4.3v1.3c0,.4.3.1.4.3v1c0,.4,1.8,1.9,1.9,1.9s.8.4.9.4h.9c.3,0,0,.4.2.4.4,0,.2-.3.4-.4s.6,0,1,0,1.1-1.1,1.2-1.2c.1-.2,0-.4,0-.6s.3-.1.4-.4v-4.3c0-.5-.3-.1-.4-.3v-1c0-.4-.6-.4-.7-.5s0-.5-.1-.7-1.1-1.1-1.2-1.2v.2ZM164.8,209.4c-.3-.1-2.6-.1-2.9,0s-.1.3-.2.3c-.2,0-.5,0-.7.1-.5.3-2.1,2.2-2.3,2.7s-.8,1.7-.9,1.8v1.9c0,.3.7,1.3.8,1.5s0,.6,0,.6h.6c.2,0,0,.4.4.4h3.1c.4,0,.1-.3.2-.3.4-.2,2-1,2.2-1.3s0-.5.1-.6.7-.4.7-.6v-.9c0-.3.3-.1.4-.3v-3.5c0-.5-.3-.2-.4-.4s0-.4,0-.6c-.3-.5-.6-.4-1-.5s0-.2-.1-.3h0ZM152.7,212.9c-.3-.1-4.5-.2-4.9,0s-.1.3-.3.4h-.9c-.3,0-.4.6-.6.7s-.5,0-.7.1c-.2.2-1.2,1.4-1.3,1.4-.2.1-.7,0-.7,0v.7c0,.2-1.8,1.5-1.8,1.7-.1.3,0,1.3,0,1.8s-.5.8-.8,2-.6,0-.4.8.4.1.4.3c.1.5.1,1.3.5,1.8s.7.8.8.8c.3.1,3.8.1,4.3,0s.2-.4.6-.4h2.7c.4,0,1.3.7,1.5.8.8.3,2.5.4,2.9,1.2s0,.7,0,.7h.6c.8.3.7.2,1.6.4s0,.6.8.4.1-.4.3-.4h1.3c.4,0,.8-.8.9-.8.1-.4,0-.7,0-1s.4,0,.4-.4v-1.9c0-.3-.3-.1-.4-.3-.3-1.3-.3-2-.8-3.3-.6-1.6-1.2-2.5-2.2-4s0-.5-.1-.7c-.4-.6-2.2-2-2.7-2.3s-.7-.4-.8-.4h-.2Z"/>
  <path class="st3" d="M213.6,92.7c1.3-.9,5.4-6.5,6.4-6.8s4.2,2.9,4.1,3.5l-13.7,14.9c-.8,0-4.1-3-4.2-3.8l2.4-10.2-6.3,6.8c-.9.2-3.7-2.8-4.1-3.6l13.7-15.2c.8,0,4.1,3.1,4.2,4.1l-2.5,10.2h0Z"/>
  <path class="st3" d="M184.7,74.1l3.1-8.7c.4-.4,3,.5,3.6.8s1.6.5,1.7,1.1l-6.6,19.1c-.6.4-5.2-1.3-5.5-1.9-.7-3.1-.8-6.3-1.5-9.4s0-.6-.3-.9c-.6,1-2.7,8.3-3,8.5-.7.4-4.8-1-5.1-1.7l6.9-19.4c.6-.3,4.8,1.4,5.3,2.3l1.5,10.3h0Z"/>
  <path class="st3" d="M224.9,97.2c8.2-1.1,14.2,8.6,9,15.2-5.4,6.7-16.1,8-19.1-1.5-2.1-6.4,4.1-12.9,10.2-13.7h0ZM225.8,103.5c-2.8.4-7.4,4.4-4.6,7.2,2.3,2.3,7.2-.5,8.2-3.1s-.9-4.5-3.6-4.2h0Z"/>
  <path class="st3" d="M102.6,72.3c.2,0,.4,0,.5.2l8.1,11.2c4.3,5.9-3.1,13.1-9.2,12.5-2.6-.3-3.9-1.8-5.4-3.7-2.5-3.2-4.8-6.9-7.3-10.2,0-.8,4.4-4,5.3-3.7l8.1,11.1c1.2,1,3.7-.7,3.2-2.2-2.2-3.5-5.3-6.8-7.4-10.3s-.9-1-.4-1.7,4-3.1,4.6-3.2h0Z"/>
  <path class="st3" d="M123.2,73.9c4.7,0,7.4,5.9,4,9.3s-7.6,4.1-9.5,4.7-1,.3-1.6-.2l-7.9-18.5c0-.3.9-.6,1.2-.7,2-1,6.7-3.1,8.8-3.3,3.7-.3,6.1,2.6,5.7,6.1s-.6,1.7-.8,2.6h.1ZM116.8,74.8c3.7-.6,2.5-5.5-.9-3.9s-.4,0-.5.3c0,.4,1.3,2.9,1.4,3.6ZM121.6,80.8c.8-.8.5-2.5-.4-3.1s-1.9,0-2.8.2c0,.5,1.2,3.6,1.4,3.7.3.2,1.6-.6,1.9-.8h0Z"/>
  <path class="st3" d="M170.3,80.7h-3.8c-.4,0-2.2-.5-2.4-.9-.4-.7-.5-4.3-.9-4.4-1.5,0-3.1-.5-4.5-.3-.3.2-1,3.1-1.4,3.7-.7,1-5.4.3-5.6-.4l7.6-19.7c1.1,0,7.6.5,8,1l3,21h0ZM162.3,65.3c-.4,0-.3,0-.4.2-.3.5-2.3,5.6-2.1,5.8l3.1.2-.6-6.2Z"/>
  <path class="st3" d="M143.2,58.6c1.3,0,4.7,0,5.5,1s.1,2.5-.2,3.5c-1,2.5-1.3,1.2-3.2,1.1-5.8-.2-5,11.9,1.8,9.8s1.5-1,2.2-.7,2.1,3.2,2.1,3.9c0,2.2-5.2,3.2-6.9,3.2-11.3.2-13.1-20.4-1.3-21.7h0Z"/>
  <path class="st3" d="M84.6,110.3c.9-.9,1.5-2.6,1.4-3.8,4.1,0,6.5.2,4.8,4.9-5,13.4-24.4,3.1-20.3-7.8.7-1.8,3.7-6.1,5.9-5s2.7,3.3,2.2,4.1-1.1.6-1.5,1.1c-3.8,4.3,4.2,9.9,7.5,6.6h0Z"/>
  <path class="st3" d="M199.2,88.5c.6,1-1.5,4.6-2.8,4.4l-8.5-5.1c-1.1-1,1.5-4.8,2.5-4.6s1.8,1.2,1.9,1.1l5.4-9.2c0,0-1.6-.8-1.7-1-.9-1,1.1-4.1,2.2-4.6,1.2.4,9.2,5,9.2,5.6.1.9-1.5,3.7-2.4,4.1s-1.8-1.7-2.7-.4c-1.8,2.6-3.2,5.9-5.1,8.5,0,.3,1.8.9,1.9,1.1h.1Z"/>
  <path class="st3" d="M82.1,89.2c.7,0,9.6,8.8,10.9,9.8.2.2.4,0,.6,0,.7-.3,2.4-3.3,3.4-3.2s4.2,3,3.7,4.1l-6.5,6.9c-.6.5-1.3.3-1.9,0l-14-13.1c0-.2,0-.4,0-.6.2-.7,3.2-3.8,3.8-3.9Z"/>
  <path class="st3" d="M86.2,213.7h.6c1,1.1,3.1,2.3,3.4,3.8.7,3.4-3.4,7.1-6.5,5-.2-.2-2.5-2.2-2.6-2.3s-.2-.3-.2-.6l5.2-5.9h0ZM86.6,215.6l-3.6,4c1.4,2.3,3.6,2.7,5.2.3s.2-3.2-1.6-4.3Z"/>
  <path class="st3" d="M95.9,222.7c3.3-.6,5.7,2.5,4.6,5.5-.9,2.6-3.8,3.8-6.2,2.5s-2-7.4,1.7-8h0ZM96.1,224.2c-3.7.8-2.5,7.5,1.6,5.1,2.5-1.5,1.7-5.7-1.6-5.1Z"/>
  <path class="st3" d="M124.7,235.7c.4.7-.7,3.2-.6,3.5l3.7,1c0-.4.7-3,.8-3.1.2-.2,1.2,0,1.3.3s-1.3,5.9-1.6,6.7-.4,1.5-1.3,1.1c-1.1-.4.7-3.3.2-3.7s-2.6-.5-3.3-.9c-.4,0-.6,2.5-1,3s-1.2.3-1.3-.2c-.3-1,1.8-6.1,1.9-7.5.2-.4,1.2-.3,1.3-.1h0Z"/>
  <path class="st3" d="M149.3,241.1v1.9h3c.1,0,.5.5.5.7.1,1.3-2.8.9-3.5.7v2.3h3.6c.4,0,.4,1.4,0,1.4h-4.9l-.3-.3v-7.8c0-.1.5-.4.7-.5.6-.1,4.2,0,4.6.2.6.4.1,1.3-.2,1.3h-3.6,0Z"/>
  <path class="st3" d="M110,232.3s-.3-.7-.6-1c-1.1-1.2-3.4-1.2-2.6.5s4.2,2.2,2.3,4.9-6.6-.3-5.9-2.4,1.8,1,2,1.2c.9.8,3.4,1.1,2.5-.8s-3.6-1.8-2.3-4.5c1.4-2.9,6-.2,5.9,1.4s-.8,1-1.3.7h0Z"/>
  <path class="st3" d="M213.2,224.6c-1.1-1-3.2,1.5-5.1.7-1.7-.8-1.7-3-.4-4.2s3.1-1.9,3.7-1c.8,1.2-.9,1.1-1.4,1.3s-2.2,1.2-1.6,2.1,2.5-.4,3.5-.6c3.6-.8,4,3.9.7,5.4s-2.5.8-2.8-.1,1.1-.9,1.8-1.1,2.5-1.6,1.6-2.4h0Z"/>
  <path class="st3" d="M135.8,238.4c2.1-.7.7,3.7.7,4.7s-.1,1.6.6,2.1c1.1,1,2.7.3,3.1-1s.4-4.5.7-4.9,1-.3,1.2,0c.3.5-.4,5.1-.6,5.8-1.1,3.1-6.1,2.7-6.5-.6-.1-1.2.3-4.5.6-5.6s0-.4.3-.5h-.1Z"/>
  <path class="st3" d="M200.6,233.5c-.2.2.9,4-1.1,2l-1-7.5c.1-1.6,1.1-1.1,2-.4s5.7,4.2,5.7,4.6-.4.9-.8.8c-.7,0-1.2-1.1-1.9-.9-.3.4-2.7,1.4-2.8,1.5h0ZM200.4,231.9c.1.1,1.9-.8,1.9-1.1-.2-.3-2.2-1.8-2.3-1.7l.4,2.7h0Z"/>
  <path class="st3" d="M188.5,233.7c-1,.5-3.4,1.7-2.5-.5,1.1-.3,4.8-2.4,5.7-2.2,1.8.5-1.1,1.9-1.6,2.2.8,2,1.9,4,2.4,6.1-.2.8-1.2.8-1.6.2l-2.4-5.8h0Z"/>
  <path class="st3" d="M160.8,246.1c.4.3,2.9-.3,3.5-.2s.6,1.3-.4,1.5-3,.4-3.9.4-.9-1.4-1-2.2c-.2-1.2-.4-2.9-.4-4.1s-.2-3.3,1.5-1.7l.6,6.3h0Z"/>
  <path class="st3" d="M171.8,244.6c.1.1,3-.8,3.8-.6s.4.7.2,1c-.3.5-4.6,1.6-5.2.9-.2-1.2-1.9-7-1.4-7.7s1.2-.4,1.4.1l1.2,6.3Z"/>
  <path class="st3" d="M179.9,235.3c.3,0,.7-.1.9.2s.8,2.3.9,2.8c.3.8,1.5,4.3,1.2,4.8s-.9.5-1.3.1-.6-1.8-.8-2.3c-.3-.9-1.5-4.1-1.5-4.7s.2-.7.5-.8h.1Z"/>
  <path class="st0" d="M152.7,212.9s.7.4.8.4c.5.3,2.3,1.8,2.7,2.3s0,.5.1.7c1,1.5,1.6,2.4,2.2,4,.5,1.3.5,2,.8,3.3s.3.1.4.3v1.9c0,.3-.4.3-.4.4v1c0,.4-.8.8-.9.8h-1.3c-.4,0-.1.3-.3.4-.7.2-.6-.4-.8-.4-.9-.2-.7,0-1.6-.4s-.5,0-.6,0,0-.5,0-.7c-.4-.9-2.1-1-2.9-1.2s-1.4-.7-1.5-.8h-2.7c-.4,0-.2.4-.6.4h-4.3c-.3,0-.7-.7-.8-.8-.3-.5-.3-1.2-.5-1.8s-.3-.1-.4-.3c-.2-.7.4-.6.4-.8.3-1.2.6-1.4.8-2s0-1.5,0-1.8,1.8-1.5,1.8-1.7c.1-.2,0-.7,0-.7h.7c.2,0,1-1.3,1.3-1.4s.5,0,.7-.1.4-.7.6-.7h.9c.3,0,.1-.3.3-.4h5.1Z"/>
  <path class="st0" d="M160.1,199.7c.3.4,1.8,1.2,1.9,1.5s0,.9,0,1.4.7.3.4.9l-.4-.4c0,.8.1,1.7,0,2.4s-.4.3-.4.4c-.3,1.6-.1.6-.7,1.5s0,.5-.1.7c-.8,1-1.8,1.6-3,2.1s0,.3-.2.3h-1.7c-.3,0-.1-.3-.2-.3-.2,0-.5,0-.7-.1-.7-.4-1-1.5-1.3-2.2s-.3,0-.3-.2v-2.8c0-.3.3-.1.4-.3.5-1.5,1.4-3.5,2.8-4.5s.4,0,.6,0,.1-.3.4-.4,2,0,2.4,0h.1Z"/>
  <path class="st0" d="M149.6,197.4s0,.2.2.3.4,0,.6,0c.8.5,1.3,1.7,1.7,2.6s.2,1.1.3,2.1.4.3.4.4c.2.9-.3.8-.4,1-.1.5.1,1.3,0,1.9s-.3,0-.4.3,0,.5,0,.6-.4,0-.5,0c-.7.6-.8.4-1.4.8s-.4.7-.6.7h-1.7c-.4,0-.4-.6-.6-.7s-.5,0-.6-.1-1-1.6-1.1-1.7c-.2-.6,0-1.1-.2-1.6s-.3-.1-.4-.3v-2.1c0-.3.3-.1.4-.3.2-.7,0-1.5.5-2.1s.7-.4.7-.6v-1h.6c.2,0,0-.4.4-.4h2v.2Z"/>
  <path class="st0" d="M142.2,205.2l1.2,1.2c.1.1,0,.5.1.7s.6.4.7.5c.1.4,0,.7,0,1s.3.1.4.3c.1.5,0,3.7,0,4.3s-.3.2-.4.4,0,.4,0,.6-1.1,1.1-1.2,1.2c-.4.1-.7,0-1,0s0,.5-.4.4,0-.4-.2-.4h-.9c-.3,0-.8-.4-.9-.4s-1.9-1.8-1.9-1.9c-.1-.4,0-.7,0-1s-.4-.1-.4-.3v-1.3c0-.4-.3-.1-.4-.3v-1.5c0-.3.8-1.1.8-1.2v-1c0-.4,1.1-1.1,1.2-1.2.2-.1.4,0,.6,0s.2-.3.3-.4c.6-.1,2,.2,2.5.5v-.2Z"/>
  <path class="st0" d="M164.8,209.4s0,.2.1.3c.4.1.7,0,1,.5s0,.4,0,.6.3.1.4.4v3.5c0,.4-.3.1-.4.3v.9c0,.3-.6.4-.7.6s0,.5-.1.6c-.2.3-1.8,1.1-2.2,1.3s0,.3-.2.3h-3.1c-.5,0-.2-.3-.4-.4s-.6,0-.6,0v-.6c0-.2-.7-1.4-.8-1.5v-1.9c0-.3.7-1.6.9-1.8.3-.5,1.8-2.4,2.3-2.7s.4,0,.7-.1,0-.3.2-.3h2.9Z"/>
  <path class="st0" d="M144.5,184.2c.3.1,1,.6,1.3.6,1.8.7,3.4,1.8,4.3,3.5s.3,0,.3.2c.1.4-.3.2-.4.4s0,1,0,1h-1c-.2,0,0,.4-.4.4-.8.1-2-.2-2.7,0s-.1.3-.3.4h-1c-.4,0-1,1.3-1.3,1.4s-.5,0-.7.1-.4.7-.6.7c-.6.1-1.8.1-2.1-.4s0-.4-.1-.6-.3,0-.3-.2v-3.1c0-.5.4-.3.4-.4v-.9c0-.3.3-.1.3-.2.2-.5.1-1,.8-1.1.1-.3-.3-.1-.4-.3-.2-.7.3-.4.6-.6s.3-.5.4-.6c.6-.4,2.2-.7,2.8-.4h0Z"/>
  <path class="st0" d="M143.8,175.2v1c0,.2.7,1.2.8,1.6s.3,0,.3.2v1.7c0,.3-.3.1-.3.2,0,.2,0,.5-.1.7-.5.7-1.3,1-2.1.8s-1.3-1.2-1.3-1.3v-.9c0-.3-.4,0-.4-.4v-1.9c0-.3.7-.5.8-.7v-1h2.3Z"/>
  <path class="st0" d="M137.9,177.9s0,.3.2.3c.5.1.9-.2,1.4.4,0,1.1,1.1,3.4,0,4.2s-.4,0-.6,0c-.2.1-.3.6-.9.4l.4-.4c-1.1.3-1.4-.4-2-1.1s-.4,0-.6-.3c-.7-.7-.6-2.1-.4-3.1.7-.5,1.8-.9,2.6-.5h0Z"/>
  <path class="st0" d="M148.4,178.7s.4.6.5.7c.2.1.6,0,.7,0,.2.2.5,2.6.4,3s-.5,0-.6.1c.2.4-1,2-1.3,1.9-.5,0-1.3-.5-1.6-.9s0-.4-.1-.7c-.2-.5-.2-.3-.3-1.1s-.7-.3-.4-.9l.4.4v-1.4c0-.4,1.1-1.2,1.2-1.2.3-.1.7-.1,1.1,0h0Z"/>
  <path class="st0" d="M137.5,184.6l.8.8v.9c0,.3.3.1.4.3v1.4c0,.3-.9.8-1,.8-1.2.2-1.2-.4-1.4-.4h-1v-.8c0-.1-.7,0-.8,0s0-.4,0-.6-.4-.8-.4-.9-.6,0-.3-.4.3,0,.4-.1,0-1,0-1h.6c.2,0,.1-.3.3-.4.4-.1,2.1.2,2.5.5h-.1Z"/>
  <path class="st4" d="M225.8,103.5c2.6-.4,4.6,1.5,3.6,4.2-1,2.5-5.9,5.4-8.2,3.1s1.8-6.8,4.6-7.2h0Z"/>
  <path class="st4" d="M121.6,80.8c-.2.2-1.6,1-1.9.8s-1.3-3.2-1.4-3.7c.9-.2,1.9-.8,2.8-.2s1.2,2.3.4,3.1h0Z"/>
  <path class="st4" d="M116.8,74.8c0-.7-1.5-3.2-1.4-3.6s.3-.2.5-.3c3.4-1.6,4.6,3.3.9,3.9Z"/>
  <path class="st4" d="M162.3,65.3l.6,6.2-3.1-.2c-.2-.2,1.8-5.3,2.1-5.8s0-.3.4-.2Z"/>
  <path class="st4" d="M86.6,215.6c1.8,1.2,3,2.2,1.6,4.3s-3.8,2-5.2-.3l3.6-4Z"/>
  <path class="st4" d="M96.1,224.2c3.3-.7,4.1,3.5,1.6,5.1-4.1,2.4-5.2-4.3-1.6-5.1Z"/>
  <path class="st4" d="M200.4,231.9l-.4-2.7c.2-.2,2.1,1.4,2.3,1.7,0,.2-1.8,1.2-1.9,1.1h0Z"/>
</svg>