<?xml version="1.0" encoding="UTF-8"?>
<svg id="Layer_1" xmlns="http://www.w3.org/2000/svg" version="1.1" viewBox="0 0 384 384">
  <!-- Generator: Adobe Illustrator 29.6.0, SVG Export Plug-In . SVG Version: 2.1.1 Build 207)  -->
  <defs>
    <style>
      .st0 {
        fill: #c4e94d;
      }

      .st1 {
        fill: #57caef;
      }

      .st2 {
        fill: #010203;
      }

      .st3 {
        fill: #303f51;
      }

      .st4 {
        fill: #fcfdfd;
      }
    </style>
  </defs>
  <path class="st1" d="M278,25.1c100.6,51.4,134.1,180.9,69.6,275-65.2,94.9-199.7,109.9-284.3,31.2C-9.1,263.7-17,151.5,45.4,74.3,101.3,5.6,198.5-15.6,278,25.1h0ZM294.9,49.2C225.8-.2,131.4,6.3,70,64.7-3.8,134.7-3.6,252.9,70.9,322.6c84,78.4,218.8,57.1,275.3-42.1,44.7-78.7,22-179.2-51.2-231.3h0Z"/>
  <path class="st4" d="M294.9,49.2c73.1,52.2,95.9,152.6,51.2,231.3-56.4,99.2-191.3,120.5-275.3,42.1C-3.5,253-3.8,134.7,70,64.7,131.4,6.3,225.7-.2,294.9,49.2h0ZM309.7,77.9C237.5,4.6,117.8,14.4,58.2,97.8c-41.9,58.7-40.4,138.6,3.7,195.6,53.3,68.9,150.9,85.1,223.3,35.6,84.5-57.8,96.6-178.1,24.5-251.2h0v.2Z"/>
  <path class="st3" d="M309.7,77.9c72.2,73.3,60.1,193.4-24.5,251.2-72.5,49.5-170,33.4-223.3-35.6-44.1-57-45.6-137.1-3.7-195.6C117.8,14.4,237.5,4.8,309.7,78.1h0v-.2ZM302.7,74.6C232.7,9.8,122.6,18.8,64.2,93.9c-59.2,76.1-38.8,186.5,42.4,237.1,71,44.1,163.5,27,214.1-38.8,51.1-66.3,43.2-160.7-18-217.5h0Z"/>
  <path class="st4" d="M302.7,74.6c61.2,56.8,69.1,151.2,18,217.5-50.6,65.8-143.1,82.9-214.1,38.8C25.4,280.4,5.1,170,64.2,93.9,122.6,18.8,232.7,9.8,302.7,74.6h0ZM176.9,46.9c-18.3,2.2-15.5,34,2,33.7,17.5-.3,10.7-1.7,10.7-5s-2.3-5.6-3.3-6.1c-.9-.5-2.2.8-3.4,1.1-10.6,3.3-11.8-15.5-2.8-15.2,2.9,0,3.4,2.2,5-1.7,1.6-3.9,1.4-3.9.3-5.4-1.1-1.6-6.5-1.9-8.5-1.6h0v.2ZM219,81.2l-4.7-32.6c-.5-.8-10.7-1.6-12.4-1.6l-11.8,30.6c.3,1.1,7.6,2.2,8.7.6,1.1-1.6,1.7-5.4,2.2-5.7,2.3-.3,4.7.6,7,.5.6,0,.8,5.7,1.4,6.8.6,1.1,3.1,1.4,3.7,1.4h5.9ZM241.4,70.9l-2.3-16c-.8-1.4-7.3-4-8.2-3.6l-10.7,30.1c.5,1.1,7,3.4,7.9,2.6.9-.8,3.9-11.6,4.7-13.2.6.3.3.9.5,1.4.9,4.8,1.2,9.8,2.3,14.6.5,1.1,7.6,3.6,8.5,2.9l10.2-29.7c0-.8-1.9-1.4-2.6-1.7-.8-.3-5-1.7-5.6-1.2l-4.8,13.5h0l.2.2ZM145.9,70.6c0-1.4,1.1-2.5,1.2-4,.5-5.6-3.3-9.9-8.8-9.5-5.6.5-10.6,3.6-13.7,5.1-3.1,1.6-1.7.8-1.9,1.1l12.3,28.7c.8.9,1.4.6,2.5.3,2.9-.8,12.7-5.1,14.7-7.3,5.3-5.4,1.1-14.6-6.2-14.4h-.2ZM263.9,93.3c-.2-.3-2.9-1.2-2.9-1.7,2.9-4,5.1-9.2,7.9-13.2,1.4-2,2.6,1.2,4.2.6s3.9-5,3.7-6.4-12.6-7.9-14.3-8.7c-1.7.6-5,5.4-3.4,7.1,1.6,1.7,2.8,1.2,2.6,1.6l-8.4,14.3c-.2,0-2.5-1.7-2.9-1.7-1.6-.3-5.6,5.6-3.9,7.1l13.2,7.9c2,.3,5.1-5.4,4.3-6.8h-.2v-.2ZM113.9,68.1c-.9,0-6.7,4-7.1,5s0,1.7.6,2.6c3.4,5.4,8.1,10.6,11.5,16,.8,2.3-3.1,5-5,3.4l-12.6-17.2c-1.4-.5-8.4,4.5-8.2,5.7,3.9,5.1,7.3,10.9,11.3,15.8,2.3,2.9,4.3,5.3,8.4,5.7,9.5.9,21-10.2,14.3-19.4l-12.6-17.4c0-.3-.5-.3-.8-.3h.2ZM286.2,99.8l3.9-15.8c0-1.6-5.3-6.7-6.5-6.4l-21.3,23.6c.8,1.2,5.1,5.9,6.4,5.6l9.8-10.6-3.7,15.8c0,1.2,5.1,6.1,6.5,5.9l21.3-23.1c.2-.9-5-5.9-6.4-5.4s-7.9,9.2-9.9,10.6h0v-.2ZM293.5,246.8c14.3-32.1,11.6-70.5-6.2-100.8-36.2-60.7-119.7-72.8-171.4-23.9-33.5,31.7-43.9,81.2-25.9,124l5.1,11c-2,.3-8.4.6-9.5,1.2-1.1.6-.5,1.1-1.2.9-1.9-.5-4-.9-5.9-1.4-1.9-.5-2.5-1.6-5.6-1.2-.3,0-.9-.2-.8.5.6,1.4,5.7,4,7.3,4.8,6.7,2.8,12.9,2.3,19.9,1.1,0,.8,0,.9.5,1.6,3.9,6.4,11,14.4,16.6,19.4,50,46,127.6,37.3,166.4-17.9.9-1.2,1.9-2.6,2.5-4,6.2.2,12.6.2,18.9.3,4.8,0,13.7,1.7,18,.2,4.3-1.6-.5-2.3-.6-2.8-.2-.6,0-1.4-.2-2.2-1.2-4.8-7.1-8.2-11.8-8.4-4.7-.2-5.1.6-7.3.6s-1.6-.5-2.3-.6-3.6.3-4.5,0c-.9-.3,0-1.9-2-2.2v-.3h0ZM82.1,94.4c-.9,0-5.4,5-5.9,6.1s0,.6,0,.9l21.7,20.3c.9.6,2,.8,2.9,0l10.1-10.7c.8-1.7-4.2-6.2-5.7-6.4s-4.2,4.5-5.3,5-.6.3-.9,0c-2-1.6-15.8-15.4-16.9-15.2ZM303.8,106.8c-9.5,1.2-18.9,11.3-15.8,21.3,4.7,14.7,21.4,12.7,29.7,2.3,8.2-10.2-1.2-25.3-14-23.6h.2ZM86,127.1c-5.1,5-17.5-3.6-11.6-10.2.6-.8,2.2-1.4,2.3-1.7.8-1.2-2.2-5.7-3.4-6.4-3.4-1.9-8.1,5-9.2,7.8-6.4,16.9,23.8,33.1,31.5,12.1,2.6-7.1-.9-7.8-7.5-7.6,0,2-.8,4.5-2.2,5.9h0v.2ZM88.4,287.7l-8.1,9.2c0,.3,0,.6.3.9s3.6,3.3,4,3.6c4.8,3.3,11.2-2.5,10.1-7.8-1.1-5.3-3.7-4.2-5.3-5.9-.3-.2-.6-.2-.9,0h-.2ZM285.6,304.6c1.4,1.2-1.2,3.4-2.5,3.7s-3.3-.3-2.8,1.7,3.4.6,4.3.2c5.1-2.3,4.5-9.5-1.1-8.4-5.6,1.1-4.3,2.6-5.4.9-1.1-1.7,1.4-2.9,2.5-3.3,1.1-.3,3.6,0,2.2-2-.9-1.4-4.8.5-5.7,1.6-1.9,2-2,5.3.6,6.5,2.8,1.2,6.2-2.6,7.9-1.1h0v.2ZM103.5,301.6c-5.7.9-8.1,9.5-2.6,12.4,5.4,2.9,8.2.2,9.6-3.9,1.7-4.7-2-9.5-7.1-8.5h.2ZM266.1,318.4c.2-.2,3.9-1.7,4.3-2.3,1.1-.3,1.9,1.4,2.9,1.4s1.6-.6,1.2-1.2-7.9-6.4-8.8-7.1-2.9-1.9-3.1.6l1.6,11.6c3.3,3.1,1.6-2.8,1.7-3.1h0l.2.2ZM125.4,316.5c.8.5,1.9,0,2-1.1,0-2.5-7-6.8-9.2-2.2-2,4.2,2.6,5,3.6,7,.9,2-2.5,2.5-3.9,1.2s-2.3-4-3.1-1.9c-1.1,3.3,6.4,7.6,9.2,3.7,2.8-3.9-2.6-5.4-3.6-7.6s2.3-2.6,4-.8.9,1.6.9,1.6h0ZM247.3,318.7l3.7,9c.6.9,2.2.9,2.5-.3-.9-3.3-2.6-6.4-3.7-9.5.8-.5,5.3-2.6,2.5-3.4-2.8-.8-7.1,2.9-8.8,3.4-1.2,3.3,2.3,1.6,3.9.8h0ZM233.9,321.2c-.6.2-.8.6-.8,1.2,0,.9,1.9,6.1,2.3,7.3.5,1.2.9,3.1,1.2,3.6.6.6,1.6.6,2-.2s-1.6-6.2-1.9-7.5-1.2-4-1.4-4.3-.9-.3-1.4-.3h-.2v.2ZM148.2,321.8c-.3-.3-1.7-.5-2,.2,0,2.2-3.4,10.1-2.9,11.6s1.4,1.1,2,.3,1.1-4.5,1.6-4.7c1.1.6,4.2.8,5.1,1.4.9.6-1.9,5.1-.3,5.7,1.6.5,1.7-.8,2-1.7s2.8-9.6,2.5-10.4-1.7-.6-2-.5-1.2,4-1.2,4.8l-5.7-1.6c-.3-.5,1.6-4.3.9-5.4h0l.2.2ZM221.3,335.6l-1.9-9.8c-.3-.9-1.7-.9-2.2-.2-.6,1.1,2,10.1,2.2,12,.9,1.1,7.6-.6,8.1-1.4s0-1.4-.3-1.6c-1.1-.3-5.6,1.1-5.9.9ZM165.4,326c-.5,0-.3.5-.5.8-.5,1.7-1.1,7-.9,8.7.6,5.1,8.4,5.9,10.1.9s1.6-8.2.9-9-1.6-.5-1.9,0c-.5.6-.6,6.2-1.1,7.6-.6,2.2-2.9,3.1-4.8,1.6-1.9-1.6-.9-2-.9-3.3s2.3-8.5-1.1-7.3h.2ZM204.3,338l-.9-9.8c-2.6-2.5-2.5.6-2.3,2.6.2,2,.5,4.5.6,6.4.2,1.2,0,3.4,1.6,3.4s4.7-.3,6.1-.6c1.4-.3,1.2-2.2.6-2.3-1.1-.3-5,.8-5.4.3h-.2ZM186.4,330.2h5.6c.5,0,1.2-1.4.3-2s-6.2-.5-7.1-.3c-.9.2-1.1.5-1.1.8v12.1l.5.5h7.6c.6,0,.6-2.2,0-2.2h-5.6v-3.6c1.2.3,5.6.9,5.4-1.1s-.6-1.1-.8-1.1h-4.7v-2.9h0l-.2-.2Z"/>
  <path class="st1" d="M95.1,257.1l-5.1-11c-18-42.8-7.8-92.2,25.9-124,51.7-48.7,135.2-36.8,171.4,23.9,18,30.1,20.5,68.5,6.2,100.8-2.6-.5-6.2,1.1-8.7,1.9,0-1.1.5-2.2.6-3.1,1.1-13.8-7.3-34.3-14.9-45.8-3.4-5.1-8.2-10.6-12.3-15.2-2.6-3.3-5.7-5.4-8.4-8.5-5-5.6-10.9-12.9-13.4-19.9-2.5-7-.3-2.3-.8-3.4-3.6-10.4-9.8-19.6-13.8-29.7-.5-1.1-.9-5.7-1.4-6.1s-.9,0-1.2,0c-.6.9-1.4,5.4-1.7,6.8-1.2-.5-2.2-5.6-3.4-5.4-1.2.2-1.7,6.5-1.6,7.9.5,2.8,2.2,3.4-1.4,5.1-1.7.8-3.3,1.1-5.1,2.2-1.9,1.1-2.9,2-4.3,4-1.4,2-11,3.4-13.5,4.2-2.5.8-2.8,1.1-2.8,2.3-.2,2.9,5.3,7.8,8.4,7.3-.9,2-2.6,4.2-3.4,6.1s2.2.5,2.6.5,1.2.6,1.9.8c3.9.8,4.7-.6,7.5-1.1,1.6-.3,3.1.5,4.7.3v5.9c.3,3.6-.8,5.1-.9,8.2-.2,3.1.5,2.6.3,3.6s-1.9,3.1-2.3,4.3c-.6,1.9-.3,6.2.2,8.2.5,2,1.1,1.9,1.4,2.9.5,1.7,0,3.6.5,5.3s.8,1.4.9,2.3c-1.6-.9-2.8,0-4.3-.3-1.6-.3-3.6-1.1-5.3-1.4-7.3-1.4-10.9-1.2-17.7,1.7-2.6,1.1-4.7,4-7,5.4s-9.6,2.5-12.3,1.7c-2.6-.8-3.6-1.6-4.5-2.6s-1.6-2.2-1.6-2.3c0-.8,1.9.2,2.2-.3-2.2-1.9-5.7-6.1-5.1-9s1.1-1.1,1.2-2.2c0-1.7-1.2-1.2-1.4-1.9-.3-.9.3-3.3.8-4.3s.8-.9.9-1.2c.5-.8.9-4.2,2.3-2.6-.3.8-.5,1.7-.8,2.5s-1.2.6-.6.9.9,0,1.1-.3l2.8-2.2c-.5,1.4,0,2.9.5,4.2,1.9-3.4,5.9-5.6,5.9-9.6l.6,2.2c.6.6,2-2.6,2.2-3.1.6-2.2.8-4.7.9-6.8.5,0,1.2,2.5,1.9,1.9.8-4.5-1.2-6.4-3.3-9.8s-2.3-6.4-5.4-4.2c-1.4.9-2,2.3-4,3.6-2.6,1.6-5.4,2.8-8.4,2,0-1.4,1.9-1.9,2.9-2.3s.8.2.6-.6h-4.7c-.8,0-1.4.6-2,1.2l2.2-3.3c-1.7.2-3.7.9-4.7,2.5-.9,1.6-.9,2.6-1.4,2.8-.6.3-1.4-.3-2.3-.5-4-.5-5.1,2.9-8.1,4.8-2.3,3.6,3.3,5.7,3.3,8.1s-1.6,5-2,6.4-.5,4.2-.8,4.3-2.2-.6-2.8.9.6,1.7.9,2-2.5,3.7-2.6,4.7h.9c-1.2,1.6-1.9,4-2.9,5.6-1.1,1.6-4.8,4.2-6.1,6.1-1.2,1.9-1.7,2.5-3.1,4.3s-3.6,5-5.4,7.3v.5c.3-.3,1.6-1.1,1.2,0s-2.3,2.8-2.8,3.6c-1.2,1.9-3.1,4.3-3.9,6.4-1.6,3.9-5.3,16.1-4.5,19.9.8,3.7.6.2.8.8.3.9,0,2,.3,3.1s1.6,3.4,1.1,4.5c-1.1,2.6-5.4,3.3-7.9,3.7h.2v-.2Z"/>
  <path class="st2" d="M95.1,257.1c2.5-.5,6.8-1.1,7.9-3.7s-.9-3.1-1.1-4.5,0-2.2-.3-3.1c-.3-.9-.8-.5-.8-.8-.8-3.7,2.9-16,4.5-19.9,1.6-3.9,2.6-4.5,3.9-6.4,1.2-1.9,2.6-3.1,2.8-3.6.3-.9-.9-.2-1.2,0v-.5c1.9-2.3,3.6-4.8,5.4-7.3,1.9-2.5,1.9-2.2,3.1-4.3,1.2-2.2,4.7-4,6.1-6.1,1.4-2,1.6-4,2.9-5.6h-.9c0-.8,2.9-4.2,2.6-4.7s-1.7,0-.9-2,2.6-.9,2.8-.9.5-3.6.8-4.3c.3-1.6,2-5.3,2-6.4,0-2.3-5.7-4.5-3.3-8.1,2.9-1.9,4-5.3,8.1-4.8s1.7.8,2.3.5.9-2.2,1.4-2.8c.9-1.4,2.9-2.3,4.7-2.5l-2.2,3.3c.5-.6,1.1-1.2,2-1.2h4.7c0,.9,0,.5-.6.6-1.1.5-2.8.9-2.9,2.3,2.9.8,5.9-.5,8.4-2,1.9-1.1,2.6-2.6,4-3.6,3.1-2.2,4.2,2.3,5.4,4.2,2,3.4,4.2,5.3,3.3,9.8-.5.6-1.4-1.9-1.9-1.9,0,2.2-.2,4.7-.9,6.8s-1.6,3.9-2.2,3.1l-.6-2.2c0,4.2-4,6.4-5.9,9.6-.6-1.2-.9-2.8-.5-4.2l-2.8,2.2c0,.2-.9.5-1.1.3-.5-.5.6-.6.6-.9.3-.8.5-1.7.8-2.5-1.6-1.6-2,1.9-2.3,2.6s-.9,1.1-.9,1.2c-.5.9-1.1,3.4-.8,4.3.3.9,1.6,0,1.4,1.9s-1.1,1.2-1.2,2.2c-.6,3.1,2.9,7.1,5.1,9-.3.5-2.2-.6-2.2.3s1.2,2,1.6,2.3c.9.9,3.3,2.3,4.5,2.6,2.6.6,9.9-.3,12.3-1.7,2.3-1.4,4.3-4.3,7-5.4,6.8-2.9,10.4-3.1,17.7-1.7,1.7.3,3.9,1.2,5.3,1.4,1.4.2,2.8-.6,4.3.3,0-.9-.8-1.4-.9-2.3-.3-1.7,0-3.6-.5-5.3-.3-.9-1.1-1.6-1.4-2.9-.5-2-.9-6.4-.2-8.2.8-1.9,2.2-3.6,2.3-4.3s-.3-2.3-.3-3.6c.2-3.1,1.2-4.7.9-8.2-.3-3.6,0-3.9,0-5.9-1.6,0-3.1-.5-4.7-.3-2.8.5-3.6,2-7.5,1.1-.6,0-1.2-.8-1.9-.8s-3.6,1.7-2.6-.5c.9-2.2,2.5-4.2,3.4-6.1-3.1.3-8.5-4.3-8.4-7.3s1.9-2,2.8-2.3c2.5-.8,12.4-2.5,13.5-4.2,1.1-1.7,2-2.8,4.3-4s3.3-1.4,5.1-2.2c3.6-1.7,1.9-2.3,1.4-5.1s.2-7.6,1.6-7.9c1.4-.3,2.2,4.8,3.4,5.4.3-1.4,1.1-5.9,1.7-6.8.6-.9.9-.3,1.2,0,.5.3.9,5,1.4,6.1,4,10.2,10.1,19.4,13.8,29.7.5,1.2.5,2.5.8,3.4,2.3,7.1,8.4,14.3,13.4,19.9,5,5.6,5.7,5.3,8.4,8.5,4,4.8,8.8,10.1,12.3,15.2,7.5,11.5,16,32,14.9,45.8,0,1.1-.6,2-.6,3.1,2.6-.8,6.1-2.3,8.7-1.9,2,.3,1.7,2,2,2.2.9.3,3.3-.2,4.5,0,1.2.2,1.4.6,2.3.6,2.2,0,5-.8,7.3-.6,4.7,0,10.6,3.7,11.8,8.4.2.8,0,1.7.2,2.2s3.6,1.7.6,2.8c-4.3,1.4-13.2,0-18-.2-6.4,0-12.6,0-18.9-.3-9-.3-23.1-1.9-31.5-.5-6.5,1.1-15.1.8-21.7.2-6.7-.6-4.3-.3-3.3-2.2s3.7-2.9,4.2-3.1c.9-.3,3.9-.8,5.1-.9s1.4.3,2.3.2,2.5-1.6,3.9-1.1c.5-1.7-1.1-2.9-1.2-4.3-.2-1.4.3-2,0-2.5-.3-.8-2.9-3.3-3.7-4.5s-3.1-6.1-3.4-7.8c-.3-1.6.2-3.1-.6-4.7-1.6-1.1-3.4-3.3-4.8-4.2-1.4-.9-2.3-.8-3.1-1.9-.6,0-.3,0-.5.5-.5,1.2-.3,3.7-.8,5.3-.5,1.6-1.6,4.2-1.9,5.9-.8,3.3-.6,7.5-1.2,10.9-.5,2.3-2.3,1.9-3.4,2.9-1.1,1.1-1.9,2.9-2.6,3.9s-4.2,2.6-4.8,2.9-7.8.5-8.4,0c-1.4-.8,0-3.1.8-3.7,1.6-1.2,4-.5,5-1.4.9-.9,2.5-4.2,2.9-5.1,3.1-6.8,2.6-14.3,3.1-21.7,0-2.2,1.4-8.4,0-10.1s-2.8-.8-3.7-1.1c-3.1-.9-5.6-2.2-8.7-2.9-1.1-.3-6.4-2.8-7-3.4-.6-.6,0-.8-.3-.9s-3.3-.5-2.5-.9c.8-.5.8,0,.5-.6-.3-.6-.9-.6-1.1-.6-1.9-.2-2.3.6-3.7.9-1.4.3-4.5.6-6.2.2s-.9-.6-1.4-.6c-2.2-.5-2.2,1.9-3.1,3.1-1.2,2.2-4.2,2.8-6.4,3.4,0,.5.9,0,.6.8s-4.8,3.4-5.9,3.7-2.5.5-2.6.6c-.6.6.8.5.6,1.1-.6,1.2-6.4,3.6-7.8,3.9s-2.2,0-2.8.6c-.8,1.1-2.5,8.2-2.9,8.7s-.8-.3-.9-.3c0,0-.8,2.9-1.1,3.6s-.9,1.4-1.1,2c0,1.1.5,2.6.3,3.9s-.6.5-.6.6c-.3,1.1.3,2.2.3,3.3v5.3l-.9-.3c.5,2.5,0,5.7.5,8.2.5,2.5,3.1,2.5,4,4.3,2.2,4-5.3,3.4-7.5,2.6-3.4-1.2-2.3-3.4-3.6-5.4s-.9-.5-1.2-1.2-1.1-4-1.1-4.7v-5l-.9.6v-2.5c-.8.3-.8.6-1.1-.3l-7.3,9.3c0,.3-.3.8,0,.9.6.9,8.5-.2,7,3.3-.5,1.1-1.6.9-1.9,1.4-.9,1.1.3,1.9-2.5,2.8-3.7,1.2-12.3.5-16.5.5s-.9.3-1.4.3c-2.2,0-4.7-2.9-5.7-2.9-2.9.6-5.9,1.6-8.8,2.2-7,1.2-13.2,1.6-19.9-1.1-1.6-.6-6.8-3.4-7.3-4.8s.5-.5.8-.5c3.1-.3,3.3.6,5.6,1.2,2.3.6,4,.9,5.9,1.4.8.2.8-.8,1.2-.9,1.1-.5,7.5-.8,9.5-1.2h0v.2Z"/>
  <path class="st1" d="M99.5,262.8c2.9-.5,5.9-1.4,8.8-2.2,1.1,0,3.6,2.9,5.7,2.9s.9-.3,1.4-.3c4.2,0,12.7.8,16.5-.5,2.8-.9,1.7-1.7,2.5-2.8s1.4-.3,1.9-1.4c1.6-3.4-6.4-2.3-7-3.3s0-.6,0-.9l7.3-9.3c.3.8.3.6,1.1.3v2.5l.9-.6v5c0,.5.8,4,1.1,4.7.5.8,1.1.8,1.2,1.2,1.2,1.9,0,4,3.6,5.4,3.6,1.4,9.6,1.4,7.5-2.6-2.2-4-3.6-1.9-4-4.3-.5-2.5,0-5.6-.5-8.2l.9.3v-5.3c0-1.7-.6-2.2-.3-3.3s.5,0,.6-.6c0-1.4-.5-2.9-.3-3.9s.8-1.2,1.1-2,.9-3.6,1.1-3.6.8.5.9.3c.6-.5,2.2-7.5,2.9-8.7.6-.8,1.9-.3,2.8-.6,1.6-.5,7.3-2.6,7.8-3.9s-1.2-.5-.6-1.1,1.9-.3,2.6-.6c1.1-.5,5.6-2.9,5.9-3.7s-.8-.2-.6-.8c2.3-.6,5.1-1.2,6.4-3.4s.8-3.6,3.1-3.1c2.3.5.9.6,1.4.6,1.6.5,4.5.2,6.2-.2,1.7-.3,1.9-1.1,3.7-.9,1.9.2.9.6,1.1.6.5.6-.3.5-.5.6-.8.6,2.3.8,2.5.9s0,.6.3.9c.6.6,5.9,3.3,7,3.4,3.1.9,5.6,2.2,8.7,2.9,1.1.3,2.9,0,3.7,1.1,1.2,1.7,0,7.9,0,10.1-.3,7.5,0,14.7-3.1,21.7-.5,1.1-2.3,4.5-2.9,5.1s-3.4,0-5,1.4c-1.6,1.4-2.2,2.9-.8,3.7,1.4.8,7.5.2,8.4,0,.9-.2,4.3-2.3,4.8-2.9.9-.9,1.7-3.1,2.6-3.9s3.1-.6,3.4-2.9c.6-3.4.5-7.5,1.2-10.9s1.6-4,1.9-5.9c.3-1.9.2-4,.8-5.3.6-1.2,0-.5.5-.5.8.9,2.2,1.2,3.1,1.9,1.4,1.1,3.3,3.1,4.8,4.2.8,1.4.3,3.1.6,4.7.3,1.7,2.3,6.2,3.4,7.8,1.1,1.6,3.4,3.7,3.7,4.5s-.2,1.7,0,2.5c.2,1.6,1.6,2.8,1.2,4.3-1.4-.5-2.8.9-3.9,1.1s-1.6-.3-2.3-.2c-1.2,0-4.2.5-5.1.9-.9.5-4,2.9-4.2,3.1-1.1,1.9,1.9,2,3.3,2.2,6.8.5,15.4.8,21.7-.2,8.2-1.4,22.5.3,31.5.5-.6,1.4-1.6,2.8-2.5,4-38.8,55.1-116.4,63.8-166.4,17.9-5.4-5.1-12.7-13-16.6-19.4-3.9-6.4-.6-.8-.5-1.6v.3h-.2ZM177.9,227.9h-3.6v1.6c0,.3-1.1.8-1.2,1.1v2.9c0,.6.6.5.6.6v1.4c0,.5,1.9,2,2,2,1.2.3,2.6-.2,3.3-1.2s0-.6.2-1.1.5,0,.5-.3v-2.6c0-.5-.5-.2-.5-.3-.3-.8-1.2-2.3-1.2-2.5v-1.6h0ZM168.7,232.1c-1.2-.6-2.9,0-4,.8-.3,1.6-.5,3.7.6,4.8,1.1,1.1.8.3.9.5,1.1,1.1,1.4,2,3.1,1.7l-.6.6c1.1.3,1.1-.5,1.4-.6s.6,0,.9,0c1.7-1.1,0-4.7,0-6.5-.8-.9-1.2-.5-2.2-.6s-.2-.5-.3-.5h0l.2-.2ZM185,233.3c-.5-.2-1.1-.2-1.7,0s-1.9,1.9-1.9,1.9v2.2l-.6-.6c-.5.9.6,1.2.6,1.4.2,1.2.2.9.5,1.7s0,.8.2,1.1c.5.6,1.7,1.2,2.5,1.4.8.2,2.3-2.5,2-2.9,0,0,.8,0,.9-.2,0-.6-.3-4.3-.6-4.7-.3-.3-.8,0-1.1,0s-.6-.9-.8-1.1h0v-.2ZM168.1,242.5c-.6-.3-3.3-.9-3.9-.8s-.2.5-.5.6-.9,0-.9,0v1.6c0,.3-.6.2-.6.2-.5.6.5.6.5.6,0,0,.6,1.2.6,1.4v.9h1.2c.2,0,0,1.1,0,1.2s1.2,0,1.6,0,.3.9,2.2.6c1.9-.3,1.6-1.2,1.6-1.2.2-.5.2-1.7,0-2.2s-.5-.2-.6-.5v-1.4c0-.5-1.2-1.2-1.2-1.2h.2v.2ZM179,241.9c-1.1-.5-3.4,0-4.3.6-.9.6-.3.6-.6.9s-1.2,0-.9.9.8,0,.6.5c-1.1.2-1.1.9-1.2,1.7-.2.8-.5,0-.5.3v1.4c0,.5-.6,0-.6.6v4.8c0,.6.5.2.5.3,0,.3,0,.8.2.9.6.9,2.3.9,3.3.6s.6-.9.9-1.1.8,0,1.1-.2c.3-.3,1.9-2.2,2-2.2.6-.2,1.1,0,1.6,0s.2-.5.5-.6c1.1-.3,2.9.2,4.2,0,1.2-.2.5-.6.6-.6h1.6v-1.6c0-.3.8,0,.6-.6s-.5,0-.5-.3c-1.4-2.8-3.9-4.3-6.7-5.4s-1.6-.8-2-.9h0l-.2-.2ZM186.9,262.3c-.5-.2-2.5-.2-3.1,0-.6.2-.3.5-.6.6s-.9,0-.9,0v1.6c0,.3-.9.6-1.1.9-.8,1.1-.5,2.2-.8,3.3-.3,1.1-.5.2-.6.5v3.3c0,.5.5.2.6.5.2.8,0,1.4.3,2.5s1.6,2.6,1.7,2.6c.3.2.8,0,.9.2s.6,1.1.9,1.1h2.6c.6,0,.6-.9.9-1.1.8-.5,1.1-.3,2.2-1.2,1.1-.9.6,0,.8,0,.2-.2,0-.8,0-.9.2-.3.5-.3.6-.5.2-.8-.2-2,0-2.9s.9-.2.6-1.6c-.3-1.4-.6,0-.6-.6-.2-1.7.2-1.7-.5-3.3-.6-1.6-1.2-3.3-2.6-4-1.4-.8-.6,0-.9,0s-.3-.5-.3-.5v-.3h-.2ZM203.2,265.9c-.5-.2-3.1-.2-3.7,0s-.3.5-.6.6-.6,0-.9,0c-2.2,1.4-3.6,4.5-4.3,7s-.5.3-.6.5v4.3c0,.5.5.2.5.3.5,1.1.9,2.8,2,3.4s.6,0,1.1.2,0,.5.3.5h2.6c.5,0,.2-.5.3-.5,1.7-.8,3.4-1.6,4.7-3.3,1.2-1.7,0-.8.2-1.1.9-1.4.6.2,1.1-2.3.5-2.5.6,0,.6-.6,0-1.1-.2-2.6,0-3.7l.6.6c.5-.9-.6-1.2-.6-1.4,0-.6.2-1.4,0-2.2s-2.6-1.9-2.9-2.3h-.2ZM175.4,274.5c-.8-.5-3.1-.9-3.9-.8-.8.2-.2.5-.5.6s-.6,0-.9,0-1.7,1.7-1.9,1.9c-.2.6,0,1.1,0,1.6s-1.2,1.6-1.2,1.9v2.3c0,.3.5.2.6.5v2c0,.6.5.2.6.5v1.6c0,.6,2.8,2.9,2.9,2.9s1.2.6,1.4.6h1.4c.5,0,0,.6.3.6.6,0,.3-.5.6-.6s.9,0,1.6,0,1.7-1.7,1.9-1.9c.2-.3,0-.6,0-.9s.5-.2.6-.6v-6.7c0-.8-.5-.2-.6-.5v-1.6c0-.6-.9-.6-1.1-.8s0-.8-.2-1.1-1.7-1.7-1.9-1.9v.3h.2ZM210.5,281c-.5-.2-4-.2-4.5,0s-.2.5-.3.5c-.3,0-.8,0-1.1.2-.8.5-3.3,3.4-3.6,4.2-.3.8-1.2,2.6-1.4,2.8v2.9c0,.5,1.1,2,1.2,2.3s0,.9,0,.9h.9c.3,0,0,.6.6.6h4.8c.6,0,.2-.5.3-.5.6-.3,3.1-1.6,3.4-2s0-.8.2-.9,1.1-.6,1.1-.9v-1.4c0-.5.5-.2.6-.5v-5.4c0-.8-.5-.3-.6-.6s0-.6,0-.9c-.5-.8-.9-.6-1.6-.8-.6-.2,0-.3-.2-.5h0ZM191.7,286.4c-.5-.2-7-.3-7.6,0s-.2.5-.5.6h-1.4c-.5,0-.6.9-.9,1.1s-.8,0-1.1.2c-.3.3-1.9,2.2-2,2.2-.3.2-1.1,0-1.1,0v1.1c0,.3-2.8,2.3-2.8,2.6-.2.5,0,2,0,2.8s-.8,1.2-1.2,3.1-.9,0-.6,1.2.6.2.6.5c.2.8.2,2,.8,2.8.6.8,1.1,1.2,1.2,1.2.5.2,5.9.2,6.7,0s.3-.6.9-.6h4.2c.6,0,2,1.1,2.3,1.2,1.2.5,3.9.6,4.5,1.9s0,1.1,0,1.1h.9c1.2.5,1.1.3,2.5.6,1.4.3,0,.9,1.2.6s.2-.6.5-.6h2c.6,0,1.2-1.2,1.4-1.2.2-.6,0-1.1,0-1.6s.6,0,.6-.6v-2.9c0-.5-.5-.2-.6-.5-.5-2-.5-3.1-1.2-5.1-.9-2.5-1.9-3.9-3.4-6.2-1.6-2.3,0-.8-.2-1.1-.6-.9-3.4-3.1-4.2-3.6-.8-.5-1.1-.6-1.2-.6h-.3v-.2Z"/>
  <path class="st3" d="M286.2,99.8c2-1.4,8.4-10.1,9.9-10.6,1.6-.5,6.5,4.5,6.4,5.4l-21.3,23.1c-1.2,0-6.4-4.7-6.5-5.9l3.7-15.8-9.8,10.6c-1.4.3-5.7-4.3-6.4-5.6l21.3-23.6c1.2,0,6.4,4.8,6.5,6.4l-3.9,15.8h0v.2Z"/>
  <path class="st3" d="M241.4,70.9l4.8-13.5c.6-.6,4.7.8,5.6,1.2.9.5,2.5.8,2.6,1.7l-10.2,29.7c-.9.6-8.1-2-8.5-2.9-1.1-4.8-1.2-9.8-2.3-14.6-1.1-4.8,0-.9-.5-1.4-.9,1.6-4.2,12.9-4.7,13.2-1.1.6-7.5-1.6-7.9-2.6l10.7-30.1c.9-.5,7.5,2.2,8.2,3.6l2.3,16h0l-.2-.2Z"/>
  <path class="st3" d="M303.8,106.8c12.7-1.7,22,13.4,14,23.6-8.4,10.4-25,12.4-29.7-2.3-3.3-9.9,6.4-20,15.8-21.3h-.2ZM305.2,116.6c-4.3.6-11.5,6.8-7.1,11.2,3.6,3.6,11.2-.8,12.7-4.8,1.6-4-1.4-7-5.6-6.5h0v.2Z"/>
  <path class="st3" d="M113.9,68.1c.3,0,.6,0,.8.3l12.6,17.4c6.7,9.2-4.8,20.3-14.3,19.4-4-.5-6.1-2.8-8.4-5.7-3.9-5-7.5-10.7-11.3-15.8,0-1.2,6.8-6.2,8.2-5.7l12.6,17.2c1.9,1.6,5.7-1.1,5-3.4-3.4-5.4-8.2-10.6-11.5-16-3.3-5.4-1.4-1.6-.6-2.6s6.2-4.8,7.1-5h-.2Z"/>
  <path class="st3" d="M145.9,70.6c7.3,0,11.5,9.2,6.2,14.4-5.3,5.3-11.8,6.4-14.7,7.3-2.9.9-1.6.5-2.5-.3l-12.3-28.7c0-.5,1.4-.9,1.9-1.1,3.1-1.6,10.4-4.8,13.7-5.1,5.7-.5,9.5,4,8.8,9.5-.6,5.4-.9,2.6-1.2,4h.2ZM135.9,72c5.7-.9,3.9-8.5-1.4-6.1s-.6,0-.8.5c0,.6,2,4.5,2.2,5.6ZM143.4,81.3c1.2-1.2.8-3.9-.6-4.8-1.4-.9-2.9,0-4.3.3,0,.8,1.9,5.6,2.2,5.7.5.3,2.5-.9,2.9-1.2h-.2Z"/>
  <path class="st3" d="M219,81.2h-5.9c-.6,0-3.4-.8-3.7-1.4-.6-1.1-.8-6.7-1.4-6.8-2.3,0-4.8-.8-7-.5-.5.3-1.6,4.8-2.2,5.7-1.1,1.6-8.4.5-8.7-.6l11.8-30.6c1.7,0,11.8.8,12.4,1.6l4.7,32.6h0ZM206.6,57.3c-.6,0-.5,0-.6.3-.5.8-3.6,8.7-3.3,9l4.8.3-.9-9.6Z"/>
  <path class="st3" d="M176.9,46.9c2,0,7.3,0,8.5,1.6,1.2,1.6.2,3.9-.3,5.4-1.6,3.9-2,1.9-5,1.7-9-.3-7.8,18.5,2.8,15.2,10.6-3.3,2.3-1.6,3.4-1.1s3.3,5,3.3,6.1c0,3.4-8.1,5-10.7,5-17.5.3-20.3-31.7-2-33.7h0v-.2Z"/>
  <path class="st3" d="M86,127.1c1.4-1.4,2.3-4,2.2-5.9,6.4,0,10.1.3,7.5,7.6-7.8,20.8-37.9,4.8-31.5-12.1,1.1-2.8,5.7-9.5,9.2-7.8,3.4,1.7,4.2,5.1,3.4,6.4s-1.7.9-2.3,1.7c-5.9,6.7,6.5,15.4,11.6,10.2h0v-.2Z"/>
  <path class="st3" d="M263.9,93.3c.9,1.6-2.3,7.1-4.3,6.8l-13.2-7.9c-1.7-1.6,2.3-7.5,3.9-7.1s2.8,1.9,2.9,1.7l8.4-14.3s-2.5-1.2-2.6-1.6c-1.4-1.6,1.7-6.4,3.4-7.1,1.9.6,14.3,7.8,14.3,8.7.2,1.4-2.3,5.7-3.7,6.4-1.4.6-2.8-2.6-4.2-.6-2.8,4-5,9.2-7.9,13.2,0,.5,2.8,1.4,2.9,1.7h.2v.2Z"/>
  <path class="st3" d="M82.1,94.4c1.1,0,14.9,13.7,16.9,15.2.3.3.6,0,.9,0,1.1-.5,3.7-5.1,5.3-5s6.5,4.7,5.7,6.4l-10.1,10.7c-.9.8-2,.5-2.9,0l-21.7-20.3v-.9c.3-1.1,5-5.9,5.9-6.1Z"/>
  <path class="st3" d="M88.4,287.7h.9c1.6,1.7,4.8,3.6,5.3,5.9,1.1,5.3-5.3,11-10.1,7.8-.3-.3-3.9-3.4-4-3.6s-.3-.5-.3-.9l8.1-9.2h.2ZM89.1,290.6l-5.6,6.2c2.2,3.6,5.6,4.2,8.1.5,2.5-3.7.3-5-2.5-6.7Z"/>
  <path class="st3" d="M103.5,301.6c5.1-.9,8.8,3.9,7.1,8.5-1.4,4-5.9,5.9-9.6,3.9-3.7-2-3.1-11.5,2.6-12.4h-.2ZM103.8,304c-5.7,1.2-3.9,11.6,2.5,7.9,3.9-2.3,2.6-8.8-2.5-7.9Z"/>
  <path class="st3" d="M148.2,321.8c.6,1.1-1.1,5-.9,5.4l5.7,1.6c0-.6,1.1-4.7,1.2-4.8.3-.3,1.9,0,2,.5s-2,9.2-2.5,10.4-.6,2.3-2,1.7c-1.7-.6,1.1-5.1.3-5.7-.8-.6-4-.8-5.1-1.4-.6,0-.9,3.9-1.6,4.7-.6.8-1.9.5-2-.3-.5-1.6,2.8-9.5,2.9-11.6.3-.6,1.9-.5,2-.2h0l-.2-.2Z"/>
  <path class="st3" d="M186.4,330.2v2.9h4.7c.2,0,.8.8.8,1.1.2,2-4.3,1.4-5.4,1.1v3.6h5.6c.6,0,.6,2.2,0,2.2h-7.6l-.5-.5v-12.1c0-.2.8-.6,1.1-.8.9-.2,6.5,0,7.1.3.9.6.2,2-.3,2h-5.6l.2.2Z"/>
  <path class="st3" d="M125.4,316.5s-.5-1.1-.9-1.6c-1.7-1.9-5.3-1.9-4,.8,1.2,2.6,6.5,3.4,3.6,7.6-2.9,4.2-10.2-.5-9.2-3.7s2.8,1.6,3.1,1.9c1.4,1.2,5.3,1.7,3.9-1.2-1.4-2.9-5.6-2.8-3.6-7,2.2-4.5,9.3-.3,9.2,2.2-.2,2.5-1.2,1.6-2,1.1h0Z"/>
  <path class="st3" d="M285.6,304.6c-1.7-1.6-5,2.3-7.9,1.1-2.6-1.2-2.6-4.7-.6-6.5,2-1.9,4.8-2.9,5.7-1.6,1.2,1.9-1.4,1.7-2.2,2s-3.4,1.9-2.5,3.3c.9,1.4,3.9-.6,5.4-.9,5.6-1.2,6.2,6.1,1.1,8.4-5.1,2.3-3.9,1.2-4.3-.2-.5-1.4,1.7-1.4,2.8-1.7,1.1-.3,3.9-2.5,2.5-3.7h0v-.2Z"/>
  <path class="st3" d="M165.4,326c3.3-1.1,1.1,5.7,1.1,7.3s-.2,2.5.9,3.3c1.7,1.6,4.2.5,4.8-1.6.6-2,.6-7,1.1-7.6s1.6-.5,1.9,0c.5.8-.6,7.9-.9,9-1.7,4.8-9.5,4.2-10.1-.9-.2-1.9.5-7,.9-8.7s0-.6.5-.8h-.2Z"/>
  <path class="st3" d="M266.1,318.4c-.3.3,1.4,6.2-1.7,3.1l-1.6-11.6c.2-2.5,1.7-1.7,3.1-.6s8.8,6.5,8.8,7.1-.6,1.4-1.2,1.2c-1.1,0-1.9-1.7-2.9-1.4-.5.6-4.2,2.2-4.3,2.3h0l-.2-.2ZM265.7,315.9c.2.2,2.9-1.2,2.9-1.7-.3-.5-3.4-2.8-3.6-2.6l.6,4.2h0v.2Z"/>
  <path class="st3" d="M247.3,318.7c-1.6.8-5.3,2.6-3.9-.8,1.7-.5,7.5-3.7,8.8-3.4,2.8.8-1.7,2.9-2.5,3.4,1.2,3.1,2.9,6.2,3.7,9.5-.3,1.2-1.9,1.2-2.5.3l-3.7-9h0Z"/>
  <path class="st3" d="M204.3,338c.6.5,4.5-.5,5.4-.3.9.2.9,2-.6,2.3-1.6.3-4.7.6-6.1.6s-1.4-2.2-1.6-3.4c-.3-1.9-.6-4.5-.6-6.4s-.3-5.1,2.3-2.6l.9,9.8h.2Z"/>
  <path class="st3" d="M221.3,335.6c.2.2,4.7-1.2,5.9-.9s.6,1.1.3,1.6c-.5.8-7.1,2.5-8.1,1.4-.3-1.9-2.9-10.9-2.2-12,.8-1.1,1.9-.6,2.2.2l1.9,9.8Z"/>
  <path class="st3" d="M233.9,321.2c.5,0,1.1-.2,1.4.3s1.2,3.6,1.4,4.3c.5,1.2,2.3,6.7,1.9,7.5s-1.4.8-2,.2-.9-2.8-1.2-3.6c-.5-1.4-2.3-6.4-2.3-7.3s.3-1.1.8-1.2h.2v-.2Z"/>
  <path class="st0" d="M191.7,286.4s1.1.6,1.2.6c.8.5,3.6,2.8,4.2,3.6s0,.8.2,1.1c1.6,2.3,2.5,3.7,3.4,6.2.8,2,.8,3.1,1.2,5.1s.5.2.6.5v2.9c0,.5-.6.5-.6.6v1.6c0,.6-1.2,1.2-1.4,1.2h-2c-.6,0-.2.5-.5.6-1.1.3-.9-.6-1.2-.6-1.4-.3-1.1,0-2.5-.6-1.4-.6-.8,0-.9,0s0-.8,0-1.1c-.6-1.4-3.3-1.6-4.5-1.9s-2.2-1.1-2.3-1.2h-4.2c-.6,0-.3.6-.9.6h-6.7c-.5,0-1.1-1.1-1.2-1.2-.5-.8-.5-1.9-.8-2.8-.3-.9-.5-.2-.6-.5-.3-1.1.6-.9.6-1.2.5-1.9.9-2.2,1.2-3.1s0-2.3,0-2.8,2.8-2.3,2.8-2.6c.2-.3,0-1.1,0-1.1h1.1c.3,0,1.6-2,2-2.2.5-.2.8,0,1.1-.2s.6-1.1.9-1.1h1.4c.5,0,.2-.5.5-.6h7.9v.2Z"/>
  <path class="st0" d="M203.2,265.9c.5.6,2.8,1.9,2.9,2.3s0,1.4,0,2.2,1.1.5.6,1.4l-.6-.6c0,1.2.2,2.6,0,3.7-.2,1.1-.6.5-.6.6-.5,2.5-.2.9-1.1,2.3-.9,1.4,0,.8-.2,1.1-1.2,1.6-2.8,2.5-4.7,3.3s0,.5-.3.5h-2.6c-.5,0-.2-.5-.3-.5-.3,0-.8,0-1.1-.2-1.1-.6-1.6-2.3-2-3.4s-.5,0-.5-.3v-4.3c0-.5.5-.2.6-.5.8-2.3,2.2-5.4,4.3-7,2.2-1.6.6,0,.9,0s.2-.5.6-.6,3.1,0,3.7,0h.2Z"/>
  <path class="st0" d="M186.9,262.3s0,.3.3.5.6,0,.9,0c1.2.8,2,2.6,2.6,4s.3,1.7.5,3.3c.2,1.6.6.5.6.6.3,1.4-.5,1.2-.6,1.6-.2.8.2,2,0,2.9s-.5,0-.6.5,0,.8,0,.9-.6,0-.8,0c-1.1.9-1.2.6-2.2,1.2s-.6,1.1-.9,1.1h-2.6c-.6,0-.6-.9-.9-1.1s-.8,0-.9-.2-1.6-2.5-1.7-2.6c-.3-.9,0-1.7-.3-2.5s-.5-.2-.6-.5v-3.3c0-.5.5-.2.6-.5.3-1.1,0-2.3.8-3.3.8-.9,1.1-.6,1.1-.9v-1.6h.9c.3,0,0-.6.6-.6h3.1v.3h.2Z"/>
  <path class="st0" d="M175.4,274.5l1.9,1.9c.2.2,0,.8.2,1.1s.9.6,1.1.8c.2.6,0,1.1,0,1.6s.5.2.6.5c.2.8,0,5.7,0,6.7s-.5.3-.6.6,0,.6,0,.9-1.7,1.7-1.9,1.9c-.6.2-1.1,0-1.6,0s0,.8-.6.6,0-.6-.3-.6h-1.4c-.5,0-1.2-.6-1.4-.6s-2.9-2.8-2.9-2.9c-.2-.6,0-1.1,0-1.6s-.6-.2-.6-.5v-2c0-.6-.5-.2-.6-.5v-2.3c0-.5,1.2-1.7,1.2-1.9v-1.6c0-.6,1.7-1.7,1.9-1.9.3-.2.6,0,.9,0s.3-.5.5-.6c.9-.2,3.1.3,3.9.8v-.3h-.2Z"/>
  <path class="st0" d="M210.5,281s0,.3.2.5c.6.2,1.1,0,1.6.8.5.8,0,.6,0,.9s.5.2.6.6v5.4c0,.6-.5.2-.6.5v1.4c0,.5-.9.6-1.1.9s0,.8-.2.9c-.3.5-2.8,1.7-3.4,2s0,.5-.3.5h-4.8c-.8,0-.3-.5-.6-.6s-.9,0-.9,0v-.9c0-.3-1.1-2.2-1.2-2.3v-2.9c0-.5,1.1-2.5,1.4-2.8.5-.8,2.8-3.7,3.6-4.2s.6,0,1.1-.2,0-.5.3-.5h4.5Z"/>
  <path class="st0" d="M179,241.9c.5.2,1.6.9,2,.9,2.8,1.1,5.3,2.8,6.7,5.4s.5,0,.5.3c.2.6-.5.3-.6.6s0,1.6,0,1.6h-1.6c-.3,0,0,.6-.6.6-1.2.2-3.1-.3-4.2,0s-.2.5-.5.6h-1.6c-.6,0-1.6,2-2,2.2s-.8,0-1.1.2-.6,1.1-.9,1.1c-.9.2-2.8.2-3.3-.6-.5-.8,0-.6-.2-.9s-.5,0-.5-.3v-4.8c0-.8.6-.5.6-.6v-1.4c0-.5.5-.2.5-.3.3-.8.2-1.6,1.2-1.7.2-.5-.5-.2-.6-.5-.3-1.1.5-.6.9-.9s.5-.8.6-.9c.9-.6,3.4-1.1,4.3-.6h0l.2.2Z"/>
  <path class="st0" d="M177.9,227.9v1.6c0,.3,1.1,1.9,1.2,2.5s.5,0,.5.3v2.6c0,.5-.5.2-.5.3,0,.3,0,.8-.2,1.1-.8,1.1-2,1.6-3.3,1.2-1.2-.3-2-1.9-2-2v-1.4c0-.5-.6,0-.6-.6v-2.9c0-.5,1.1-.8,1.2-1.1v-1.6h3.6Z"/>
  <path class="st0" d="M168.7,232.1s0,.5.3.5c.8.2,1.4-.3,2.2.6,0,1.7,1.7,5.3,0,6.5-1.7,1.2-.6,0-.9,0-.3.2-.5.9-1.4.6l.6-.6c-1.7.5-2.2-.6-3.1-1.7s-.6,0-.9-.5c-1.1-1.1-.9-3.3-.6-4.8,1.1-.8,2.8-1.4,4-.8h0l-.2.2Z"/>
  <path class="st0" d="M185,233.3s.6.9.8,1.1c.3.2.9,0,1.1,0,.3.3.8,4,.6,4.7s-.8,0-.9.2c.3.6-1.6,3.1-2,2.9-.8,0-2-.8-2.5-1.4s0-.6-.2-1.1c-.3-.8-.3-.5-.5-1.7s-1.1-.5-.6-1.4l.6.6v-2.2c0-.6,1.7-1.9,1.9-1.9.5-.2,1.1-.2,1.7,0h0v.2Z"/>
  <path class="st0" d="M168.1,242.5l1.2,1.2v1.4c0,.5.5.2.6.5v2.2c0,.5-1.4,1.2-1.6,1.2-1.9.3-1.9-.6-2.2-.6h-1.6v-1.2c0-.2-1.1,0-1.2,0s0-.6,0-.9-.6-1.2-.6-1.4-.9,0-.5-.6c.5-.6.5,0,.6-.2s0-1.6,0-1.6h.9c.3,0,.2-.5.5-.6.6-.2,3.3.3,3.9.8h-.2v-.2Z"/>
  <path class="st4" d="M305.2,116.6c4-.6,7.1,2.3,5.6,6.5-1.6,3.9-9.2,8.4-12.7,4.8-3.6-3.6,2.8-10.6,7.1-11.2h0v-.2Z"/>
  <path class="st4" d="M143.4,81.3c-.3.3-2.5,1.6-2.9,1.2s-2-5-2.2-5.7c1.4-.3,2.9-1.2,4.3-.3s1.9,3.6.6,4.8h.2Z"/>
  <path class="st4" d="M135.9,72c0-1.1-2.3-5-2.2-5.6s.5-.3.8-.5c5.3-2.5,7.1,5.1,1.4,6.1Z"/>
  <path class="st4" d="M206.6,57.3l.9,9.6-4.8-.3c-.3-.3,2.8-8.2,3.3-9s0-.5.6-.3Z"/>
  <path class="st4" d="M89.1,290.6c2.8,1.9,4.7,3.4,2.5,6.7-2.2,3.3-5.9,3.1-8.1-.5l5.6-6.2Z"/>
  <path class="st4" d="M103.8,304c5.1-1.1,6.4,5.4,2.5,7.9-6.4,3.7-8.1-6.7-2.5-7.9Z"/>
  <path class="st4" d="M265.7,315.9l-.6-4.2c.3-.3,3.3,2.2,3.6,2.6,0,.3-2.8,1.9-2.9,1.7h0v-.2Z"/>
  <path class="st1" d="M278,25.1c100.6,51.4,134.1,180.9,69.6,275-65.2,94.9-199.7,109.9-284.3,31.2C-9.1,263.7-17,151.5,45.4,74.3,101.3,5.6,198.5-15.6,278,25.1h0ZM294.9,49.2C225.8-.2,131.4,6.3,70,64.7-3.8,134.7-3.6,252.9,70.9,322.6c84,78.4,218.8,57.1,275.3-42.1,44.7-78.7,22-179.2-51.2-231.3h0Z"/>
  <path class="st4" d="M280.7,43c63,45,82.7,131.5,44.2,199.4-48.6,85.5-164.8,103.8-237.2,36.3-64.1-59.9-64.4-161.9-.8-222.2C139.8,6.1,221,.5,280.7,43h0ZM293.4,67.8C231.2,4.6,128,13,76.7,84.9c-36.1,50.6-34.8,119.5,3.2,168.6,45.9,59.4,130.1,73.3,192.4,30.6,72.8-49.8,83.2-153.5,21.1-216.5h0Z"/>
  <path class="st3" d="M309.7,77.9c72.2,73.3,60.1,193.4-24.5,251.2-72.5,49.5-170,33.4-223.3-35.6-44.1-57-45.6-137.1-3.7-195.6C117.8,14.4,237.5,4.8,309.7,78.1h0v-.2ZM302.7,74.6C232.7,9.8,122.6,18.8,64.2,93.9c-59.2,76.1-38.8,186.5,42.4,237.1,71,44.1,163.5,27,214.1-38.8,51.1-66.3,43.2-160.7-18-217.5h0Z"/>
  <path class="st4" d="M302.7,74.6c61.2,56.8,69.1,151.2,18,217.5-50.6,65.8-143.1,82.9-214.1,38.8C25.4,280.4,5.1,170,64.2,93.9,122.6,18.8,232.7,9.8,302.7,74.6h0ZM176.9,46.9c-18.3,2.2-15.5,34,2,33.7,17.5-.3,10.7-1.7,10.7-5s-2.3-5.6-3.3-6.1c-.9-.5-2.2.8-3.4,1.1-10.6,3.3-11.8-15.5-2.8-15.2,2.9,0,3.4,2.2,5-1.7,1.6-3.9,1.4-3.9.3-5.4-1.1-1.6-6.5-1.9-8.5-1.6h0v.2ZM219,81.2l-4.7-32.6c-.5-.8-10.7-1.6-12.4-1.6l-11.8,30.6c.3,1.1,7.6,2.2,8.7.6,1.1-1.6,1.7-5.4,2.2-5.7,2.3-.3,4.7.6,7,.5.6,0,.8,5.7,1.4,6.8.6,1.1,3.1,1.4,3.7,1.4h5.9ZM241.4,70.9l-2.3-16c-.8-1.4-7.3-4-8.2-3.6l-10.7,30.1c.5,1.1,7,3.4,7.9,2.6.9-.8,3.9-11.6,4.7-13.2.6.3.3.9.5,1.4.9,4.8,1.2,9.8,2.3,14.6.5,1.1,7.6,3.6,8.5,2.9l10.2-29.7c0-.8-1.9-1.4-2.6-1.7-.8-.3-5-1.7-5.6-1.2l-4.8,13.5h0l.2.2ZM145.9,70.6c0-1.4,1.1-2.5,1.2-4,.5-5.6-3.3-9.9-8.8-9.5-5.6.5-10.6,3.6-13.7,5.1-3.1,1.6-1.7.8-1.9,1.1l12.3,28.7c.8.9,1.4.6,2.5.3,2.9-.8,12.7-5.1,14.7-7.3,5.3-5.4,1.1-14.6-6.2-14.4h-.2ZM263.9,93.3c-.2-.3-2.9-1.2-2.9-1.7,2.9-4,5.1-9.2,7.9-13.2,1.4-2,2.6,1.2,4.2.6s3.9-5,3.7-6.4-12.6-7.9-14.3-8.7c-1.7.6-5,5.4-3.4,7.1,1.6,1.7,2.8,1.2,2.6,1.6l-8.4,14.3c-.2,0-2.5-1.7-2.9-1.7-1.6-.3-5.6,5.6-3.9,7.1l13.2,7.9c2,.3,5.1-5.4,4.3-6.8h-.2v-.2ZM113.9,68.1c-.9,0-6.7,4-7.1,5s0,1.7.6,2.6c3.4,5.4,8.1,10.6,11.5,16,.8,2.3-3.1,5-5,3.4l-12.6-17.2c-1.4-.5-8.4,4.5-8.2,5.7,3.9,5.1,7.3,10.9,11.3,15.8,2.3,2.9,4.3,5.3,8.4,5.7,9.5.9,21-10.2,14.3-19.4l-12.6-17.4c0-.3-.5-.3-.8-.3h.2ZM286.2,99.8l3.9-15.8c0-1.6-5.3-6.7-6.5-6.4l-21.3,23.6c.8,1.2,5.1,5.9,6.4,5.6l9.8-10.6-3.7,15.8c0,1.2,5.1,6.1,6.5,5.9l21.3-23.1c.2-.9-5-5.9-6.4-5.4s-7.9,9.2-9.9,10.6h0v-.2ZM293.5,246.8c14.3-32.1,11.6-70.5-6.2-100.8-36.2-60.7-119.7-72.8-171.4-23.9-33.5,31.7-43.9,81.2-25.9,124l5.1,11c-2,.3-8.4.6-9.5,1.2-1.1.6-.5,1.1-1.2.9-1.9-.5-4-.9-5.9-1.4-1.9-.5-2.5-1.6-5.6-1.2-.3,0-.9-.2-.8.5.6,1.4,5.7,4,7.3,4.8,6.7,2.8,12.9,2.3,19.9,1.1,0,.8,0,.9.5,1.6,3.9,6.4,11,14.4,16.6,19.4,50,46,127.6,37.3,166.4-17.9.9-1.2,1.9-2.6,2.5-4,6.2.2,12.6.2,18.9.3,4.8,0,13.7,1.7,18,.2,4.3-1.6-.5-2.3-.6-2.8-.2-.6,0-1.4-.2-2.2-1.2-4.8-7.1-8.2-11.8-8.4-4.7-.2-5.1.6-7.3.6s-1.6-.5-2.3-.6-3.6.3-4.5,0c-.9-.3,0-1.9-2-2.2v-.3h0ZM82.1,94.4c-.9,0-5.4,5-5.9,6.1s0,.6,0,.9l21.7,20.3c.9.6,2,.8,2.9,0l10.1-10.7c.8-1.7-4.2-6.2-5.7-6.4s-4.2,4.5-5.3,5-.6.3-.9,0c-2-1.6-15.8-15.4-16.9-15.2ZM303.8,106.8c-9.5,1.2-18.9,11.3-15.8,21.3,4.7,14.7,21.4,12.7,29.7,2.3,8.2-10.2-1.2-25.3-14-23.6h.2ZM86,127.1c-5.1,5-17.5-3.6-11.6-10.2.6-.8,2.2-1.4,2.3-1.7.8-1.2-2.2-5.7-3.4-6.4-3.4-1.9-8.1,5-9.2,7.8-6.4,16.9,23.8,33.1,31.5,12.1,2.6-7.1-.9-7.8-7.5-7.6,0,2-.8,4.5-2.2,5.9h0v.2ZM88.4,287.7l-8.1,9.2c0,.3,0,.6.3.9s3.6,3.3,4,3.6c4.8,3.3,11.2-2.5,10.1-7.8-1.1-5.3-3.7-4.2-5.3-5.9-.3-.2-.6-.2-.9,0h-.2ZM285.6,304.6c1.4,1.2-1.2,3.4-2.5,3.7s-3.3-.3-2.8,1.7,3.4.6,4.3.2c5.1-2.3,4.5-9.5-1.1-8.4-5.6,1.1-4.3,2.6-5.4.9-1.1-1.7,1.4-2.9,2.5-3.3,1.1-.3,3.6,0,2.2-2-.9-1.4-4.8.5-5.7,1.6-1.9,2-2,5.3.6,6.5,2.8,1.2,6.2-2.6,7.9-1.1h0v.2ZM103.5,301.6c-5.7.9-8.1,9.5-2.6,12.4,5.4,2.9,8.2.2,9.6-3.9,1.7-4.7-2-9.5-7.1-8.5h.2ZM266.1,318.4c.2-.2,3.9-1.7,4.3-2.3,1.1-.3,1.9,1.4,2.9,1.4s1.6-.6,1.2-1.2-7.9-6.4-8.8-7.1-2.9-1.9-3.1.6l1.6,11.6c3.3,3.1,1.6-2.8,1.7-3.1h0l.2.2ZM125.4,316.5c.8.5,1.9,0,2-1.1,0-2.5-7-6.8-9.2-2.2-2,4.2,2.6,5,3.6,7,.9,2-2.5,2.5-3.9,1.2s-2.3-4-3.1-1.9c-1.1,3.3,6.4,7.6,9.2,3.7,2.8-3.9-2.6-5.4-3.6-7.6s2.3-2.6,4-.8.9,1.6.9,1.6h0ZM247.3,318.7l3.7,9c.6.9,2.2.9,2.5-.3-.9-3.3-2.6-6.4-3.7-9.5.8-.5,5.3-2.6,2.5-3.4-2.8-.8-7.1,2.9-8.8,3.4-1.2,3.3,2.3,1.6,3.9.8h0ZM233.9,321.2c-.6.2-.8.6-.8,1.2,0,.9,1.9,6.1,2.3,7.3.5,1.2.9,3.1,1.2,3.6.6.6,1.6.6,2-.2s-1.6-6.2-1.9-7.5-1.2-4-1.4-4.3-.9-.3-1.4-.3h-.2v.2ZM148.2,321.8c-.3-.3-1.7-.5-2,.2,0,2.2-3.4,10.1-2.9,11.6s1.4,1.1,2,.3,1.1-4.5,1.6-4.7c1.1.6,4.2.8,5.1,1.4.9.6-1.9,5.1-.3,5.7,1.6.5,1.7-.8,2-1.7s2.8-9.6,2.5-10.4-1.7-.6-2-.5-1.2,4-1.2,4.8l-5.7-1.6c-.3-.5,1.6-4.3.9-5.4h0l.2.2ZM221.3,335.6l-1.9-9.8c-.3-.9-1.7-.9-2.2-.2-.6,1.1,2,10.1,2.2,12,.9,1.1,7.6-.6,8.1-1.4s0-1.4-.3-1.6c-1.1-.3-5.6,1.1-5.9.9ZM165.4,326c-.5,0-.3.5-.5.8-.5,1.7-1.1,7-.9,8.7.6,5.1,8.4,5.9,10.1.9s1.6-8.2.9-9-1.6-.5-1.9,0c-.5.6-.6,6.2-1.1,7.6-.6,2.2-2.9,3.1-4.8,1.6-1.9-1.6-.9-2-.9-3.3s2.3-8.5-1.1-7.3h.2ZM204.3,338l-.9-9.8c-2.6-2.5-2.5.6-2.3,2.6.2,2,.5,4.5.6,6.4.2,1.2,0,3.4,1.6,3.4s4.7-.3,6.1-.6c1.4-.3,1.2-2.2.6-2.3-1.1-.3-5,.8-5.4.3h-.2ZM186.4,330.2h5.6c.5,0,1.2-1.4.3-2s-6.2-.5-7.1-.3c-.9.2-1.1.5-1.1.8v12.1l.5.5h7.6c.6,0,.6-2.2,0-2.2h-5.6v-3.6c1.2.3,5.6.9,5.4-1.1s-.6-1.1-.8-1.1h-4.7v-2.9h0l-.2-.2Z"/>
  <path class="st1" d="M95.1,257.1l-5.1-11c-18-42.8-7.8-92.2,25.9-124,51.7-48.7,135.2-36.8,171.4,23.9,18,30.1,20.5,68.5,6.2,100.8-2.6-.5-6.2,1.1-8.7,1.9,0-1.1.5-2.2.6-3.1,1.1-13.8-7.3-34.3-14.9-45.8-3.4-5.1-8.2-10.6-12.3-15.2-2.6-3.3-5.7-5.4-8.4-8.5-5-5.6-10.9-12.9-13.4-19.9-2.5-7-.3-2.3-.8-3.4-3.6-10.4-9.8-19.6-13.8-29.7-.5-1.1-.9-5.7-1.4-6.1s-.9,0-1.2,0c-.6.9-1.4,5.4-1.7,6.8-1.2-.5-2.2-5.6-3.4-5.4-1.2.2-1.7,6.5-1.6,7.9.5,2.8,2.2,3.4-1.4,5.1-1.7.8-3.3,1.1-5.1,2.2-1.9,1.1-2.9,2-4.3,4-1.4,2-11,3.4-13.5,4.2-2.5.8-2.8,1.1-2.8,2.3-.2,2.9,5.3,7.8,8.4,7.3-.9,2-2.6,4.2-3.4,6.1s2.2.5,2.6.5,1.2.6,1.9.8c3.9.8,4.7-.6,7.5-1.1,1.6-.3,3.1.5,4.7.3v5.9c.3,3.6-.8,5.1-.9,8.2-.2,3.1.5,2.6.3,3.6s-1.9,3.1-2.3,4.3c-.6,1.9-.3,6.2.2,8.2.5,2,1.1,1.9,1.4,2.9.5,1.7,0,3.6.5,5.3s.8,1.4.9,2.3c-1.6-.9-2.8,0-4.3-.3-1.6-.3-3.6-1.1-5.3-1.4-7.3-1.4-10.9-1.2-17.7,1.7-2.6,1.1-4.7,4-7,5.4s-9.6,2.5-12.3,1.7c-2.6-.8-3.6-1.6-4.5-2.6s-1.6-2.2-1.6-2.3c0-.8,1.9.2,2.2-.3-2.2-1.9-5.7-6.1-5.1-9s1.1-1.1,1.2-2.2c0-1.7-1.2-1.2-1.4-1.9-.3-.9.3-3.3.8-4.3s.8-.9.9-1.2c.5-.8.9-4.2,2.3-2.6-.3.8-.5,1.7-.8,2.5s-1.2.6-.6.9.9,0,1.1-.3l2.8-2.2c-.5,1.4,0,2.9.5,4.2,1.9-3.4,5.9-5.6,5.9-9.6l.6,2.2c.6.6,2-2.6,2.2-3.1.6-2.2.8-4.7.9-6.8.5,0,1.2,2.5,1.9,1.9.8-4.5-1.2-6.4-3.3-9.8s-2.3-6.4-5.4-4.2c-1.4.9-2,2.3-4,3.6-2.6,1.6-5.4,2.8-8.4,2,0-1.4,1.9-1.9,2.9-2.3s.8.2.6-.6h-4.7c-.8,0-1.4.6-2,1.2l2.2-3.3c-1.7.2-3.7.9-4.7,2.5-.9,1.6-.9,2.6-1.4,2.8-.6.3-1.4-.3-2.3-.5-4-.5-5.1,2.9-8.1,4.8-2.3,3.6,3.3,5.7,3.3,8.1s-1.6,5-2,6.4-.5,4.2-.8,4.3-2.2-.6-2.8.9.6,1.7.9,2-2.5,3.7-2.6,4.7h.9c-1.2,1.6-1.9,4-2.9,5.6-1.1,1.6-4.8,4.2-6.1,6.1-1.2,1.9-1.7,2.5-3.1,4.3s-3.6,5-5.4,7.3v.5c.3-.3,1.6-1.1,1.2,0s-2.3,2.8-2.8,3.6c-1.2,1.9-3.1,4.3-3.9,6.4-1.6,3.9-5.3,16.1-4.5,19.9.8,3.7.6.2.8.8.3.9,0,2,.3,3.1s1.6,3.4,1.1,4.5c-1.1,2.6-5.4,3.3-7.9,3.7h.2v-.2Z"/>
  <path class="st2" d="M95.1,257.1c2.5-.5,6.8-1.1,7.9-3.7s-.9-3.1-1.1-4.5,0-2.2-.3-3.1c-.3-.9-.8-.5-.8-.8-.8-3.7,2.9-16,4.5-19.9,1.6-3.9,2.6-4.5,3.9-6.4,1.2-1.9,2.6-3.1,2.8-3.6.3-.9-.9-.2-1.2,0v-.5c1.9-2.3,3.6-4.8,5.4-7.3,1.9-2.5,1.9-2.2,3.1-4.3,1.2-2.2,4.7-4,6.1-6.1,1.4-2,1.6-4,2.9-5.6h-.9c0-.8,2.9-4.2,2.6-4.7s-1.7,0-.9-2,2.6-.9,2.8-.9.5-3.6.8-4.3c.3-1.6,2-5.3,2-6.4,0-2.3-5.7-4.5-3.3-8.1,2.9-1.9,4-5.3,8.1-4.8s1.7.8,2.3.5.9-2.2,1.4-2.8c.9-1.4,2.9-2.3,4.7-2.5l-2.2,3.3c.5-.6,1.1-1.2,2-1.2h4.7c0,.9,0,.5-.6.6-1.1.5-2.8.9-2.9,2.3,2.9.8,5.9-.5,8.4-2,1.9-1.1,2.6-2.6,4-3.6,3.1-2.2,4.2,2.3,5.4,4.2,2,3.4,4.2,5.3,3.3,9.8-.5.6-1.4-1.9-1.9-1.9,0,2.2-.2,4.7-.9,6.8s-1.6,3.9-2.2,3.1l-.6-2.2c0,4.2-4,6.4-5.9,9.6-.6-1.2-.9-2.8-.5-4.2l-2.8,2.2c0,.2-.9.5-1.1.3-.5-.5.6-.6.6-.9.3-.8.5-1.7.8-2.5-1.6-1.6-2,1.9-2.3,2.6s-.9,1.1-.9,1.2c-.5.9-1.1,3.4-.8,4.3.3.9,1.6,0,1.4,1.9s-1.1,1.2-1.2,2.2c-.6,3.1,2.9,7.1,5.1,9-.3.5-2.2-.6-2.2.3s1.2,2,1.6,2.3c.9.9,3.3,2.3,4.5,2.6,2.6.6,9.9-.3,12.3-1.7,2.3-1.4,4.3-4.3,7-5.4,6.8-2.9,10.4-3.1,17.7-1.7,1.7.3,3.9,1.2,5.3,1.4,1.4.2,2.8-.6,4.3.3,0-.9-.8-1.4-.9-2.3-.3-1.7,0-3.6-.5-5.3-.3-.9-1.1-1.6-1.4-2.9-.5-2-.9-6.4-.2-8.2.8-1.9,2.2-3.6,2.3-4.3s-.3-2.3-.3-3.6c.2-3.1,1.2-4.7.9-8.2-.3-3.6,0-3.9,0-5.9-1.6,0-3.1-.5-4.7-.3-2.8.5-3.6,2-7.5,1.1-.6,0-1.2-.8-1.9-.8s-3.6,1.7-2.6-.5c.9-2.2,2.5-4.2,3.4-6.1-3.1.3-8.5-4.3-8.4-7.3s1.9-2,2.8-2.3c2.5-.8,12.4-2.5,13.5-4.2,1.1-1.7,2-2.8,4.3-4s3.3-1.4,5.1-2.2c3.6-1.7,1.9-2.3,1.4-5.1s.2-7.6,1.6-7.9c1.4-.3,2.2,4.8,3.4,5.4.3-1.4,1.1-5.9,1.7-6.8.6-.9.9-.3,1.2,0,.5.3.9,5,1.4,6.1,4,10.2,10.1,19.4,13.8,29.7.5,1.2.5,2.5.8,3.4,2.3,7.1,8.4,14.3,13.4,19.9,5,5.6,5.7,5.3,8.4,8.5,4,4.8,8.8,10.1,12.3,15.2,7.5,11.5,16,32,14.9,45.8,0,1.1-.6,2-.6,3.1,2.6-.8,6.1-2.3,8.7-1.9,2,.3,1.7,2,2,2.2.9.3,3.3-.2,4.5,0,1.2.2,1.4.6,2.3.6,2.2,0,5-.8,7.3-.6,4.7,0,10.6,3.7,11.8,8.4.2.8,0,1.7.2,2.2s3.6,1.7.6,2.8c-4.3,1.4-13.2,0-18-.2-6.4,0-12.6,0-18.9-.3-9-.3-23.1-1.9-31.5-.5-6.5,1.1-15.1.8-21.7.2-6.7-.6-4.3-.3-3.3-2.2s3.7-2.9,4.2-3.1c.9-.3,3.9-.8,5.1-.9s1.4.3,2.3.2,2.5-1.6,3.9-1.1c.5-1.7-1.1-2.9-1.2-4.3-.2-1.4.3-2,0-2.5-.3-.8-2.9-3.3-3.7-4.5s-3.1-6.1-3.4-7.8c-.3-1.6.2-3.1-.6-4.7-1.6-1.1-3.4-3.3-4.8-4.2-1.4-.9-2.3-.8-3.1-1.9-.6,0-.3,0-.5.5-.5,1.2-.3,3.7-.8,5.3-.5,1.6-1.6,4.2-1.9,5.9-.8,3.3-.6,7.5-1.2,10.9-.5,2.3-2.3,1.9-3.4,2.9-1.1,1.1-1.9,2.9-2.6,3.9s-4.2,2.6-4.8,2.9-7.8.5-8.4,0c-1.4-.8,0-3.1.8-3.7,1.6-1.2,4-.5,5-1.4.9-.9,2.5-4.2,2.9-5.1,3.1-6.8,2.6-14.3,3.1-21.7,0-2.2,1.4-8.4,0-10.1s-2.8-.8-3.7-1.1c-3.1-.9-5.6-2.2-8.7-2.9-1.1-.3-6.4-2.8-7-3.4-.6-.6,0-.8-.3-.9s-3.3-.5-2.5-.9c.8-.5.8,0,.5-.6-.3-.6-.9-.6-1.1-.6-1.9-.2-2.3.6-3.7.9-1.4.3-4.5.6-6.2.2s-.9-.6-1.4-.6c-2.2-.5-2.2,1.9-3.1,3.1-1.2,2.2-4.2,2.8-6.4,3.4,0,.5.9,0,.6.8s-4.8,3.4-5.9,3.7-2.5.5-2.6.6c-.6.6.8.5.6,1.1-.6,1.2-6.4,3.6-7.8,3.9s-2.2,0-2.8.6c-.8,1.1-2.5,8.2-2.9,8.7s-.8-.3-.9-.3c0,0-.8,2.9-1.1,3.6s-.9,1.4-1.1,2c0,1.1.5,2.6.3,3.9s-.6.5-.6.6c-.3,1.1.3,2.2.3,3.3v5.3l-.9-.3c.5,2.5,0,5.7.5,8.2.5,2.5,3.1,2.5,4,4.3,2.2,4-5.3,3.4-7.5,2.6-3.4-1.2-2.3-3.4-3.6-5.4s-.9-.5-1.2-1.2-1.1-4-1.1-4.7v-5l-.9.6v-2.5c-.8.3-.8.6-1.1-.3l-7.3,9.3c0,.3-.3.8,0,.9.6.9,8.5-.2,7,3.3-.5,1.1-1.6.9-1.9,1.4-.9,1.1.3,1.9-2.5,2.8-3.7,1.2-12.3.5-16.5.5s-.9.3-1.4.3c-2.2,0-4.7-2.9-5.7-2.9-2.9.6-5.9,1.6-8.8,2.2-7,1.2-13.2,1.6-19.9-1.1-1.6-.6-6.8-3.4-7.3-4.8s.5-.5.8-.5c3.1-.3,3.3.6,5.6,1.2,2.3.6,4,.9,5.9,1.4.8.2.8-.8,1.2-.9,1.1-.5,7.5-.8,9.5-1.2h0v.2Z"/>
  <path class="st1" d="M99.5,262.8c2.9-.5,5.9-1.4,8.8-2.2,1.1,0,3.6,2.9,5.7,2.9s.9-.3,1.4-.3c4.2,0,12.7.8,16.5-.5,2.8-.9,1.7-1.7,2.5-2.8s1.4-.3,1.9-1.4c1.6-3.4-6.4-2.3-7-3.3s0-.6,0-.9l7.3-9.3c.3.8.3.6,1.1.3v2.5l.9-.6v5c0,.5.8,4,1.1,4.7.5.8,1.1.8,1.2,1.2,1.2,1.9,0,4,3.6,5.4,3.6,1.4,9.6,1.4,7.5-2.6-2.2-4-3.6-1.9-4-4.3-.5-2.5,0-5.6-.5-8.2l.9.3v-5.3c0-1.7-.6-2.2-.3-3.3s.5,0,.6-.6c0-1.4-.5-2.9-.3-3.9s.8-1.2,1.1-2,.9-3.6,1.1-3.6.8.5.9.3c.6-.5,2.2-7.5,2.9-8.7.6-.8,1.9-.3,2.8-.6,1.6-.5,7.3-2.6,7.8-3.9s-1.2-.5-.6-1.1,1.9-.3,2.6-.6c1.1-.5,5.6-2.9,5.9-3.7s-.8-.2-.6-.8c2.3-.6,5.1-1.2,6.4-3.4s.8-3.6,3.1-3.1c2.3.5.9.6,1.4.6,1.6.5,4.5.2,6.2-.2,1.7-.3,1.9-1.1,3.7-.9,1.9.2.9.6,1.1.6.5.6-.3.5-.5.6-.8.6,2.3.8,2.5.9s0,.6.3.9c.6.6,5.9,3.3,7,3.4,3.1.9,5.6,2.2,8.7,2.9,1.1.3,2.9,0,3.7,1.1,1.2,1.7,0,7.9,0,10.1-.3,7.5,0,14.7-3.1,21.7-.5,1.1-2.3,4.5-2.9,5.1s-3.4,0-5,1.4c-1.6,1.4-2.2,2.9-.8,3.7,1.4.8,7.5.2,8.4,0,.9-.2,4.3-2.3,4.8-2.9.9-.9,1.7-3.1,2.6-3.9s3.1-.6,3.4-2.9c.6-3.4.5-7.5,1.2-10.9s1.6-4,1.9-5.9c.3-1.9.2-4,.8-5.3.6-1.2,0-.5.5-.5.8.9,2.2,1.2,3.1,1.9,1.4,1.1,3.3,3.1,4.8,4.2.8,1.4.3,3.1.6,4.7.3,1.7,2.3,6.2,3.4,7.8,1.1,1.6,3.4,3.7,3.7,4.5s-.2,1.7,0,2.5c.2,1.6,1.6,2.8,1.2,4.3-1.4-.5-2.8.9-3.9,1.1s-1.6-.3-2.3-.2c-1.2,0-4.2.5-5.1.9-.9.5-4,2.9-4.2,3.1-1.1,1.9,1.9,2,3.3,2.2,6.8.5,15.4.8,21.7-.2,8.2-1.4,22.5.3,31.5.5-.6,1.4-1.6,2.8-2.5,4-38.8,55.1-116.4,63.8-166.4,17.9-5.4-5.1-12.7-13-16.6-19.4-3.9-6.4-.6-.8-.5-1.6v.3h-.2ZM177.9,227.9h-3.6v1.6c0,.3-1.1.8-1.2,1.1v2.9c0,.6.6.5.6.6v1.4c0,.5,1.9,2,2,2,1.2.3,2.6-.2,3.3-1.2s0-.6.2-1.1.5,0,.5-.3v-2.6c0-.5-.5-.2-.5-.3-.3-.8-1.2-2.3-1.2-2.5v-1.6h0ZM168.7,232.1c-1.2-.6-2.9,0-4,.8-.3,1.6-.5,3.7.6,4.8,1.1,1.1.8.3.9.5,1.1,1.1,1.4,2,3.1,1.7l-.6.6c1.1.3,1.1-.5,1.4-.6s.6,0,.9,0c1.7-1.1,0-4.7,0-6.5-.8-.9-1.2-.5-2.2-.6s-.2-.5-.3-.5h0l.2-.2ZM185,233.3c-.5-.2-1.1-.2-1.7,0s-1.9,1.9-1.9,1.9v2.2l-.6-.6c-.5.9.6,1.2.6,1.4.2,1.2.2.9.5,1.7s0,.8.2,1.1c.5.6,1.7,1.2,2.5,1.4.8.2,2.3-2.5,2-2.9,0,0,.8,0,.9-.2,0-.6-.3-4.3-.6-4.7-.3-.3-.8,0-1.1,0s-.6-.9-.8-1.1h0v-.2ZM168.1,242.5c-.6-.3-3.3-.9-3.9-.8s-.2.5-.5.6-.9,0-.9,0v1.6c0,.3-.6.2-.6.2-.5.6.5.6.5.6,0,0,.6,1.2.6,1.4v.9h1.2c.2,0,0,1.1,0,1.2s1.2,0,1.6,0,.3.9,2.2.6c1.9-.3,1.6-1.2,1.6-1.2.2-.5.2-1.7,0-2.2s-.5-.2-.6-.5v-1.4c0-.5-1.2-1.2-1.2-1.2h.2v.2ZM179,241.9c-1.1-.5-3.4,0-4.3.6-.9.6-.3.6-.6.9s-1.2,0-.9.9.8,0,.6.5c-1.1.2-1.1.9-1.2,1.7-.2.8-.5,0-.5.3v1.4c0,.5-.6,0-.6.6v4.8c0,.6.5.2.5.3,0,.3,0,.8.2.9.6.9,2.3.9,3.3.6s.6-.9.9-1.1.8,0,1.1-.2c.3-.3,1.9-2.2,2-2.2.6-.2,1.1,0,1.6,0s.2-.5.5-.6c1.1-.3,2.9.2,4.2,0,1.2-.2.5-.6.6-.6h1.6v-1.6c0-.3.8,0,.6-.6s-.5,0-.5-.3c-1.4-2.8-3.9-4.3-6.7-5.4s-1.6-.8-2-.9h0l-.2-.2ZM186.9,262.3c-.5-.2-2.5-.2-3.1,0-.6.2-.3.5-.6.6s-.9,0-.9,0v1.6c0,.3-.9.6-1.1.9-.8,1.1-.5,2.2-.8,3.3-.3,1.1-.5.2-.6.5v3.3c0,.5.5.2.6.5.2.8,0,1.4.3,2.5s1.6,2.6,1.7,2.6c.3.2.8,0,.9.2s.6,1.1.9,1.1h2.6c.6,0,.6-.9.9-1.1.8-.5,1.1-.3,2.2-1.2,1.1-.9.6,0,.8,0,.2-.2,0-.8,0-.9.2-.3.5-.3.6-.5.2-.8-.2-2,0-2.9s.9-.2.6-1.6c-.3-1.4-.6,0-.6-.6-.2-1.7.2-1.7-.5-3.3-.6-1.6-1.2-3.3-2.6-4-1.4-.8-.6,0-.9,0s-.3-.5-.3-.5v-.3h-.2ZM203.2,265.9c-.5-.2-3.1-.2-3.7,0s-.3.5-.6.6-.6,0-.9,0c-2.2,1.4-3.6,4.5-4.3,7s-.5.3-.6.5v4.3c0,.5.5.2.5.3.5,1.1.9,2.8,2,3.4s.6,0,1.1.2,0,.5.3.5h2.6c.5,0,.2-.5.3-.5,1.7-.8,3.4-1.6,4.7-3.3,1.2-1.7,0-.8.2-1.1.9-1.4.6.2,1.1-2.3.5-2.5.6,0,.6-.6,0-1.1-.2-2.6,0-3.7l.6.6c.5-.9-.6-1.2-.6-1.4,0-.6.2-1.4,0-2.2s-2.6-1.9-2.9-2.3h-.2ZM175.4,274.5c-.8-.5-3.1-.9-3.9-.8-.8.2-.2.5-.5.6s-.6,0-.9,0-1.7,1.7-1.9,1.9c-.2.6,0,1.1,0,1.6s-1.2,1.6-1.2,1.9v2.3c0,.3.5.2.6.5v2c0,.6.5.2.6.5v1.6c0,.6,2.8,2.9,2.9,2.9s1.2.6,1.4.6h1.4c.5,0,0,.6.3.6.6,0,.3-.5.6-.6s.9,0,1.6,0,1.7-1.7,1.9-1.9c.2-.3,0-.6,0-.9s.5-.2.6-.6v-6.7c0-.8-.5-.2-.6-.5v-1.6c0-.6-.9-.6-1.1-.8s0-.8-.2-1.1-1.7-1.7-1.9-1.9v.3h.2ZM210.5,281c-.5-.2-4-.2-4.5,0s-.2.5-.3.5c-.3,0-.8,0-1.1.2-.8.5-3.3,3.4-3.6,4.2-.3.8-1.2,2.6-1.4,2.8v2.9c0,.5,1.1,2,1.2,2.3s0,.9,0,.9h.9c.3,0,0,.6.6.6h4.8c.6,0,.2-.5.3-.5.6-.3,3.1-1.6,3.4-2s0-.8.2-.9,1.1-.6,1.1-.9v-1.4c0-.5.5-.2.6-.5v-5.4c0-.8-.5-.3-.6-.6s0-.6,0-.9c-.5-.8-.9-.6-1.6-.8-.6-.2,0-.3-.2-.5h0ZM191.7,286.4c-.5-.2-7-.3-7.6,0s-.2.5-.5.6h-1.4c-.5,0-.6.9-.9,1.1s-.8,0-1.1.2c-.3.3-1.9,2.2-2,2.2-.3.2-1.1,0-1.1,0v1.1c0,.3-2.8,2.3-2.8,2.6-.2.5,0,2,0,2.8s-.8,1.2-1.2,3.1-.9,0-.6,1.2.6.2.6.5c.2.8.2,2,.8,2.8.6.8,1.1,1.2,1.2,1.2.5.2,5.9.2,6.7,0s.3-.6.9-.6h4.2c.6,0,2,1.1,2.3,1.2,1.2.5,3.9.6,4.5,1.9s0,1.1,0,1.1h.9c1.2.5,1.1.3,2.5.6,1.4.3,0,.9,1.2.6s.2-.6.5-.6h2c.6,0,1.2-1.2,1.4-1.2.2-.6,0-1.1,0-1.6s.6,0,.6-.6v-2.9c0-.5-.5-.2-.6-.5-.5-2-.5-3.1-1.2-5.1-.9-2.5-1.9-3.9-3.4-6.2-1.6-2.3,0-.8-.2-1.1-.6-.9-3.4-3.1-4.2-3.6-.8-.5-1.1-.6-1.2-.6h-.3v-.2Z"/>
  <path class="st3" d="M286.2,99.8c2-1.4,8.4-10.1,9.9-10.6,1.6-.5,6.5,4.5,6.4,5.4l-21.3,23.1c-1.2,0-6.4-4.7-6.5-5.9l3.7-15.8-9.8,10.6c-1.4.3-5.7-4.3-6.4-5.6l21.3-23.6c1.2,0,6.4,4.8,6.5,6.4l-3.9,15.8h0v.2Z"/>
  <path class="st3" d="M241.4,70.9l4.8-13.5c.6-.6,4.7.8,5.6,1.2.9.5,2.5.8,2.6,1.7l-10.2,29.7c-.9.6-8.1-2-8.5-2.9-1.1-4.8-1.2-9.8-2.3-14.6-1.1-4.8,0-.9-.5-1.4-.9,1.6-4.2,12.9-4.7,13.2-1.1.6-7.5-1.6-7.9-2.6l10.7-30.1c.9-.5,7.5,2.2,8.2,3.6l2.3,16h0l-.2-.2Z"/>
  <path class="st3" d="M303.8,106.8c12.7-1.7,22,13.4,14,23.6-8.4,10.4-25,12.4-29.7-2.3-3.3-9.9,6.4-20,15.8-21.3h-.2ZM305.2,116.6c-4.3.6-11.5,6.8-7.1,11.2,3.6,3.6,11.2-.8,12.7-4.8,1.6-4-1.4-7-5.6-6.5h0v.2Z"/>
  <path class="st3" d="M113.9,68.1c.3,0,.6,0,.8.3l12.6,17.4c6.7,9.2-4.8,20.3-14.3,19.4-4-.5-6.1-2.8-8.4-5.7-3.9-5-7.5-10.7-11.3-15.8,0-1.2,6.8-6.2,8.2-5.7l12.6,17.2c1.9,1.6,5.7-1.1,5-3.4-3.4-5.4-8.2-10.6-11.5-16-3.3-5.4-1.4-1.6-.6-2.6s6.2-4.8,7.1-5h-.2Z"/>
  <path class="st3" d="M145.9,70.6c7.3,0,11.5,9.2,6.2,14.4-5.3,5.3-11.8,6.4-14.7,7.3-2.9.9-1.6.5-2.5-.3l-12.3-28.7c0-.5,1.4-.9,1.9-1.1,3.1-1.6,10.4-4.8,13.7-5.1,5.7-.5,9.5,4,8.8,9.5-.6,5.4-.9,2.6-1.2,4h.2ZM135.9,72c5.7-.9,3.9-8.5-1.4-6.1s-.6,0-.8.5c0,.6,2,4.5,2.2,5.6ZM143.4,81.3c1.2-1.2.8-3.9-.6-4.8-1.4-.9-2.9,0-4.3.3,0,.8,1.9,5.6,2.2,5.7.5.3,2.5-.9,2.9-1.2h-.2Z"/>
  <path class="st3" d="M219,81.2h-5.9c-.6,0-3.4-.8-3.7-1.4-.6-1.1-.8-6.7-1.4-6.8-2.3,0-4.8-.8-7-.5-.5.3-1.6,4.8-2.2,5.7-1.1,1.6-8.4.5-8.7-.6l11.8-30.6c1.7,0,11.8.8,12.4,1.6l4.7,32.6h0ZM206.6,57.3c-.6,0-.5,0-.6.3-.5.8-3.6,8.7-3.3,9l4.8.3-.9-9.6Z"/>
  <path class="st3" d="M176.9,46.9c2,0,7.3,0,8.5,1.6,1.2,1.6.2,3.9-.3,5.4-1.6,3.9-2,1.9-5,1.7-9-.3-7.8,18.5,2.8,15.2,10.6-3.3,2.3-1.6,3.4-1.1s3.3,5,3.3,6.1c0,3.4-8.1,5-10.7,5-17.5.3-20.3-31.7-2-33.7h0v-.2Z"/>
  <path class="st3" d="M86,127.1c1.4-1.4,2.3-4,2.2-5.9,6.4,0,10.1.3,7.5,7.6-7.8,20.8-37.9,4.8-31.5-12.1,1.1-2.8,5.7-9.5,9.2-7.8,3.4,1.7,4.2,5.1,3.4,6.4s-1.7.9-2.3,1.7c-5.9,6.7,6.5,15.4,11.6,10.2h0v-.2Z"/>
  <path class="st3" d="M263.9,93.3c.9,1.6-2.3,7.1-4.3,6.8l-13.2-7.9c-1.7-1.6,2.3-7.5,3.9-7.1s2.8,1.9,2.9,1.7l8.4-14.3s-2.5-1.2-2.6-1.6c-1.4-1.6,1.7-6.4,3.4-7.1,1.9.6,14.3,7.8,14.3,8.7.2,1.4-2.3,5.7-3.7,6.4-1.4.6-2.8-2.6-4.2-.6-2.8,4-5,9.2-7.9,13.2,0,.5,2.8,1.4,2.9,1.7h.2v.2Z"/>
  <path class="st3" d="M82.1,94.4c1.1,0,14.9,13.7,16.9,15.2.3.3.6,0,.9,0,1.1-.5,3.7-5.1,5.3-5s6.5,4.7,5.7,6.4l-10.1,10.7c-.9.8-2,.5-2.9,0l-21.7-20.3v-.9c.3-1.1,5-5.9,5.9-6.1Z"/>
  <path class="st3" d="M88.4,287.7h.9c1.6,1.7,4.8,3.6,5.3,5.9,1.1,5.3-5.3,11-10.1,7.8-.3-.3-3.9-3.4-4-3.6s-.3-.5-.3-.9l8.1-9.2h.2ZM89.1,290.6l-5.6,6.2c2.2,3.6,5.6,4.2,8.1.5,2.5-3.7.3-5-2.5-6.7Z"/>
  <path class="st3" d="M103.5,301.6c5.1-.9,8.8,3.9,7.1,8.5-1.4,4-5.9,5.9-9.6,3.9-3.7-2-3.1-11.5,2.6-12.4h-.2ZM103.8,304c-5.7,1.2-3.9,11.6,2.5,7.9,3.9-2.3,2.6-8.8-2.5-7.9Z"/>
  <path class="st3" d="M148.2,321.8c.6,1.1-1.1,5-.9,5.4l5.7,1.6c0-.6,1.1-4.7,1.2-4.8.3-.3,1.9,0,2,.5s-2,9.2-2.5,10.4-.6,2.3-2,1.7c-1.7-.6,1.1-5.1.3-5.7-.8-.6-4-.8-5.1-1.4-.6,0-.9,3.9-1.6,4.7-.6.8-1.9.5-2-.3-.5-1.6,2.8-9.5,2.9-11.6.3-.6,1.9-.5,2-.2h0l-.2-.2Z"/>
  <path class="st3" d="M186.4,330.2v2.9h4.7c.2,0,.8.8.8,1.1.2,2-4.3,1.4-5.4,1.1v3.6h5.6c.6,0,.6,2.2,0,2.2h-7.6l-.5-.5v-12.1c0-.2.8-.6,1.1-.8.9-.2,6.5,0,7.1.3.9.6.2,2-.3,2h-5.6l.2.2Z"/>
  <path class="st3" d="M125.4,316.5s-.5-1.1-.9-1.6c-1.7-1.9-5.3-1.9-4,.8,1.2,2.6,6.5,3.4,3.6,7.6-2.9,4.2-10.2-.5-9.2-3.7s2.8,1.6,3.1,1.9c1.4,1.2,5.3,1.7,3.9-1.2-1.4-2.9-5.6-2.8-3.6-7,2.2-4.5,9.3-.3,9.2,2.2-.2,2.5-1.2,1.6-2,1.1h0Z"/>
  <path class="st3" d="M285.6,304.6c-1.7-1.6-5,2.3-7.9,1.1-2.6-1.2-2.6-4.7-.6-6.5,2-1.9,4.8-2.9,5.7-1.6,1.2,1.9-1.4,1.7-2.2,2s-3.4,1.9-2.5,3.3c.9,1.4,3.9-.6,5.4-.9,5.6-1.2,6.2,6.1,1.1,8.4-5.1,2.3-3.9,1.2-4.3-.2-.5-1.4,1.7-1.4,2.8-1.7,1.1-.3,3.9-2.5,2.5-3.7h0v-.2Z"/>
  <path class="st3" d="M165.4,326c3.3-1.1,1.1,5.7,1.1,7.3s-.2,2.5.9,3.3c1.7,1.6,4.2.5,4.8-1.6.6-2,.6-7,1.1-7.6s1.6-.5,1.9,0c.5.8-.6,7.9-.9,9-1.7,4.8-9.5,4.2-10.1-.9-.2-1.9.5-7,.9-8.7s0-.6.5-.8h-.2Z"/>
  <path class="st3" d="M266.1,318.4c-.3.3,1.4,6.2-1.7,3.1l-1.6-11.6c.2-2.5,1.7-1.7,3.1-.6s8.8,6.5,8.8,7.1-.6,1.4-1.2,1.2c-1.1,0-1.9-1.7-2.9-1.4-.5.6-4.2,2.2-4.3,2.3h0l-.2-.2ZM265.7,315.9c.2.2,2.9-1.2,2.9-1.7-.3-.5-3.4-2.8-3.6-2.6l.6,4.2h0v.2Z"/>
  <path class="st3" d="M247.3,318.7c-1.6.8-5.3,2.6-3.9-.8,1.7-.5,7.5-3.7,8.8-3.4,2.8.8-1.7,2.9-2.5,3.4,1.2,3.1,2.9,6.2,3.7,9.5-.3,1.2-1.9,1.2-2.5.3l-3.7-9h0Z"/>
  <path class="st3" d="M204.3,338c.6.5,4.5-.5,5.4-.3.9.2.9,2-.6,2.3-1.6.3-4.7.6-6.1.6s-1.4-2.2-1.6-3.4c-.3-1.9-.6-4.5-.6-6.4s-.3-5.1,2.3-2.6l.9,9.8h.2Z"/>
  <path class="st3" d="M221.3,335.6c.2.2,4.7-1.2,5.9-.9s.6,1.1.3,1.6c-.5.8-7.1,2.5-8.1,1.4-.3-1.9-2.9-10.9-2.2-12,.8-1.1,1.9-.6,2.2.2l1.9,9.8Z"/>
  <path class="st3" d="M233.9,321.2c.5,0,1.1-.2,1.4.3s1.2,3.6,1.4,4.3c.5,1.2,2.3,6.7,1.9,7.5s-1.4.8-2,.2-.9-2.8-1.2-3.6c-.5-1.4-2.3-6.4-2.3-7.3s.3-1.1.8-1.2h.2v-.2Z"/>
  <path class="st0" d="M191.7,286.4s1.1.6,1.2.6c.8.5,3.6,2.8,4.2,3.6s0,.8.2,1.1c1.6,2.3,2.5,3.7,3.4,6.2.8,2,.8,3.1,1.2,5.1s.5.2.6.5v2.9c0,.5-.6.5-.6.6v1.6c0,.6-1.2,1.2-1.4,1.2h-2c-.6,0-.2.5-.5.6-1.1.3-.9-.6-1.2-.6-1.4-.3-1.1,0-2.5-.6-1.4-.6-.8,0-.9,0s0-.8,0-1.1c-.6-1.4-3.3-1.6-4.5-1.9s-2.2-1.1-2.3-1.2h-4.2c-.6,0-.3.6-.9.6h-6.7c-.5,0-1.1-1.1-1.2-1.2-.5-.8-.5-1.9-.8-2.8-.3-.9-.5-.2-.6-.5-.3-1.1.6-.9.6-1.2.5-1.9.9-2.2,1.2-3.1s0-2.3,0-2.8,2.8-2.3,2.8-2.6c.2-.3,0-1.1,0-1.1h1.1c.3,0,1.6-2,2-2.2.5-.2.8,0,1.1-.2s.6-1.1.9-1.1h1.4c.5,0,.2-.5.5-.6h7.9v.2Z"/>
  <path class="st0" d="M203.2,265.9c.5.6,2.8,1.9,2.9,2.3s0,1.4,0,2.2,1.1.5.6,1.4l-.6-.6c0,1.2.2,2.6,0,3.7-.2,1.1-.6.5-.6.6-.5,2.5-.2.9-1.1,2.3-.9,1.4,0,.8-.2,1.1-1.2,1.6-2.8,2.5-4.7,3.3s0,.5-.3.5h-2.6c-.5,0-.2-.5-.3-.5-.3,0-.8,0-1.1-.2-1.1-.6-1.6-2.3-2-3.4s-.5,0-.5-.3v-4.3c0-.5.5-.2.6-.5.8-2.3,2.2-5.4,4.3-7,2.2-1.6.6,0,.9,0s.2-.5.6-.6,3.1,0,3.7,0h.2Z"/>
  <path class="st0" d="M186.9,262.3s0,.3.3.5.6,0,.9,0c1.2.8,2,2.6,2.6,4s.3,1.7.5,3.3c.2,1.6.6.5.6.6.3,1.4-.5,1.2-.6,1.6-.2.8.2,2,0,2.9s-.5,0-.6.5,0,.8,0,.9-.6,0-.8,0c-1.1.9-1.2.6-2.2,1.2s-.6,1.1-.9,1.1h-2.6c-.6,0-.6-.9-.9-1.1s-.8,0-.9-.2-1.6-2.5-1.7-2.6c-.3-.9,0-1.7-.3-2.5s-.5-.2-.6-.5v-3.3c0-.5.5-.2.6-.5.3-1.1,0-2.3.8-3.3.8-.9,1.1-.6,1.1-.9v-1.6h.9c.3,0,0-.6.6-.6h3.1v.3h.2Z"/>
  <path class="st0" d="M175.4,274.5l1.9,1.9c.2.2,0,.8.2,1.1s.9.6,1.1.8c.2.6,0,1.1,0,1.6s.5.2.6.5c.2.8,0,5.7,0,6.7s-.5.3-.6.6,0,.6,0,.9-1.7,1.7-1.9,1.9c-.6.2-1.1,0-1.6,0s0,.8-.6.6,0-.6-.3-.6h-1.4c-.5,0-1.2-.6-1.4-.6s-2.9-2.8-2.9-2.9c-.2-.6,0-1.1,0-1.6s-.6-.2-.6-.5v-2c0-.6-.5-.2-.6-.5v-2.3c0-.5,1.2-1.7,1.2-1.9v-1.6c0-.6,1.7-1.7,1.9-1.9.3-.2.6,0,.9,0s.3-.5.5-.6c.9-.2,3.1.3,3.9.8v-.3h-.2Z"/>
  <path class="st0" d="M210.5,281s0,.3.2.5c.6.2,1.1,0,1.6.8.5.8,0,.6,0,.9s.5.2.6.6v5.4c0,.6-.5.2-.6.5v1.4c0,.5-.9.6-1.1.9s0,.8-.2.9c-.3.5-2.8,1.7-3.4,2s0,.5-.3.5h-4.8c-.8,0-.3-.5-.6-.6s-.9,0-.9,0v-.9c0-.3-1.1-2.2-1.2-2.3v-2.9c0-.5,1.1-2.5,1.4-2.8.5-.8,2.8-3.7,3.6-4.2s.6,0,1.1-.2,0-.5.3-.5h4.5Z"/>
  <path class="st0" d="M179,241.9c.5.2,1.6.9,2,.9,2.8,1.1,5.3,2.8,6.7,5.4s.5,0,.5.3c.2.6-.5.3-.6.6s0,1.6,0,1.6h-1.6c-.3,0,0,.6-.6.6-1.2.2-3.1-.3-4.2,0s-.2.5-.5.6h-1.6c-.6,0-1.6,2-2,2.2s-.8,0-1.1.2-.6,1.1-.9,1.1c-.9.2-2.8.2-3.3-.6-.5-.8,0-.6-.2-.9s-.5,0-.5-.3v-4.8c0-.8.6-.5.6-.6v-1.4c0-.5.5-.2.5-.3.3-.8.2-1.6,1.2-1.7.2-.5-.5-.2-.6-.5-.3-1.1.5-.6.9-.9s.5-.8.6-.9c.9-.6,3.4-1.1,4.3-.6h0l.2.2Z"/>
  <path class="st0" d="M177.9,227.9v1.6c0,.3,1.1,1.9,1.2,2.5s.5,0,.5.3v2.6c0,.5-.5.2-.5.3,0,.3,0,.8-.2,1.1-.8,1.1-2,1.6-3.3,1.2-1.2-.3-2-1.9-2-2v-1.4c0-.5-.6,0-.6-.6v-2.9c0-.5,1.1-.8,1.2-1.1v-1.6h3.6Z"/>
  <path class="st0" d="M168.7,232.1s0,.5.3.5c.8.2,1.4-.3,2.2.6,0,1.7,1.7,5.3,0,6.5-1.7,1.2-.6,0-.9,0-.3.2-.5.9-1.4.6l.6-.6c-1.7.5-2.2-.6-3.1-1.7s-.6,0-.9-.5c-1.1-1.1-.9-3.3-.6-4.8,1.1-.8,2.8-1.4,4-.8h0l-.2.2Z"/>
  <path class="st0" d="M185,233.3s.6.9.8,1.1c.3.2.9,0,1.1,0,.3.3.8,4,.6,4.7s-.8,0-.9.2c.3.6-1.6,3.1-2,2.9-.8,0-2-.8-2.5-1.4s0-.6-.2-1.1c-.3-.8-.3-.5-.5-1.7s-1.1-.5-.6-1.4l.6.6v-2.2c0-.6,1.7-1.9,1.9-1.9.5-.2,1.1-.2,1.7,0h0v.2Z"/>
  <path class="st0" d="M168.1,242.5l1.2,1.2v1.4c0,.5.5.2.6.5v2.2c0,.5-1.4,1.2-1.6,1.2-1.9.3-1.9-.6-2.2-.6h-1.6v-1.2c0-.2-1.1,0-1.2,0s0-.6,0-.9-.6-1.2-.6-1.4-.9,0-.5-.6c.5-.6.5,0,.6-.2s0-1.6,0-1.6h.9c.3,0,.2-.5.5-.6.6-.2,3.3.3,3.9.8h-.2v-.2Z"/>
  <path class="st4" d="M305.2,116.6c4-.6,7.1,2.3,5.6,6.5-1.6,3.9-9.2,8.4-12.7,4.8-3.6-3.6,2.8-10.6,7.1-11.2h0v-.2Z"/>
  <path class="st4" d="M143.4,81.3c-.3.3-2.5,1.6-2.9,1.2s-2-5-2.2-5.7c1.4-.3,2.9-1.2,4.3-.3s1.9,3.6.6,4.8h.2Z"/>
  <path class="st4" d="M135.9,72c0-1.1-2.3-5-2.2-5.6s.5-.3.8-.5c5.3-2.5,7.1,5.1,1.4,6.1Z"/>
  <path class="st4" d="M206.6,57.3l.9,9.6-4.8-.3c-.3-.3,2.8-8.2,3.3-9s0-.5.6-.3Z"/>
  <path class="st4" d="M89.1,290.6c2.8,1.9,4.7,3.4,2.5,6.7-2.2,3.3-5.9,3.1-8.1-.5l5.6-6.2Z"/>
  <path class="st4" d="M103.8,304c5.1-1.1,6.4,5.4,2.5,7.9-6.4,3.7-8.1-6.7-2.5-7.9Z"/>
  <path class="st4" d="M265.7,315.9l-.6-4.2c.3-.3,3.3,2.2,3.6,2.6,0,.3-2.8,1.9-2.9,1.7h0v-.2Z"/>
</svg>